<?xml version="1.0" standalone="no"?><!DOCTYPE svg PUBLIC "-//W3C//DTD SVG 1.1//EN" "http://www.w3.org/Graphics/SVG/1.1/DTD/svg11.dtd"><svg t="1642581792156" class="icon" viewBox="0 0 1024 1024" version="1.1" xmlns="http://www.w3.org/2000/svg" p-id="1581" xmlns:xlink="http://www.w3.org/1999/xlink" width="256" height="256"><defs><style type="text/css"></style></defs><path d="M564.335558 120.537015c-132.400548 9.961841-264.574404 83.871732-344.94081 192.91044-82.650115 112.115838-113.6607 252.933365-82.998549 376.681847 24.562466 99.07267 87.801054 177.62974 178.112509 221.221714 87.544977 42.265408 201.923534 64.128564 305.958234 58.486459 88.246042-4.789912 209.450538-31.216287 285.610554-129.906939 70.22825-91.046104 98.82079-208.799849 80.467158-331.586989-16.384772-109.605438-68.435706-215.109435-142.782188-289.447521-71.5884-71.600994-170.828989-106.528308-279.426908-98.359011z" fill="#8A8AB3" p-id="1582"></path><path d="M903.155691 456.271623c9.340538 217.334372-160.934316 421.545813-380.300517 456.107902-219.362003 34.553693-404.758033-113.610324-414.111165-330.940498C99.416066 364.104655 269.682523 159.910005 489.048725 125.339521c219.370399-34.566286 404.774825 113.593532 414.106966 330.932102z" fill="#C4C4E0" p-id="1583"></path><path d="M524.261502 518.204636s97.678935-143.441273 33.898806-266.0479c0 0-62.323426-1.603634-119.109698 26.300435 0.004198 0 126.405812 80.802998 85.210892 239.747465z" fill="#8989A3" p-id="1584"></path><path d="M532.938757 524.115412l-18.832203-8.538721c38.739093-149.469593-75.803186-225.117454-80.698048-228.265949l5.663094-8.811591-4.647179-9.453883c53.06265-26.073744 110.79347-27.391914 121.829997-27.391914 1.42312 0 2.182957 0.02099 2.182957 0.02099l6.17525 0.16792 2.86723 5.48258c27.40031 52.672237 30.045046 117.354936 7.648746 187.054238-16.72481 52.021548-41.157138 88.216656-42.189844 89.73633z m-73.343162-243.235998c28.185335 23.571739 85.1941 83.263022 83.464527 178.868149 21.20407-49.771422 41.816223-127.090085 8.626878-197.045465-14.755951 0.386215-53.243164 2.9302-92.091405 18.177316z" fill="#6E6E96" p-id="1585"></path><path d="M520.424535 519.149185s18.202504-165.199479-102.288333-232.102917c0 0-58.368915 30.1416-96.830941 81.340341 0 0.004198 157.361823 1.536466 199.119274 150.762576z" fill="#8989A3" p-id="1586"></path><path d="M510.315765 521.978633c-38.978379-139.297853-183.040955-143.00888-189.157433-143.097038l-10.339661-0.155326-0.012594-13.844985 2.103195-2.800063c39.452752-52.512713 97.939211-83.086707 100.407632-84.362897l4.995614-2.581766 4.911653 2.728696c52.004756 28.873806 87.104187 80.101933 101.503309 148.143027 10.734272 50.728565 6.317982 92.532194 6.124874 94.282758l-20.536589 1.687594zM342.089532 359.658979c38.600559 5.180325 121.44798 25.528004 167.18513 105.302493-4.941039-50.829317-24.172052-125.591401-91.247608-165.858564-12.648557 7.266728-47.28621 28.689094-75.937522 60.556071z" fill="#6E6E96" p-id="1587"></path><path d="M517.364197 521.861089s-66.147799-142.685634-211.05837-135.985635c0 0-38.785271 53.801497-48.612776 114.584259-0.008396 0.008396 146.140584-78.128875 259.671146 21.401376z" fill="#8989A3" p-id="1588"></path><path d="M510.445902 529.753319c-36.29586-31.820798-79.996983-47.953691-129.885949-47.953691-64.581947 0-117.413707 27.647992-117.942654 27.929257l-18.65169 9.903069 3.366792-20.843043c10.104573-62.516534 48.81428-116.767216 50.459893-119.046727l2.963784-4.109836 5.062782-0.235088c150.330182-6.842731 218.312505 136.107377 221.070587 142.051737l-16.443545 12.304322zM380.555755 460.813853c36.535146 0 70.093914 7.854448 100.28589 23.416414-30.129006-38.676123-85.798611-89.879062-168.860129-88.040341-7.669736 11.624247-28.94937 46.131761-39.675246 86.226807 22.526438-8.983708 62.344416-21.60288 108.249485-21.60288z" fill="#6E6E96" p-id="1589"></path><path d="M515.886503 525.6057s-132.765773-81.957446-263.277223-3.429761c0 0-8.828382 63.058075 12.627567 117.124045 0.004198 0.004198 95.78564-136.871412 250.649656-113.694284z" fill="#8989A3" p-id="1590"></path><path d="M265.236847 649.794971h-7.128194l-2.627945-6.624436c-22.219985-56.001246-13.643482-119.760386-13.265662-122.4513l0.696867-4.957832 4.286152-2.581767c39.188278-23.580135 82.373048-35.536023 128.349483-35.536023 81.684576 0 143.269155 37.433517 145.850922 39.028755l-7.069423 19.310774a228.144208 228.144208 0 0 0-33.613341-2.53139c-126.464584 0-203.678296 107.317531-206.902356 111.884948l-3.135902 4.445677-5.440601 0.012594z m-2.766478-121.238081c-1.246804 13.349622-3.513721 51.668916 6.641227 89.094037 26.611087-30.817477 94.417094-96.746981 192.696342-104.441905-23.181325-7.715914-53.10463-14.571239-86.256192-14.571238-40.380509 0-78.393349 10.062593-113.081377 29.919106z" fill="#6E6E96" p-id="1591"></path><path d="M516.402857 529.375499s-163.81414 0.738847-244.965572 130.049671c0 0 23.525561 55.400933 70.492723 88.279626 0.016792 0.004198 19.75996-158.936071 174.472849-218.329297z" fill="#8989A3" p-id="1592"></path><path d="M340.813342 759.73205l-4.89906-3.429762c-48.868854-34.209457-73.124866-90.399613-74.136582-92.775677l-2.140977-5.041792 2.90921-4.638784c83.258824-132.673417 246.884055-134.931938 253.806548-134.961324l3.807581 20.293105c-145.754368 55.955068-166.987824 203.615326-167.823225 209.870338l-0.768233 5.772242-10.755262 4.911654z m-57.407575-99.505063c5.940162 12.065036 23.298869 43.97819 51.505195 68.628814 8.698245-37.131261 37.404131-124.508318 122.329558-180.841206-52.067725 11.859334-126.699671 40.938842-173.834753 112.212392z" fill="#6E6E96" p-id="1593"></path><path d="M794.289101 768.778728s128.739897-165.123915 128.739896-97.956003-10.897994 163.352361-51.626936 197.532432c-40.724744 34.175873 255.305232-172.428425 48.52042-548.803818H870.877312c0-0.004198 88.934513 310.827907-76.588211 449.227389z" fill="#B5B5CF" p-id="1594"></path><path d="M518.778921 532.154571S367.806446 615.38401 357.777437 760.844518c0 0 49.553127 32.916475 109.462706 35.783705 0 0-61.576183-138.428868 51.538778-264.473652z" fill="#8989A3" p-id="1595"></path><path d="M483.750856 807.925026l-17.014472-0.81441c-62.092536-2.97218-112.644786-36.119544-114.768971-37.525873l-5.083771-3.375188 0.419799-6.087092c10.301878-149.448603 160.035945-233.64358 166.404303-237.157301l12.875249 16.20006c-107.325927 119.600863-50.346548 251.87547-49.758828 253.197839l6.926691 15.561965z m-114.970475-52.672236c12.199372 7.077819 44.565909 24.012528 83.170666 29.398555-10.448808-34.549495-27.387716-119.336389 21.258644-206.885564-42.093291 35.729131-96.360765 96.583259-104.42931 177.487009z" fill="#6E6E96" p-id="1596"></path><path d="M586.295267 985.823438c-97.922419 0-200.164575-22.249371-280.509991-61.030443-94.870477-45.791724-161.320532-128.294909-187.104614-232.304421-31.854382-128.563581 0.214098-274.611808 85.781819-390.686355 83.174865-112.854685 220.046276-189.371531 357.198954-199.690201 10.709084-0.806015 21.502128-1.21322 32.085272-1.213221 100.630126 0 193.132934 37.089281 260.477161 104.441905 76.840091 76.831695 130.603806 185.752859 147.513328 298.838434 19.029509 127.333568-10.725876 249.621147-83.779376 344.327903-80.047359 103.732443-206.234875 131.439207-297.994638 136.418028a626.718595 626.718595 0 0 1-33.667915 0.898371z m7.447242-851.344883c-9.739347 0-19.688594 0.37782-29.566475 1.120864-127.669408 9.605011-255.145708 80.924739-332.682666 186.126481-79.707321 108.127744-109.693596 243.710371-80.215279 362.681535 23.336651 94.140026 83.39316 168.767774 169.107812 210.139009 75.950116 36.661086 172.869214 57.693038 265.909366 57.693038 10.713282 0 21.426564-0.285464 31.841788-0.852192 84.749112-4.601002 200.949599-29.738593 273.22647-123.400048 67.419791-87.402245 94.820101-200.643146 77.15494-318.850274-15.864221-106.121102-66.181383-208.195338-138.04685-280.05241-61.001058-61.009454-145.070095-94.606003-236.729106-94.606003z" fill="#6E6E96" p-id="1597"></path><path d="M349.906198 409.149135c106.053934-127.195035 283.977534-157.605307 402.23084-70.639653a244.436624 244.436624 0 0 0-44.561711-46.526372c-118.102179-94.370916-301.751843-65.438338-410.202832 64.632323-108.459385 130.070661-100.646918 312.020137 17.455261 406.395251 2.606955 2.082205 5.289473 4.030075 7.959397 5.994736-73.255004-99.895476-65.509704-248.773153 27.119045-359.856285z" fill="#6E6E96" p-id="1598"></path><path d="M522.359811 533.199872s-97.674737 143.449669-33.903004 266.039504c0 0 62.310832 1.61203 119.1055-26.296238 0-0.004198-126.397416-80.807196-85.202496-239.743266z" fill="#8989A3" p-id="1599"></path><path d="M490.383687 809.751154c-1.435714 0-2.195551-0.02099-2.195551-0.02099l-6.17525-0.16792-2.86723-5.48258c-27.396112-52.663841-30.040848-117.342342-7.644548-187.045842 16.716414-52.029944 41.148742-88.22925 42.181448-89.744726l18.832203 8.538721c-38.655133 149.14215 75.83677 225.130048 80.727434 228.295335l4.802506 3.09812 0.008396 12.253946-5.864598 2.88822c-53.050056 26.065348-110.77248 27.387716-121.80481 27.387716z m13.181703-218.094209c-21.20407 49.771422-41.816223 127.094283-8.631077 197.045465 14.743357-0.386215 53.226372-2.921804 92.083009-18.16892-27.996425-23.437403-85.17311-83.162271-83.451932-178.876545z" fill="#6E6E96" p-id="1600"></path><path d="M526.196778 532.238531s-18.202504 165.199479 102.279937 232.111313c0 0 58.364717-30.145798 96.822545-81.336143 0.016792 0-157.336635-1.540664-199.102482-150.77517z" fill="#8989A3" p-id="1601"></path><path d="M628.296201 776.255356l-4.915851-2.728696c-52.000558-28.878004-87.095791-80.110329-101.494913-148.151423-10.734272-50.728565-6.317982-92.527996-6.120676-94.282758l20.536589-1.679198c39.087527 139.654682 183.011569 143.034068 189.119651 143.109632l20.687717 0.260275-12.413469 16.540099c-39.444356 52.508515-97.930815 83.078311-100.399236 84.358699l-4.999812 2.57337z m-90.978936-190.152358c4.890664 50.837713 24.058706 125.830686 91.268598 166.190206 12.677943-7.279322 47.403754-28.773054 76.080254-60.719792-38.483015-5.465789-121.670474-26.321425-167.348852-105.470414z" fill="#6E6E96" p-id="1602"></path><path d="M529.26971 529.539221s66.143601 142.69403 211.049974 135.985635c0 0 38.793667-53.809893 48.616974-114.592655 0 0-146.144782 78.137271-259.666948-21.39298z" fill="#8989A3" p-id="1603"></path><path d="M730.454397 676.246534c-143.097038 0-208.019022-136.485196-210.709937-142.295221l16.443545-12.30852c36.291662 31.8166 79.988587 47.953691 129.877553 47.953691 64.762461 0 117.388519-27.639596 117.913268-27.920861l4.45827 8.370801 10.99035 0.881579c0 1.246804 0 2.455827-0.478571 3.740413-10.604134 61.634955-48.495232 114.735387-50.115658 116.98971l-2.963784 4.109836-5.06698 0.235088c-3.496929 0.163722-6.935087 0.243484-10.348056 0.243484z m-164.666333-109.076491c29.616851 38.029632 83.934702 88.08232 164.670531 88.08232 1.389536 0 2.78327-0.016792 4.1854-0.046178 7.652944-11.599059 28.861212-45.980633 39.608078-85.96653-4.924248 1.855514-10.809836 3.925125-17.845674 6.234021-20.960586 6.893107-53.650369 15.108582-90.336643 15.108583-36.539344 0.008396-70.093914-7.85025-100.281692-23.412216z" fill="#6E6E96" p-id="1604"></path><path d="M530.73481 525.790412s132.761575 81.957446 263.281421 3.425563c0 0 8.819986-63.058075-12.631765-117.128243 0 0.004198-95.781442 136.888204-250.649656 113.70268z" fill="#8989A3" p-id="1605"></path><path d="M671.069567 573.748301c-81.688774 0-143.264957-37.433517-145.846724-39.028755l7.069423-19.310774c11.208645 1.679198 22.52224 2.531391 33.625935 2.53139 126.859195 0 206.087945-110.747292 206.868772-111.863959l6.330576 4.441479 12.027254-2.296303c22.215787 56.005444 13.643482 119.764584 13.265662 122.455498l-0.692669 4.957832-4.286152 2.581766c-39.196674 23.575937-82.381444 35.531825-128.362077 35.531826z m-86.30237-35.573805c23.185523 7.72431 53.121422 14.583833 86.30237 14.583832 40.380509 0 78.397547-10.058395 113.085575-29.923304 1.246804-13.341226 3.505325-51.61854-6.628633-89.026869-12.195174 14.017104-30.3515 31.56472-47.135082 44.717037-44.876561 35.170798-94.857883 55.581447-145.62423 59.649304z" fill="#6E6E96" p-id="1606"></path><path d="M530.214258 522.029009s163.809942-0.734649 244.961374-130.045473c0 0-23.525561-55.417725-70.496921-88.296418 0 0-19.743168 158.948665-174.464453 218.341891z" fill="#8989A3" p-id="1607"></path><path d="M530.260436 532.523995l-3.803383-20.293105c146.766085-56.337086 167.617523-208.321278 167.810631-209.849348l2.182958-17.249559 14.252191 9.957643c48.87725 34.213655 73.129064 90.420603 74.136582 92.792469l2.140977 5.041792-2.90921 4.638784c-83.26722 132.677615-246.884055 134.92774-253.810746 134.961324z m181.370154-210.05505c-8.840976 37.068291-37.874306 124.701426-122.451301 180.962948 52.076121-11.82575 126.834007-40.888466 174.032059-112.254372-5.94436-12.081828-23.324057-44.045358-51.580758-68.708576z" fill="#6E6E96" p-id="1608"></path><path d="M527.842392 519.254134s150.985069-83.242032 161.00988-228.694144c0 0-49.578315-32.916475-109.466904-35.787903 0 0.004198 61.571985 138.420472-51.542976 264.482047z" fill="#8989A3" p-id="1609"></path><path d="M532.909371 528.447742l-12.875249-16.20006c107.330125-119.617655 50.350746-251.883866 49.763026-253.206235l-6.922493-15.566164 17.01867 0.814411c62.067348 2.976378 112.644786 36.119544 114.768971 37.525873l5.083771 3.375188-0.419799 6.087092c-10.306076 149.444405-160.048539 233.656174-166.416897 237.169895z m61.769291-261.698777c10.448808 34.549495 27.37932 119.340587-21.26704 206.893959 42.089093-35.729131 96.364963-96.604249 104.441904-177.491206-12.20357-7.073621-44.582701-24.00833-83.174864-29.402753z" fill="#6E6E96" p-id="1610"></path><path d="M486.005179 834.611677c-64.917787 0-124.831564-20.456827-173.259628-59.162336-56.152374-44.868165-91.218222-110.549986-98.741028-184.942646-8.639473-85.437584 20.108394-174.854866 78.87192-245.322401 65.862335-78.993662 163.180243-126.15813 260.330231-126.15813 64.913589 0 124.81897 20.456827 173.25543 59.158138 56.148176 44.876561 91.214024 110.56258 98.73683 184.95524 8.635275 85.441782-20.112592 174.850668-78.87192 245.318203-65.862335 78.993662-163.171847 126.153932-260.321835 126.153932z m67.197297-581.99736c-87.301493 0-174.976608 42.647426-234.533555 114.0805-53.02067 63.582824-78.989464 143.928241-71.25256 220.440888 6.607643 65.32919 37.253003 122.89209 86.293974 162.080369 42.416536 33.898805 95.076179 51.815846 152.294844 51.815846 87.301493 0 174.97241-42.643228 234.516763-114.076302 53.016472-63.578626 78.981068-143.919845 71.25256-220.432492-6.603445-65.337586-37.248805-122.904684-86.285578-162.097161-42.412338-33.898805-95.076179-51.811648-152.286448-51.811648z" fill="#6E6E96" p-id="1611"></path><path d="M163.712549 592.698048c-8.547117-198.976542 147.34121-385.934226 348.177464-417.582907 166.479867-26.233267 311.587744 62.48295 361.233226 206.931742-33.290096-180.53895-199.073096-297.583234-392.28999-267.139378C269.976383 148.130433 106.317568 344.407665 115.284485 553.312464c5.428007 126.275674 72.705066 228.240762 171.639202 281.828161-71.857071-54.704066-118.81164-140.217213-123.211138-242.442577z" fill="#DEDEFF" p-id="1612"></path><path d="M466.341773 928.134598c-97.238146 0-187.952609-35.162402-255.439568-99.013897-68.225806-64.544165-108.13614-154.393841-112.376114-253.004731-9.676377-225.239195 167.281684-437.60734 394.460352-473.407837a423.275387 423.275387 0 0 1 65.70701-5.209711c97.22975 0 187.948411 35.162402 255.431172 99.009699 68.221608 64.544165 108.127744 154.398039 112.359322 253.000533 9.684773 225.243393-167.273288 437.615736-394.460353 473.416233a422.956339 422.956339 0 0 1-65.681821 5.209711z m92.35168-797.048023c-19.915286 0-40.267163 1.616228-60.480506 4.802506-210.852668 33.227126-375.1034 230.066889-366.136484 438.786976 3.862155 89.837082 40.057263 171.53845 101.902117 230.054296 61.223551 57.923928 143.743529 89.82029 232.358995 89.820289a389.951707 389.951707 0 0 0 60.455318-4.798307c210.861064-33.227126 375.107598-230.075285 366.136484-438.799571-3.857957-89.832884-40.040471-171.534252-101.889524-230.045899-61.219353-57.923928-143.735133-89.82029-232.3464-89.82029z" fill="#6E6E96" p-id="1613"></path><path d="M909.708761 446.032715c-7.224748-168.213639-119.924108-294.959488-272.214754-327.649271 134.617089 41.182326 231.678919 160.71602 238.294959 316.087994 9.151628 214.559498-157.622099 416.155588-372.458664 450.276887-103.598108 16.45194-199.450915-9.055074-271.979666-63.92706 75.971106 66.874052 182.272722 99.555439 298.057607 81.310955 219.366201-34.562089 389.636857-238.765134 380.300518-456.099505z" fill="#6E6E96" p-id="1614"></path><path d="M289.186406 880.269065c-110.239335 108.560137-228.14001 125.347917-260.451973 92.553184-32.299369-32.794733-20.087404-144.742651 90.156129-253.315382 110.243533-108.560137 352.593754-243.903479 384.893123-211.096152 32.299369 32.786337-104.353747 263.285619-214.597279 371.85835z" fill="#FA8585" p-id="1615"></path><path d="M173.980843 735.190574c-100.07599 98.564712-119.361577 199.883309-97.901429 242.274657-15.09179-1.838722-26.883957-6.695801-34.226249-14.147241-32.299369-32.794733-20.087404-144.742651 90.15613-253.315383 110.239335-108.564335 352.593754-243.903479 384.893123-211.096152 4.323934 4.3953 5.595927 12.363094 4.323934 23.08897-80.278248 18.735649-257.517575 124.831564-347.245509 213.195149z" fill="#FAA0A0" p-id="1616"></path><path d="M81.247145 1004.609464c-26.539721 0-47.382764-6.914097-60.274804-20.003444-21.783393-22.123431-26.489345-64.947173-12.585588-114.559071 10.797242-38.529193 37.420923-97.997983 102.918033-162.504366 100.638522-99.106254 310.286366-220.923657 380.208161-220.923658 12.325312 0 21.892541 3.366792 28.428819 10.012217 8.131515 8.253257 32.882891 33.374056-51.303691 177.747284-48.037651 82.381444-110.675926 165.858564-163.474102 217.854923-55.161647 54.326246-142.954306 112.376114-223.916828 112.376115z m410.265802-484.406583c-26.959521 0-90.92856 27.194608-162.966145 69.271107-76.160016 44.490345-148.562826 97.569788-193.678673 141.992965-47.000746 46.287087-80.433574 98.724236-94.144224 147.643466-11.712405 41.778441-6.34317 71.25256 4.172806 81.92806 6.250814 6.347368 19.503882 9.987029 36.350434 9.987029 46.434017 0 123.450423-26.984708 200.357683-102.720727 48.805884-48.067037 107.682756-126.007002 153.646597-203.39703 55.799743-93.955314 62.621484-135.150234 60.547675-144.356436a21.968105 21.968105 0 0 0-4.286153-0.348434z" fill="#6E6E96" p-id="1617"></path><path d="M35.035622 983.313038c-9.613407-9.756139-15.23872-26.564909-15.557767-48.176185 51.307888 7.157581 141.119782-19.48709 228.043456-100.248108 88.023548-81.776932 194.081681-236.586375 222.418143-317.473332 19.625624-4.894862 33.852627-4.894862 40.137025 1.48609 32.295171 32.794733-104.349549 263.294015-214.593082 371.85835-110.239335 108.564335-228.14001 125.352115-260.447775 92.553185z" fill="#6E6E96" p-id="1618"></path><path d="M508.825477 503.364725c-32.803129-32.295171 102.536015-274.653788 211.091954-384.897321C828.498558 8.228069 940.43808-3.983897 973.237011 28.315473c32.794733 32.307765 16.002755 150.20844-92.56158 260.451973-108.560137 110.243533-339.055222 246.896649-371.849954 214.597279z" fill="#FA8585" p-id="1619"></path><path d="M735.609534 173.561884c98.564712-100.07599 199.883309-119.361577 242.274657-97.905628-1.838722-15.087592-6.695801-26.883957-14.147241-34.226249-32.794733-32.299369-144.742651-20.087404-253.315383 90.15613-108.560137 110.239335-243.903479 352.593754-211.096152 384.897321 4.3953 4.323934 12.367292 5.595927 23.093168 4.323934 18.735649-80.278248 124.827366-257.517575 213.190951-347.245508z" fill="#FAA0A0" p-id="1620"></path><path d="M524.597342 529.173995c-11.787968 0-21.05714-3.24505-27.551438-9.646991-8.270049-8.139911-33.437026-32.916475 49.616097-183.301231 47.747989-86.453498 109.555062-172.797849 161.291145-225.339947C776.271309 41.518165 856.730071 0.10495 923.175927 0.10495c26.879759 0 48.264342 7.069423 61.844855 20.444233 21.968105 21.64486 26.115724 65.614654 11.082705 117.627805-16.229447 56.148176-52.970294 115.302116-103.463772 166.572223-92.418848 93.850364-295.098022 224.424785-368.042373 224.424784z m-3.711027-33.877815c0.747243 0.14693 1.943671 0.289662 3.711027 0.289662 53.713339 0 244.197339-112.938645 344.118003-214.404172 108.190714-109.865713 114.046916-215.718144 92.742094-236.708117-6.960275-6.851127-20.914408-10.784648-38.281512-10.784647-67.868977 0-143.315333 52.050933-191.290014 100.760263-47.764781 48.507826-105.806253 129.063142-151.480433 210.231365-55.384141 98.42198-61.752499 141.170158-59.519165 150.615646z" fill="#6E6E96" p-id="1621"></path><path d="M983.731997 34.612464c-9.760337-9.613407-26.569107-15.23872-48.180382-15.557767 7.157581 51.307888-19.48709 141.119782-100.248108 228.043456-81.772734 88.023548-236.582177 194.090076-317.473332 222.426539-4.894862 19.625624-4.890664 33.856825 1.48609 40.137025 32.794733 32.299369 263.289817-104.349549 371.849954-214.593081 108.572731-110.247731 125.364709-228.144208 92.565778-260.456172z" fill="#6E6E96" p-id="1622"></path><path d="M437.307951 560.318335a80.034765 85.181506 46.292 1 0 123.150425-117.718004 80.034765 85.181506 46.292 1 0-123.150425 117.718004Z" fill="#C4C4E0" p-id="1623"></path><path d="M493.729488 600.816969c-26.422177 0-50.774743-10.251503-68.565843-28.86541-36.887777-38.592163-33.835835-101.599862 6.813345-140.452301 19.785148-18.911965 45.376122-29.327189 72.054377-29.327189 26.422177 0 50.770545 10.247305 68.565844 28.861212 36.887777 38.587965 33.835835 101.595664-6.809147 140.452301-19.793544 18.916163-45.384518 29.331387-72.058576 29.331387z m10.297681-165.060945c-17.992604 0-35.338717 7.111403-48.847864 20.024434-27.261776 26.056952-29.835147 67.759829-5.742856 92.968786 11.393357 11.922304 27.123242 18.48377 44.288841 18.483769 17.992604 0 35.342915-7.111403 48.852062-20.024433 27.257578-26.056952 29.826751-67.764027 5.734461-92.968786-11.389159-11.918106-27.119044-18.48377-44.284644-18.48377z" fill="#6E6E96" p-id="1624"></path><path d="M437.307951 560.318335a80.034765 85.181506 46.292 1 0 123.150425-117.718004 80.034765 85.181506 46.292 1 0-123.150425 117.718004Z" fill="#C4C4E0" p-id="1625"></path><path d="M493.729488 600.816969c-26.422177 0-50.774743-10.251503-68.565843-28.86541-36.887777-38.592163-33.835835-101.599862 6.813345-140.452301 19.785148-18.911965 45.376122-29.327189 72.054377-29.327189 26.422177 0 50.770545 10.247305 68.565844 28.861212 36.887777 38.587965 33.835835 101.595664-6.809147 140.452301-19.793544 18.916163-45.384518 29.331387-72.058576 29.331387z m10.297681-165.060945c-17.992604 0-35.338717 7.111403-48.847864 20.024434-27.261776 26.056952-29.835147 67.759829-5.742856 92.968786 11.393357 11.922304 27.123242 18.48377 44.288841 18.483769 17.992604 0 35.342915-7.111403 48.852062-20.024433 27.257578-26.056952 29.826751-67.764027 5.734461-92.968786-11.389159-11.918106-27.119044-18.48377-44.284644-18.48377z" fill="#6E6E96" p-id="1626"></path><path d="M486.437572 902.140616s354.864869 56.156572 475.49424-165.938325c0 0-146.543591 405.278584-666.448415 154.557562l190.954175 11.380763z" fill="#6E6E96" p-id="1627"></path><path d="M575.359491 528.216853s155.678427 4.281954 353.105909-193.149726l-30.62437-53.259956s-210.500037 184.749539-316.545575 207.120651l-5.935964 39.289031z" fill="#6E6E96" p-id="1628"></path><path d="M525.953294 577.64404s-63.259579 255.863565-194.115264 329.849019l-43.264531-10.062592s187.599977-234.227102 210.72253-305.429286l26.657265-14.357141z" fill="#6E6E96" p-id="1629"></path><path d="M553.44596 438.421751c-13.383206-13.996114-30.939219-21.774997-49.309643-23.361839 9.27337 3.18208 17.883456 8.429573 25.024245 15.902003 25.200561 26.359207 22.883268 69.472611-5.176127 96.293597-28.059395 26.820987-71.23157 27.19041-96.427933 0.822807-10.532768-11.019735-16.187467-24.969671-17.236966-39.427564-4.025877 24.13427 2.464223 49.141723 19.99085 67.474365 30.532014 31.94254 82.855817 31.501751 116.867968-1.007519 34.003755-32.500873 36.812214-84.749112 6.267606-116.69585z" fill="#6E6E96" p-id="1630"></path></svg>