<?xml version="1.0" standalone="no"?><!DOCTYPE svg PUBLIC "-//W3C//DTD SVG 1.1//EN" "http://www.w3.org/Graphics/SVG/1.1/DTD/svg11.dtd"><svg t="1639963402781" class="icon" viewBox="0 0 1024 1024" version="1.1" xmlns="http://www.w3.org/2000/svg" p-id="2587" xmlns:xlink="http://www.w3.org/1999/xlink" width="1024" height="1024"><defs><style type="text/css"></style></defs><path d="M512 512m-495.223428 0a495.223428 495.223428 0 1 0 990.446856 0 495.223428 495.223428 0 1 0-990.446856 0Z" fill="#E0ECFF" p-id="2588"></path><path d="M512.562015 511.433791m-413.65993 0a413.65993 413.65993 0 1 0 827.319861 0 413.65993 413.65993 0 1 0-827.319861 0Z" fill="#F2FAFF" p-id="2589"></path><path d="M360.24752 263.002122a16.759795 16.759795 0 0 1-14.545288-8.39248L316.05803 203.248167a16.776572 16.776572 0 1 1 29.061216-16.772378l29.644203 51.361475a16.776572 16.776572 0 0 1-14.515929 25.164858zM248.339398 374.880885a16.705271 16.705271 0 0 1-8.375704-2.252255l-51.340503-29.648397a16.776572 16.776572 0 1 1 16.780766-29.052828l51.340503 29.648397a16.776572 16.776572 0 0 1-8.405062 31.305083zM197.028253 710.190031a16.776572 16.776572 0 0 1-8.409256-31.309277l51.340503-29.660979a16.776572 16.776572 0 0 1 16.78496 29.057022l-51.340503 29.660979a16.692689 16.692689 0 0 1-8.375704 2.252255zM330.582347 843.786066a16.772378 16.772378 0 0 1-14.515929-25.160664l29.63162-51.378251a16.776572 16.776572 0 1 1 29.061217 16.759796l-29.63162 51.378251a16.768183 16.768183 0 0 1-14.545288 8.400868zM695.573443 843.769289a16.768183 16.768183 0 0 1-14.545288-8.39248l-29.652591-51.361474a16.776572 16.776572 0 0 1 29.057023-16.776572l29.65259 51.361475a16.776572 16.776572 0 0 1-14.511734 25.169051zM829.119148 710.177448a16.680106 16.680106 0 0 1-8.371509-2.252254l-51.348892-29.648397a16.776572 16.776572 0 0 1 16.776571-29.057022l51.348893 29.648396a16.776572 16.776572 0 0 1-8.405063 31.309277zM777.795421 374.876691a16.776572 16.776572 0 0 1-8.405063-31.305083l51.344698-29.652591a16.776572 16.776572 0 0 1 16.776572 29.052828l-51.344698 29.652591a16.680106 16.680106 0 0 1-8.371509 2.252255zM665.878911 262.997928a16.776572 16.776572 0 0 1-14.511735-25.164858l29.648396-51.357281a16.776572 16.776572 0 0 1 29.057023 16.776572l-29.648397 51.357281a16.763989 16.763989 0 0 1-14.545287 8.388286z" fill="#6E6E96" p-id="2590"></path><path d="M513.065312 180.524301a16.776572 16.776572 0 0 1-16.776571-16.776572v-17.783166a16.776572 16.776572 0 0 1 33.553143 0v17.783166a16.776572 16.776572 0 0 1-16.776572 16.776572zM452.761925 185.800532a16.776572 16.776572 0 0 1-16.499758-13.865836l-3.08689-17.510547a16.776572 16.776572 0 0 1 33.041459-5.829859l3.086889 17.510547a16.776572 16.776572 0 0 1-16.5417 19.695695zM394.324931 201.465656a16.780766 16.780766 0 0 1-15.769977-11.051566l-6.073119-16.709466a16.772378 16.772378 0 0 1 10.036584-21.499177 16.768183 16.768183 0 0 1 21.499177 10.036585l6.073119 16.709465a16.772378 16.772378 0 0 1-15.765784 22.514159zM339.494901 227.037346a16.776572 16.776572 0 0 1-14.549482-8.396674l-8.879001-15.396699a16.776572 16.776572 0 1 1 29.061217-16.763989l8.879 15.396698a16.776572 16.776572 0 0 1-14.511734 25.160664zM289.911743 261.756461a16.73463 16.73463 0 0 1-12.859242-5.99343l-11.424846-13.618382a16.772378 16.772378 0 1 1 25.705902-21.562089l11.424846 13.618382a16.772378 16.772378 0 0 1-12.84666 27.555519zM247.097932 304.540913a16.71366 16.71366 0 0 1-10.783142-3.934106l-13.601605-11.429039a16.772378 16.772378 0 1 1 21.578865-25.689126l13.601606 11.42904a16.772378 16.772378 0 0 1-10.795724 29.623231zM212.378816 354.111489a16.692689 16.692689 0 0 1-8.375703-2.252255l-15.384116-8.887389a16.768183 16.768183 0 0 1-6.131837-22.916797 16.763989 16.763989 0 0 1 22.916797-6.131837l15.384116 8.887389a16.768183 16.768183 0 0 1-8.409257 31.300889zM186.819709 408.975073c-1.912529 0-3.850223-0.327143-5.75017-1.023371l-16.692689-6.09409a16.776572 16.776572 0 1 1 11.504534-31.518984l16.692689 6.09409a16.776572 16.776572 0 0 1-5.754364 32.542355zM171.183944 467.424649c-0.968847 0-1.954471-0.083883-2.944288-0.260037l-17.502159-3.095278a16.776572 16.776572 0 0 1 5.846636-33.041458l17.502158 3.095278a16.776572 16.776572 0 0 1-2.902347 33.301495zM165.882548 527.707065h-0.008389l-17.762195-0.008388a16.776572 16.776572 0 0 1 0.008388-33.553144h0.008389l17.762195 0.008389a16.776572 16.776572 0 0 1-0.008388 33.553143zM153.644039 591.080565a16.776572 16.776572 0 0 1-2.893959-33.305689l17.510547-3.086889a16.776572 16.776572 0 0 1 5.829858 33.045652l-17.510546 3.086889a17.120492 17.120492 0 0 1-2.9359 0.260037zM170.131214 652.528954a16.78496 16.78496 0 0 1-5.737587-32.54655l16.701077-6.073119a16.776572 16.776572 0 0 1 11.466787 31.531567l-16.701077 6.073119a16.751407 16.751407 0 0 1-5.7292 1.014983zM197.028253 710.190031a16.780766 16.780766 0 0 1-8.409256-31.309277l15.396698-8.891583a16.780766 16.780766 0 0 1 16.780766 29.057022l-15.396699 8.891583a16.667524 16.667524 0 0 1-8.371509 2.252255zM233.513103 762.293869a16.780766 16.780766 0 0 1-10.795724-29.627426l13.618382-11.437428a16.780766 16.780766 0 0 1 21.578865 25.697514l-13.618382 11.437428a16.722048 16.722048 0 0 1-10.783141 3.929912zM278.470121 807.28444a16.780766 16.780766 0 0 1-12.850854-27.559713l11.433234-13.635159a16.780766 16.780766 0 0 1 25.71429 21.562089l-11.433234 13.635158a16.747213 16.747213 0 0 1-12.863436 5.997625zM330.582347 843.786066a16.776572 16.776572 0 0 1-14.515929-25.164858l8.887389-15.409281a16.780766 16.780766 0 0 1 29.061217 16.768184l-8.887389 15.409281a16.772378 16.772378 0 0 1-14.545288 8.396674zM388.247618 870.649552a16.776572 16.776572 0 0 1-15.761589-22.522548l6.081507-16.701077a16.776572 16.776572 0 0 1 31.527373 11.483563l-6.081507 16.701077a16.793348 16.793348 0 0 1-15.765784 11.038985zM449.721171 887.128339a16.780766 16.780766 0 0 1-16.545894-19.695695l3.08689-17.514741a16.780766 16.780766 0 0 1 33.045652 5.825664l-3.086889 17.514741a16.776572 16.776572 0 0 1-16.499759 13.870031zM513.069506 892.660414a16.776572 16.776572 0 0 1-16.776571-16.776572v-17.770584a16.776572 16.776572 0 0 1 33.553143 0v17.770584a16.776572 16.776572 0 0 1-16.776572 16.776572zM576.42623 887.128339a16.78496 16.78496 0 0 1-16.503953-13.870031l-3.086889-17.514741a16.776572 16.776572 0 1 1 33.045652-5.825664l3.08689 17.514741a16.776572 16.776572 0 0 1-16.5417 19.695695zM637.899783 870.649552a16.780766 16.780766 0 0 1-15.769978-11.055761l-6.06473-16.705272a16.776572 16.776572 0 1 1 31.539955-11.45001l6.06473 16.705271a16.776572 16.776572 0 0 1-15.769977 22.505772zM695.573443 843.786066a16.776572 16.776572 0 0 1-14.553676-8.405063l-8.887389-15.421863a16.776572 16.776572 0 0 1 29.073799-16.751407l8.887388 15.421864a16.776572 16.776572 0 0 1-14.520122 25.156469zM747.689863 807.28444a16.717854 16.717854 0 0 1-12.850854-5.989236l-11.45001-13.635159a16.772378 16.772378 0 1 1 25.689125-21.578865l11.45001 13.635158a16.772378 16.772378 0 0 1-12.838271 27.568102zM792.642687 762.293869a16.692689 16.692689 0 0 1-10.778947-3.934107l-13.635159-11.45001a16.772378 16.772378 0 0 1-2.05513-23.633995 16.768183 16.768183 0 0 1 23.633995-2.05513l13.635159 11.45001a16.772378 16.772378 0 0 1-10.799918 29.623232zM829.119148 710.190031a16.738824 16.738824 0 0 1-8.375703-2.252255l-15.405087-8.899971a16.780766 16.780766 0 0 1 16.78496-29.057023l15.405087 8.899972a16.780766 16.780766 0 0 1-8.409257 31.309277zM856.011993 652.528954c-1.908335 0-3.846029-0.327143-5.741782-1.019177l-16.688495-6.081507a16.776572 16.776572 0 1 1 11.483564-31.523179l16.688494 6.081507a16.776572 16.776572 0 1 1-5.741781 32.542356zM872.503363 591.080565c-0.973041 0-1.962859-0.088077-2.952677-0.260037l-17.510547-3.10786a16.776572 16.776572 0 0 1 5.867606-33.037264l17.510547 3.10786a16.776572 16.776572 0 0 1-2.914929 33.297301zM878.022855 527.698677h-0.008388l-17.787361-0.008388a16.776572 16.776572 0 0 1 0.008389-33.553144h0.008388l17.78736 0.008388a16.776572 16.776572 0 0 1-0.008388 33.553144zM854.950874 467.407872a16.772378 16.772378 0 0 1-2.88557-33.301495l17.514741-3.078501a16.772378 16.772378 0 1 1 5.808888 33.045653l-17.514741 3.0785a16.524923 16.524923 0 0 1-2.923318 0.255843zM839.302527 408.96249a16.78496 16.78496 0 0 1-5.737587-32.546549l16.709465-6.081507a16.776572 16.776572 0 1 1 11.475175 31.531566l-16.709465 6.081508a16.776572 16.776572 0 0 1-5.737588 1.014982zM813.739226 354.111489a16.776572 16.776572 0 0 1-8.396674-31.309277l15.413475-8.887389a16.776572 16.776572 0 0 1 16.759795 29.06541l-15.413475 8.887389a16.671718 16.671718 0 0 1-8.363121 2.243867zM779.024305 304.540913a16.776572 16.776572 0 0 1-10.783142-29.635814l13.635159-11.429039a16.776572 16.776572 0 0 1 21.553701 25.718484l-13.635159 11.42904a16.747213 16.747213 0 0 1-10.770559 3.917329zM736.214688 261.760655a16.776572 16.776572 0 0 1-12.829884-27.572295l11.458399-13.626771a16.776572 16.776572 0 0 1 25.680737 21.595642l-11.458398 13.626771a16.747213 16.747213 0 0 1-12.850854 5.976653zM686.627336 227.049928a16.780766 16.780766 0 0 1-14.507541-25.17744l8.912554-15.409281a16.776572 16.776572 0 0 1 29.048634 16.801737l-8.912554 15.409281a16.789154 16.789154 0 0 1-14.541093 8.375703zM631.801499 201.478239a16.776572 16.776572 0 0 1-15.761589-22.526742l6.09409-16.722048a16.776572 16.776572 0 1 1 31.523178 11.487758l-6.09409 16.722048a16.772378 16.772378 0 0 1-15.761589 11.038984zM573.3687 185.808921a16.772378 16.772378 0 0 1-16.537506-19.704084l3.099472-17.523129a16.776572 16.776572 0 0 1 33.037264 5.846635l-3.099472 17.523129a16.776572 16.776572 0 0 1-16.499758 13.857449z" fill="#6E6E96" opacity=".39" p-id="2591"></path><path d="M513.065312 222.05051a16.776572 16.776572 0 0 1-16.776571-16.776572V145.964563a16.776572 16.776572 0 0 1 33.553143 0v59.309375a16.776572 16.776572 0 0 1-16.776572 16.776572zM148.120352 527.707065a16.776572 16.776572 0 1 1 0-33.553143l59.300987-0.008389a16.776572 16.776572 0 0 1 0 33.553144l-59.300987 0.008388zM513.082089 892.660414a16.776572 16.776572 0 0 1-16.776572-16.772378l-0.016776-59.296793a16.776572 16.776572 0 0 1 16.772377-16.780766h0.004194a16.776572 16.776572 0 0 1 16.776572 16.772378l0.016777 59.296793a16.776572 16.776572 0 0 1-16.776572 16.780766c0.004194 0 0 0 0 0zM818.742838 527.690289a16.776572 16.776572 0 1 1-0.008388-33.553144l59.280017-0.008388a16.776572 16.776572 0 0 1 0.008388 33.553143l-59.280017 0.008389z" fill="#FF9FB0" p-id="2592"></path><path d="M658.954381 674.598534a16.726242 16.726242 0 0 1-11.861037-4.915536l-146.396559-146.396559a16.776572 16.776572 0 0 1 0.046135-23.768208l142.349212-141.359394a16.776572 16.776572 0 1 1 23.63819 23.810149l-130.404293 129.494164 134.485194 134.493582a16.776572 16.776572 0 0 1 0 23.722072 16.692689 16.692689 0 0 1-11.856842 4.91973z" fill="#6E6E96" p-id="2593"></path><path d="M309.150276 637.371321a16.776572 16.776572 0 0 1-7.9479-31.560926l203.424321-109.165152a16.776572 16.776572 0 0 1 15.866442 29.564513L317.068818 635.370715a16.650747 16.650747 0 0 1-7.918542 2.000606z" fill="#FF9FB0" p-id="2594"></path><path d="M512.268425 512.062912m-27.693926 0a27.693926 27.693926 0 1 0 55.387852 0 27.693926 27.693926 0 1 0-55.387852 0Z" fill="#F0F0FF" p-id="2595"></path><path d="M512.268425 556.53341c-24.523154 0-44.474692-19.947344-44.474692-44.470498s19.951538-44.474692 44.474692-44.474692 44.470498 19.951538 44.470498 44.474692-19.947344 44.470498-44.470498 44.470498z m0-55.387852a10.934131 10.934131 0 0 0-10.921548 10.921548 10.934131 10.934131 0 0 0 10.921548 10.917354 10.929937 10.929937 0 0 0 10.917354-10.917354 10.934131 10.934131 0 0 0-10.917354-10.921548z" fill="#6E6E96" p-id="2596"></path><path d="M45.133172 596.004489C13.173803 333.237239 200.287102 94.326275 463.06274 62.362711c262.771444-31.946787 501.690797 155.149736 533.65436 417.92118a480.615228 480.615228 0 0 1 1.41762 102.504854 489.397764 489.397764 0 0 0 1.832841-131.406693C967.408429 183.581831 723.904878-7.117461 456.092075 25.450059 188.270883 58.017579-2.411632 301.512742 30.155888 569.312963c9.097096 74.789957 34.664591 143.561319 72.59642 203.126537a477.834512 477.834512 0 0 1-57.619136-176.435011z" fill="#FFFFFF" opacity=".58" p-id="2597"></path><path d="M512 1024C229.679656 1024 0 794.31615 0 512 0 229.68385 229.679656 0 512 0S1024 229.68385 1024 512c0 282.31615-229.68385 512-512 512z m0-990.446856C248.184215 33.553144 33.553144 248.184215 33.553144 512c0 263.811591 214.631071 478.442662 478.446856 478.442662S990.446856 775.815785 990.446856 512C990.446856 248.184215 775.815785 33.553144 512 33.553144z" fill="#6E6E96" p-id="2598"></path><path d="M512.562015 941.870293c-237.342355 0-430.436502-193.094147-430.436502-430.436502S275.21966 80.997289 512.562015 80.997289 942.998517 274.091436 942.998517 511.433791s-193.094147 430.436502-430.436502 430.436502z m0-827.319861c-218.841991 0-396.883359 178.041368-396.883358 396.883359s178.041368 396.883359 396.883358 396.883358 396.883359-178.041368 396.883359-396.883358c0-218.846185-178.045562-396.883359-396.883359-396.883359z" fill="#6E6E96" p-id="2599"></path><path d="M951.802023 301.076551a477.830317 477.830317 0 0 1 35.89767 182.084522c0 264.717526-214.58913 479.294073-479.298268 479.294073-264.70075 0-479.285685-214.58913-479.285685-479.294073 0-34.983346 3.846029-69.052369 10.96349-101.900897a488.483441 488.483441 0 0 0-17.690895 130.21975c0 269.771468 218.703584 488.470858 488.479246 488.470858 269.788245 0 488.475052-218.69939 488.475053-488.470858-0.004194-75.33939-17.095327-146.673373-47.540611-210.403375z" fill="#6E6E96" opacity=".15" p-id="2600"></path><path d="M781.838575 251.162056c-68.628761-69.937334-164.154561-113.359296-269.876322-113.359295-208.843154 0-378.148122 169.304968-378.148122 378.152316 0 72.588032 20.48 140.369576 55.937284 197.934188l592.08716-462.727209z" fill="#FFFFFF" opacity=".28" p-id="2601"></path><path d="M621.601343 107.747532c150.104182 55.710801 257.08838 200.194831 257.088381 369.696924 0 217.722154-176.502118 394.241049-394.232661 394.241049-208.096596 0-378.424935-161.26899-393.096047-365.636994 0.771722 227.792292 185.645349 412.238116 413.617989 412.238116 228.463354 0 413.65993-185.204964 413.65993-413.655736 0-187.956322-125.383903-346.524284-297.037592-396.883359z" fill="#6E6E96" opacity=".1" p-id="2602"></path></svg>