<?xml version="1.0" standalone="no"?><!DOCTYPE svg PUBLIC "-//W3C//DTD SVG 1.1//EN" "http://www.w3.org/Graphics/SVG/1.1/DTD/svg11.dtd"><svg t="1639963475160" class="icon" viewBox="0 0 1024 1024" version="1.1" xmlns="http://www.w3.org/2000/svg" p-id="2926" xmlns:xlink="http://www.w3.org/1999/xlink" width="1024" height="1024"><defs><style type="text/css"></style></defs><path d="M768.133428 308.041855l-146.862465 211.404687 67.895549-0.082901z" opacity=".14" p-id="2927"></path><path d="M518.034911 26.362374a16.194622 16.194622 0 0 0-10.333553 15.11277l0.621754 479.181746a16.186332 16.186332 0 0 0 16.186332 16.165606h29.744716a16.194622 16.194622 0 0 0 11.444421-4.746056l212.598455-212.594309a16.186332 16.186332 0 0 0 0.518128-22.354133L535.854384 30.552997a16.182187 16.182187 0 0 0-17.819473-4.190623z" fill="#FFA6A6" p-id="2928"></path><path d="M505.599829 26.362374l190.041216 292.120805L751.134671 286.006889z" fill="#FFFFFF" opacity=".24" p-id="2929"></path><path d="M541.814933 544.718774h-29.740571c-18.043304 0-32.741571-14.677542-32.766442-32.724992l-0.621754-479.181745a32.965403 32.965403 0 0 1 20.911663-30.590302 32.712556 32.712556 0 0 1 11.854779-2.221735c9.201961 0 18.035014 3.900471 24.22354 10.702461l242.948345 266.570856a32.716701 32.716701 0 0 1-1.052837 45.251264l-212.59431 212.586019a32.480435 32.480435 0 0 1-23.162413 9.608174z m-29.346794-33.160219h29.172703l212.229547-212.221257L511.85053 33.781973l0.617609 477.776582z" fill="#6E6E96" p-id="2930"></path><path d="M756.183314 295.8762l-242.339026 212.594309a16.190477 16.190477 0 0 0 10.673446 28.356133h164.715098a16.194622 16.194622 0 0 0 15.212251-10.631996l77.623927-212.590164a16.186332 16.186332 0 0 0-6.06003-18.90547 16.182187 16.182187 0 0 0-19.825666 1.177188z" fill="#E08080" p-id="2931"></path><path d="M301.038583 266.347025L34.451146 509.316095a16.173897 16.173897 0 0 0-4.190622 17.819472 16.173897 16.173897 0 0 0 15.108625 10.329409l479.181745-0.617609a16.178042 16.178042 0 0 0 16.157317-16.182187v-29.748862a16.194622 16.194622 0 0 0-4.746056-11.448565L323.376135 266.869298a16.165607 16.165607 0 0 0-22.337552-0.522273z" fill="#56C1E8" p-id="2932"></path><path d="M676.801895 544.718774h-164.719243a32.919807 32.919807 0 0 1-30.664913-21.230831 32.923953 32.923953 0 0 1 9.065175-36.169509l242.334881-212.594309a32.749861 32.749861 0 0 1 21.608028-8.132544c6.636189 0 13.040256 1.981323 18.519982 5.732573a32.745716 32.745716 0 0 1 12.269281 38.266893l-77.623928 212.598454a32.894937 32.894937 0 0 1-30.789263 21.529273z m-163.674696-33.160219h163.405269l77.002174-210.903139-240.407443 210.903139z" fill="#6E6E96" p-id="2933"></path><path d="M32.892616 545.352963a32.948823 32.948823 0 0 1-30.528127-20.915808c-4.862117-12.522128-1.45076-27.025579 8.489017-36.074174l266.579146-242.956635a32.683541 32.683541 0 0 1 22.068125-8.551191c8.754298 0 16.982177 3.411358 23.170704 9.599883l212.581874 212.598455a32.55919 32.55919 0 0 1 9.599883 23.170703v29.748861c0 18.043304-14.677542 32.741571-32.716701 32.766442L32.892616 545.352963z m0.004145-33.160219v16.580109l0.01658-16.580109h-0.01658zM299.492487 270.172885L33.941308 512.192744l477.755856-0.613464v-29.355084L299.492487 270.172885z" fill="#6E6E96" p-id="2934"></path><path d="M1003.483938 503.969009l-479.181745 0.6259a16.182187 16.182187 0 0 0-16.161462 16.182186v29.753007a16.207057 16.207057 0 0 0 4.737766 11.444421l212.6026 212.594309a16.194622 16.194622 0 0 0 22.349987 0.518129l266.579146-242.964926a16.186332 16.186332 0 0 0-10.926292-28.153026z" fill="#FFE76E" p-id="2935"></path><path d="M298.584726 269.165643a16.173897 16.173897 0 0 0 1.185478 19.817376l212.590165 242.343171a16.186332 16.186332 0 0 0 28.347842-10.67759v-164.723389a16.165607 16.165607 0 0 0-10.631995-15.199815L317.486051 263.109758a16.169752 16.169752 0 0 0-18.901325 6.055885z" fill="#5FD4FF" p-id="2936"></path><path d="M34.451146 509.316095l288.626547-188.271289 205.207871 26.196573-229.700838-78.075736z" fill="#FFFFFF" opacity=".24" p-id="2937"></path><path d="M582.22895 570.811721l419.737908-63.004416-472.24297-3.320167z" fill="#FFFFFF" opacity=".59" p-id="2938"></path><path d="M724.490435 787.194586c-0.004145 0-0.004145 0 0 0a32.53432 32.53432 0 0 1-23.174848-9.599884l-212.6026-212.590164a32.538465 32.538465 0 0 1-9.591593-23.162413v-29.753007c0-18.039159 14.681687-32.737426 32.724991-32.762296l479.181746-0.625899c13.450614 0 25.728185 8.401971 30.586157 20.903373a32.571625 32.571625 0 0 1-8.468291 36.074173l-266.587436 242.964925a32.679396 32.679396 0 0 1-22.068126 8.551192z m-212.208822-274.707545v29.355084l212.217112 212.043021 265.547034-242.024004-477.764146 0.625899z" fill="#6E6E96" p-id="2939"></path><path d="M518.61936 505.631165a16.190477 16.190477 0 0 0-10.478629 15.154221v164.715098a16.194622 16.194622 0 0 0 10.631995 15.21225l212.59431 77.615638a16.178042 16.178042 0 1 0 17.724137-25.869116l-212.598455-242.347316a16.194622 16.194622 0 0 0-17.873358-4.480775z" fill="#F0C33C" p-id="2940"></path><path d="M512.090942 544.727064c-0.004145 0-0.004145 0 0 0a32.745716 32.745716 0 0 1-24.633898-11.166704L274.871025 291.229624a32.774732 32.774732 0 1 1 35.875212-52.380711l212.577729 77.611493a32.853487 32.853487 0 0 1 21.525127 30.772683v164.723388a32.940533 32.940533 0 0 1-21.210105 30.656623 32.463854 32.463854 0 0 1-11.548046 2.113964zM300.823041 270.529357l210.874123 240.378428V347.514951L300.823041 270.529357z" fill="#6E6E96" p-id="2941"></path><path d="M724.478 787.207021a32.704266 32.704266 0 0 1-11.220589-1.981323l-212.606745-77.623928a32.899082 32.899082 0 0 1-21.525127-30.789264v-164.719243a32.923953 32.923953 0 0 1 21.218395-30.664912 32.774732 32.774732 0 0 1 36.181944 9.056884l212.598455 242.351461a32.724991 32.724991 0 0 1 2.404116 40.107285 32.762296 32.762296 0 0 1-27.050449 14.26304z m-212.196387-110.655651l210.890703 76.993883-210.890703-240.403298v163.409415z" fill="#6E6E96" p-id="2942"></path><path d="M494.802033 504.553458a16.190477 16.190477 0 0 0-11.448566 4.737767l-212.594309 212.598454a16.194622 16.194622 0 0 0-0.518129 22.349988l242.964925 266.579146a16.194622 16.194622 0 0 0 17.823618 4.194768 16.207057 16.207057 0 0 0 10.329408-15.11277l-0.621754-479.181746a16.186332 16.186332 0 0 0-16.186332-16.165607h-29.748861z" fill="#8ED4AE" p-id="2943"></path><path d="M344.619401 515.185454l-23.929244 186.327271 197.904333 304.804588-257.961634-268.315912z" fill="#FFFFFF" opacity=".24" p-id="2944"></path><path d="M512.750001 1024c-0.004145 0-0.004145 0 0 0-9.201961 0-18.035014-3.896326-24.23183-10.698316l-242.964925-266.579146a32.729136 32.729136 0 0 1 1.044547-45.234684l212.598454-212.606744a32.579915 32.579915 0 0 1 23.170704-9.591594h29.748861c18.047449 0 32.745716 14.681687 32.762297 32.729137l0.625899 479.1776a32.60064 32.60064 0 0 1-20.895083 30.586157 32.878357 32.878357 0 0 1-11.858924 2.21759z m-242.434361-299.337298l242.032294 265.555325-0.6259-477.776582h-29.355083l-212.051311 212.221257z" fill="#6E6E96" p-id="2945"></path><path d="M359.819216 504.553458a16.173897 16.173897 0 0 0-15.199815 10.631996L267.003763 727.779763a16.186332 16.186332 0 0 0 25.877406 17.728282l242.339026-212.594309a16.165607 16.165607 0 0 0 4.468339-17.873358 16.173897 16.173897 0 0 0-15.141785-10.482775H359.819216z" fill="#ABFFD2" p-id="2946"></path><path d="M269.776786 757.416709a32.679396 32.679396 0 0 1-18.511692-5.732573 32.737426 32.737426 0 0 1-12.273426-38.275183l77.619782-212.594309a32.853487 32.853487 0 0 1 30.772684-21.525128h164.723388a32.907372 32.907372 0 0 1 30.664913 21.234976c4.779217 12.671349 1.144028 27.212105-9.05274 36.165364L291.376524 749.284165a32.749861 32.749861 0 0 1-21.599738 8.132544z m77.885065-244.971119l-76.993884 210.890704 240.403298-210.890704H347.661851z" fill="#6E6E96" p-id="2947"></path><path d="M737.837423 763.58451l-209.448233-182.339755-1.131593-74.8965zM328.793686 713.997547l148.425141-90.684909 41.375663 383.004675-0.364763-458.502204zM34.451146 513.461122l337.069482-63.547415-64.886258-113.996543 191.102342 172.781322zM540.720646 484.897738l158.257146-103.376983-0.949212 114.145765 71.601203-208.606794z" fill="#6E6E96" opacity=".15" p-id="2948"></path></svg>