<?xml version="1.0" standalone="no"?><!DOCTYPE svg PUBLIC "-//W3C//DTD SVG 1.1//EN" "http://www.w3.org/Graphics/SVG/1.1/DTD/svg11.dtd"><svg t="1629363257100" class="icon" viewBox="0 0 1024 1024" version="1.1" xmlns="http://www.w3.org/2000/svg" p-id="2168" xmlns:xlink="http://www.w3.org/1999/xlink" width="200" height="200"><defs><style type="text/css"></style></defs><path d="M411.204267 354.816h-0.136534a17.954133 17.954133 0 0 1-17.954133-17.954133v-21.333334c0-9.898667 8.021333-17.954133 17.954133-17.954133h0.136534c9.898667 0 17.954133 8.021333 17.954133 17.954133v21.333334a17.954133 17.954133 0 0 1-17.954133 17.954133zM591.325867 354.816h-0.136534a17.954133 17.954133 0 0 1-17.954133-17.954133v-21.333334c0-9.898667 8.021333-17.954133 17.954133-17.954133h0.136534c9.898667 0 17.954133 8.021333 17.954133 17.954133v21.333334c0 9.9328-8.021333 17.954133-17.954133 17.954133zM524.629333 420.6592c-10.752 0-20.6848-4.1984-27.0336-11.195733-6.314667 6.997333-16.2816 11.195733-27.0336 11.195733-18.670933 0-33.860267-12.6976-33.860266-28.296533 0-3.754667 3.072-6.826667 6.826666-6.826667s6.826667 3.072 6.826667 6.826667c0 7.918933 9.250133 14.6432 20.206933 14.6432 7.748267 0 14.9504-3.345067 18.295467-8.533334 1.911467-2.9696 5.188267-4.744533 8.704-4.744533 3.549867 0 6.792533 1.774933 8.704 4.744533 3.345067 5.188267 10.5472 8.533333 18.295467 8.533334 10.9568 0 20.206933-6.690133 20.206933-14.6432 0-3.754667 3.072-6.826667 6.826667-6.826667s6.826667 3.072 6.826666 6.826667c0.068267 15.633067-15.121067 28.296533-33.792 28.296533zM509.610667 357.1712l10.205866-10.103467c2.218667-2.184533 3.515733-4.9152 3.9936-7.748266-7.953067-1.536-16.0768-2.3552-24.3712-2.3552-8.2944 0-16.418133 0.8192-24.3712 2.3552 0.477867 2.833067 1.774933 5.563733 3.9936 7.748266l10.205867 10.103467c5.563733 5.597867 14.711467 5.597867 20.343467 0z" p-id="2169"></path><path d="M600.644267 915.626667c2.3552 0 4.642133-1.2288 5.905066-3.3792l7.133867-12.253867a166.372693 166.372693 0 0 1-24.951467 9.864533l8.533334 4.881067c1.058133 0.580267 2.218667 0.887467 3.3792 0.887467z" p-id="2170"></path><path d="M807.765333 541.696c-2.935467-10.990933-10.0352-20.1728-19.933866-25.873067-20.445867-11.707733-46.660267-4.676267-58.504534 15.6672l-46.523733 79.906134-30.958933-110.592a181.316267 181.316267 0 0 1-12.151467 7.2704l33.518933 119.773866 5.12 18.3296 13.550934 48.469334c0.068267 0.238933 0.136533 0.512 0.238933 0.750933a160.324267 160.324267 0 0 1 8.4992 28.091733c0.477867 2.286933 0.9216 4.573867 1.297067 6.8608l0.955733 7.236267c0.3072 2.696533 0.512 5.3248 0.682667 7.953067 0.238933 3.447467 0.375467 6.826667 0.375466 10.171733 0 63.146667-36.829867 117.896533-90.282666 144.2816l-7.133867 12.253867c-1.262933 2.184533-3.549867 3.3792-5.905067 3.3792-1.160533 0-2.321067-0.3072-3.3792-0.887467l-8.533333-4.881067a163.310933 163.310933 0 0 1-47.035733 6.929067h-84.548267c-89.463467 0-162.269867-72.260267-162.269867-161.041067 0-5.8368 0.341333-11.946667 1.024-17.988266l0.989867-7.304534c1.877333-11.912533 5.188267-23.722667 9.796267-35.0208 0.1024-0.238933 0.170667-0.477867 0.238933-0.750933l52.189867-186.538667a181.316267 181.316267 0 0 1-12.151467-7.2704l-53.111467 189.781334A172.806827 172.806827 0 0 0 283.306667 728.4736l-1.024 7.611733c-0.750933 6.690133-1.1264 13.312-1.1264 19.6608 0 96.324267 78.916267 174.6944 175.9232 174.6944h84.548266c97.006933 0 175.9232-78.370133 175.9232-174.6944 0-6.3488-0.375467-12.970667-1.160533-19.797333l-0.989867-7.4752c0-0.068267 0-0.1024-0.034133-0.170667-0.136533-0.785067-0.3072-1.536-0.443733-2.321066l88.439466-151.893334c5.802667-9.898667 7.338667-21.4016 4.4032-32.392533z m-16.145066 25.463467L710.4512 706.56c-1.604267-5.393067-3.413333-10.752-5.5296-15.9744l-17.032533-60.859733 53.179733-91.374934c8.0896-13.892267 26.0096-18.670933 39.936-10.683733a28.788053 28.788053 0 0 1 13.550933 17.544533c2.013867 7.4752 0.955733 15.2576-2.935466 21.947734z" p-id="2171"></path><path d="M732.194133 283.101867l-3.857066-164.898134a21.005653 21.005653 0 0 0-10.5472-17.783466 21.13536 21.13536 0 0 0-20.855467-0.273067l-97.450667 52.906667c-16.520533-4.642133-33.928533-7.168-51.9168-7.168H451.242667c-17.988267 0-35.396267 2.525867-51.9168 7.168l-97.450667-52.906667a21.220693 21.220693 0 0 0-20.855467 0.273067 21.005653 21.005653 0 0 0-10.5472 17.783466l-3.857066 164.898134a191.945387 191.945387 0 0 0-8.226134 55.637333c0 67.925333 35.328 127.726933 88.576 162.0992 3.959467 2.56 7.9872 5.0176 12.151467 7.2704a191.665493 191.665493 0 0 0 92.125867 23.4496h96.3584c33.348267 0 64.7168-8.4992 92.125866-23.4496 4.164267-2.2528 8.192-4.7104 12.151467-7.2704 53.248-34.372267 88.576-94.173867 88.576-162.0992a193.1264 193.1264 0 0 0-8.260267-55.637333z m-28.740266-170.939734c3.413333-1.8432 6.382933-0.546133 7.509333 0.1024 1.092267 0.648533 3.652267 2.525867 3.754667 6.280534l3.037866 129.570133c-21.640533-40.482133-57.309867-72.362667-100.488533-89.122133l86.186667-46.830934zM284.125867 118.545067c0.1024-3.754667 2.6624-5.632 3.754666-6.280534 0.682667-0.4096 2.082133-1.058133 3.857067-1.058133 1.092267 0 2.321067 0.238933 3.618133 0.955733l86.2208 46.7968a193.8432 193.8432 0 0 0-100.488533 89.122134l3.037867-129.536z m363.861333 368.503466c-3.925333 2.6624-7.953067 5.12-12.0832 7.4752a177.99168 177.99168 0 0 1-88.337067 23.381334H451.242667c-32.119467 0-62.225067-8.533333-88.337067-23.381334a182.442667 182.442667 0 0 1-12.0832-7.4752c-47.5136-32.256-78.779733-86.698667-78.779733-148.343466 0-15.940267 2.116267-31.402667 6.0416-46.148267 1.774933-6.621867 3.925333-13.1072 6.417066-19.421867 19.7632-50.0736 61.44-89.224533 113.186134-105.437866 6.382933-2.013867 12.936533-3.618133 19.592533-4.9152 10.990933-2.116267 22.357333-3.2768 33.962667-3.2768h96.3584c11.605333 0 22.9376 1.160533 33.962666 3.2768 6.656 1.297067 13.2096 2.901333 19.592534 4.9152 51.746133 16.247467 93.422933 55.364267 113.186133 105.437866 2.491733 6.314667 4.642133 12.8 6.417067 19.421867a178.756267 178.756267 0 0 1 6.0416 46.148267c-0.034133 61.6448-31.300267 116.087467-78.813867 148.343466z" p-id="2172"></path><path d="M784.042667 390.280533h-108.100267c-3.754667 0-6.826667-3.072-6.826667-6.826666s3.072-6.826667 6.826667-6.826667h108.100267c3.754667 0 6.826667 3.072 6.826666 6.826667s-3.072 6.826667-6.826666 6.826666zM675.976533 359.867733c-2.3552 0-4.676267-1.2288-5.9392-3.447466-1.877333-3.2768-0.750933-7.441067 2.525867-9.3184l93.5936-53.6576c3.2768-1.877333 7.441067-0.750933 9.3184 2.525866 1.877333 3.2768 0.750933 7.441067-2.525867 9.3184l-93.5936 53.6576c-1.058133 0.6144-2.218667 0.9216-3.3792 0.9216zM769.570133 474.3168c-1.160533 0-2.321067-0.3072-3.3792-0.9216l-93.5936-53.6576a6.81984 6.81984 0 0 1-2.525866-9.3184c1.877333-3.2768 6.0416-4.4032 9.3184-2.525867l93.5936 53.6576c3.2768 1.877333 4.4032 6.0416 2.525866 9.3184a6.792533 6.792533 0 0 1-5.9392 3.447467z" p-id="2173"></path><path d="M322.8672 390.280533H214.801067c-3.754667 0-6.826667-3.072-6.826667-6.826666s3.072-6.826667 6.826667-6.826667H322.901333c3.754667 0 6.826667 3.072 6.826667 6.826667s-3.072 6.826667-6.8608 6.826666zM229.239467 474.3168c-2.3552 0-4.676267-1.2288-5.9392-3.447467-1.877333-3.2768-0.750933-7.441067 2.525866-9.3184l93.5936-53.6576c3.2768-1.877333 7.441067-0.750933 9.3184 2.525867 1.877333 3.2768 0.750933 7.441067-2.525866 9.3184L232.618667 473.429333c-1.058133 0.6144-2.218667 0.887467-3.3792 0.887467zM322.833067 359.867733c-1.160533 0-2.321067-0.3072-3.3792-0.9216L225.826133 305.288533a6.81984 6.81984 0 0 1-2.525866-9.3184c1.877333-3.2768 6.0416-4.4032 9.3184-2.525866l93.5936 53.6576c3.2768 1.877333 4.4032 6.0416 2.525866 9.3184-1.2288 2.218667-3.549867 3.447467-5.905066 3.447466z" p-id="2174"></path><path d="M571.0848 930.4064h-42.837333c-2.218667 0-4.437333-0.2048-6.587734-0.6144-9.693867-1.809067-16.725333-10.513067-16.725333-20.6848v-169.847467c0-1.9456-0.785067-3.754667-2.2528-5.051733-1.4336-1.297067-3.310933-1.9456-5.290667-1.7408-3.447467 0.341333-6.144 3.584-6.144 7.3728v169.437867c0 11.605333-9.181867 21.060267-20.48 21.128533h-43.042133c-17.134933 0-31.880533-12.151467-35.054933-28.910933l-5.632-29.7984c-44.305067-174.353067-34.167467-226.4064-33.723734-228.5568a6.81984 6.81984 0 0 1 13.346134 2.798933c-0.136533 0.7168-9.5232 52.872533 33.621333 222.583467l0.1024 0.4096 5.666133 30.0032c1.9456 10.308267 11.025067 17.783467 21.6064 17.783466h42.837334c3.857067-0.034133 7.031467-3.447467 7.031466-7.4752v-169.437866c0-10.786133 8.123733-19.968 18.500267-20.957867 5.768533-0.546133 11.502933 1.365333 15.7696 5.2224a20.50048 20.50048 0 0 1 6.690133 15.1552v169.847467c0 3.549867 2.389333 6.656 5.597867 7.2704 1.3312 0.238933 2.696533 0.375467 4.061867 0.375466h42.837333c10.581333 0 19.6608-7.4752 21.6064-17.783466l5.666133-30.0032 0.1024-0.4096c43.2128-170.052267 33.723733-222.1056 33.621334-222.583467-0.7168-3.6864 1.6384-7.2704 5.3248-8.055467a6.826667 6.826667 0 0 1 8.055466 5.256534c0.443733 2.116267 10.581333 54.203733-33.723733 228.5568l-5.632 29.7984c-3.037867 16.759467-17.783467 28.910933-34.9184 28.910933z" p-id="2175"></path></svg>