<?xml version="1.0" standalone="no"?><!DOCTYPE svg PUBLIC "-//W3C//DTD SVG 1.1//EN" "http://www.w3.org/Graphics/SVG/1.1/DTD/svg11.dtd"><svg t="1663034264212" class="icon" viewBox="0 0 1024 1024" version="1.1" xmlns="http://www.w3.org/2000/svg" p-id="1203" xmlns:xlink="http://www.w3.org/1999/xlink" width="1024" height="1024"><path d="M879.1 652.2c-0.9 0.5-1.1 2.2-2 2.7s-9.1-12.5-10-12 1.4 6.6 0.5 7.1-2.2-0.1-3.1 0.4c-0.9 0.4 2.3 9.4 1.4 9.8-0.9 0.4-1.7 1.3-2.6 1.7-0.9 0.4-4.1-4.2-5-3.8s0.2 6.1-0.7 6.4c-0.9 0.4-2.1-3.9-2.7-3.2-0.6 0.7 4.3 1.5 4.1 2.3-0.2 0.9-4.6-0.8-4.4 0.1 0.2 0.9 1.4-1 2-0.3s-5.6 11.8-4.7 12.2c0.1 0 6.9-9.1 6.9-9 0.2 0.8-11.5 5.8-11.3 6.6s2.5 0.8 2.7 1.5l1.3-0.3c0.3 0.9-1.6 2.3-1.3 3.2 0.2 0.9 0.9 1.6 1.1 2.5 0.2 0.9 11-0.4 11.2 0.5s1.6 1.8 1.8 2.7-10.9 3.8-10.8 4.7c0.1 1 5.3 1.1 5.4 2.1 0.1 1 0.3 1.9 0.4 2.8 0.1 1 5.3 1.5 5.4 2.4 0.1 1-4.9 2.3-4.9 3.3 0.1 1-3.3 2-3.2 3 0 1 5.9 1.8 5.9 2.7 0 1-0.1 2-0.2 2.9 0 1 0.3 2 0.2 2.9 0 1-3.1 1.8-3.2 2.7-0.1 1-6.5 1.3-6.6 2.2-0.1 1 7.4 2.6 7.3 3.6-0.1 1-0.7 1.8-0.9 2.8-0.1 1 6.6 3.1 6.4 4-0.2 0.9-4.8 1.2-5 2.1-0.2 0.9 0.8 2.2 0.6 3.1-0.2 0.9-1.2 1.8-1.4 2.7s-10.4-0.8-10.7 0.1c-0.3 0.9 12 5.5 11.8 6.4-0.3 0.9-12.9-2.1-13.2-1.2-0.3 0.9 12.1 6.2 11.7 7.1-0.3 0.9-5.8 0-6.1 0.9s-4.8 0.1-5.2 1 0.8 2.4 0.5 3.2c-0.4 0.9-2.8 0.7-3.2 1.6-0.4 0.9 8.4 6.2 7.9 7.1-0.4 0.9-4.1 0.1-4.6 1-0.5 0.8-6.6-1.5-7.1-0.6-0.5 0.8 0.5 2.4 0 3.2s4.9 5.3 4.4 6.1 0 2.4-0.6 3.2c-0.5 0.8-4.3-0.5-4.9 0.3-0.5 0.8-6.1-2-6.7-1.2-0.6 0.8-1.6 1.1-2.1 1.8-0.6 0.8-1.4 1.2-2 2-0.6 0.7 5.5 6.9 4.9 7.7-0.6 0.7 2.7 5 2.1 5.7-0.6 0.7-2.7 0.4-3.3 1.1-0.6 0.7 0 2.8-0.7 3.5s-9-6-9.7-5.3 6.1 9 5.4 9.7c-0.7 0.7-4.4-1.7-5.1-1-0.7 0.7-2.1 0.7-2.8 1.3s1.6 4.9 0.9 5.6c-0.7 0.6-11.4-10.6-12.2-10-0.7 0.6 4.2 8.2 3.5 8.8-0.8 0.6 1.2 4.7 0.4 5.3s-1.9 0.8-2.7 1.4c-0.8 0.6-9.1-9.5-9.9-8.9-0.8 0.6 6.7 13 5.9 13.6-0.8 0.5-3.2-1.1-4-0.6s-3.7-2.2-4.5-1.7-0.9 2.2-1.8 2.7c-0.8 0.5 1 5.5 0.1 6-0.8 0.5-3.4-1.9-4.2-1.4s-2 0.5-2.8 0.9c-0.8 0.5-6.3-7.8-7.2-7.4-0.8 0.4 0.4 4.8-0.5 5.3-0.9 0.4-2.1-0.1-3 0.3-0.9 0.4 3.1 11.1 2.3 11.5-0.9 0.4-4.9-5.8-5.7-5.4-0.9 0.4 0.7 6.3-0.2 6.7s-6.6-10.5-7.5-10.1 1.2 7.8 0.3 8.2-0.8 3.3-1.7 3.7-5.8-9.9-6.8-9.5c-0.9 0.3 2.7 12.8 1.8 13.1s-6.1-11.4-7-11.1c-0.9 0.3-0.1 5.6-1 5.9-0.9 0.3-4.1-6.4-5-6.1-0.9 0.3 0.1 6.5-0.8 6.7-0.9 0.3-3.3-4.5-4.2-4.2s2.1 14 1.1 14.3c-0.9 0.3-5.5-12.6-6.4-12.3s0.8 10.5-0.1 10.8c-0.9 0.2-1.2 3.4-2.1 3.7-0.9 0.2-5-12.6-5.9-12.4-0.9 0.2-1.6 1.3-2.5 1.5s-1.6 1.6-2.5 1.8-0.2 9-1.1 9.2c-0.9 0.2-2.5-2.6-3.4-2.5-0.9 0.2-2.4-2.7-3.4-2.5-0.9 0.2-2.4-3-3.3-2.9-1 0.1-1.8 0.5-2.8 0.6s-1.6 2.2-2.5 2.3c-1 0.1-2.4-4-3.3-3.9-1 0.1-0.2 15.2-1.2 15.3s-2.5-4.6-3.4-4.6c-1 0.1-1.9 0.5-2.9 0.6s-2.5-8.6-3.5-8.5-1.6 4.2-2.6 4.2-2-1.3-2.9-1.3c-1 0-1.7 8.2-2.6 8.2-1 0-2-1.8-3-1.8s-2-3.1-2.9-3.1c-1 0-2.1 8.7-3.1 8.7s-1.6-13.2-2.5-13.3c-1 0-1.9 0.2-2.8 0.1-1 0-2.3 7.2-3.3 7.1-1-0.1-1.2-9.3-2.2-9.4-1-0.1-1.9 0.9-2.9 0.8-1-0.1-3.3 11.9-4.2 11.8-1-0.1-1-7.6-2-7.8-1-0.1-1.8-1.1-2.7-1.2-1-0.1-0.9-6.1-1.8-6.2-1-0.2-2.2 2-3.2 1.8-0.9-0.2-2.4 2.5-3.4 2.3-0.9-0.2-2.3 1.3-3.2 1.1s-1.4-2.4-2.3-2.7c-0.9-0.2-0.4-5.3-1.4-5.5-0.9-0.3-5.1 10.3-6 10s2-12.1 1.1-12.4c-0.9-0.3-4.5 7.2-5.4 6.9s0-6.6-0.9-6.8-4.5 11.4-5.4 11.2-1.3-0.1-2.2-0.2c-0.9-0.1-1.2-6.3-2.1-6.3-0.9 0-2.2-6.9-3.1-6.8-0.9 0.1-1.5 6-2.4 6.1s-3.5-6.8-4.4-6.6-1.7 3-2.6 3.2c-0.9 0.3-2.8-0.8-3.7-0.5-0.8 0.4-0.6 4.2-1.4 4.7-0.8 0.4 3.6 9.7 2.8 10.2s-4-2.6-4.9-2.1c-0.8 0.5-6.4-7.6-7.2-7.1s-1.2 1.4-2.1 1.8c-0.9 0.4 4.3 13.3 3.5 13.7-0.9 0.4-8-13-8.9-12.6s4.3 15.1 3.4 15.5c-0.9 0.4-1.9 1-2.8 1.4-0.9 0.3-5.7-9.7-6.6-9.4-0.9 0.3-2.9-2.9-3.8-2.6-0.9 0.3 0.9 8.9-0.1 9.2-0.9 0.3-1.3 2.7-2.2 2.9-0.9 0.3-3.8-6.7-4.7-6.4-0.9 0.2-1.2 2.9-2.2 3.2-0.9 0.2-2.7-3.4-3.6-3.2-0.9 0.2-1.3 2.9-2.2 3.1-0.9 0.2-0.7 7.1-1.6 7.3-0.9 0.2-3.3-8-4.3-7.9s-0.4 10.3-1.4 10.5c-1 0.1-3.4-11.5-4.4-11.4s-1.1 6.8-2.1 6.9c-1 0.1-2.1-2-3.1-2-1 0.1-2-1.3-3-1.2s-1.5 8.3-2.4 8.4c-1 0-2.5-13.9-3.5-13.8-1 0-1.7 6-2.7 6s-1.9-4-2.9-4-2 9.3-2.9 9.2c-1 0-2.1 2.7-3 2.7-1 0-1.3-14.2-2.3-14.2s-2.3 7.7-3.3 7.6c-1-0.1-2.3 4.7-3.3 4.7-1-0.1-2.3 3-3.3 2.9s-0.6-12.3-1.6-12.4c-1-0.1-3.6 12.6-4.6 12.5s0.1-13.8-0.9-13.9c-1-0.2-3.3 8.4-4.3 8.2s-1.7-1.6-2.7-1.8-3.1 4.9-4 4.7 0.3-10.3-0.6-10.5-4.3 9-5.2 8.8c-0.9-0.2 0-7.6-1-7.9-0.9-0.3 0.2-7.2-0.8-7.5-0.9-0.3-3.1 3.7-4 3.4s-3.8 5.2-4.7 4.9c-0.9-0.3-2.4 0.6-3.3 0.3s-0.7-3.8-1.5-4.2c-0.9-0.4-1-2.6-1.9-3s0-4.5-0.9-4.9-5 5.9-5.9 5.5-2.7 0.8-3.6 0.3 4.3-11.5 3.5-12-2.6 1-3.4 0.5-7 7.2-7.8 6.6c-0.8-0.5 1.8-6.2 1-6.7s-1.3-1.8-2.2-2.3c-0.8-0.4-4.4 5.5-5.3 5.2-0.9-0.4 0-5.2-0.9-5.5s0-8.2-0.9-8.4-4.2 10.3-5.2 10.1c-0.9-0.2-0.7-10.1-1.7-10.2-0.9-0.1-2.6 7.3-3.5 7.3s-1.5 8.3-2.4 8.3-1.8-4.5-2.8-4.4c-0.9 0.1-2.9-6.5-3.8-6.3s-2.6-1.6-3.5-1.3c-0.9 0.2-2.4-0.1-3.3 0.2s1.4 9 0.6 9.4c-0.9 0.4-0.4 4.3-1.3 4.7s-4.3-5.5-5.2-5.2c-0.9 0.3-2.1-0.2-3 0.1s0.2 6.9-0.7 7.2c-0.9 0.3-1.7 1.5-2.6 1.8s-4.7-9.5-5.6-9.3-1.9 0.1-2.8 0.4c-0.9 0.2-1.5 1.8-2.4 2s-0.3 8.2-1.2 8.4c-0.9 0.2-1.5 3.2-2.4 3.3-0.9 0.2-4-12.3-5-12.2-0.9 0.1-0.4 10.6-1.3 10.8-0.9 0.1-3.4-11.7-4.4-11.6-1 0.1-0.4 14.4-1.3 14.5-1 0.1-3.3-14.8-4.3-14.7s-1 11.8-2 11.9c-1 0.1-2.6-12.2-3.6-12.1-1 0-1.8-0.5-2.8-0.5s-1.7 3.7-2.7 3.7-1.9-3.3-2.8-3.3c-1 0-1.9 13.6-2.9 13.6s-1.7-14-2.6-14.1c-1 0-2.2 10.7-3.2 10.7s-1.7-5.7-2.6-5.7c-1 0-1.6-4.4-2.6-4.5s-1.8-0.1-2.8-0.2c-1-0.1-3 12.2-3.9 12.1-1-0.1-1.5-4.8-2.5-4.9-1-0.1-2.2 2.1-3.1 2-1-0.1-2.2 1.5-3.1 1.4-1-0.1-1-7.3-1.9-7.4-1-0.1-1.7-1.2-2.7-1.3s-1.5-2.4-2.4-2.6c-0.9-0.2-2 0.7-3 0.5-0.9-0.2-1.4-2.4-2.4-2.6-0.9-0.2-3.7 8.8-4.6 8.6s-2.7 3.3-3.7 3.1c-0.9-0.2-2.3 1.3-3.3 1-0.9-0.2-2-0.4-2.9-0.6-0.9-0.2-0.2-7.4-1.1-7.6-0.9-0.2-3.8 6.7-4.7 6.4-0.9-0.3-1.8-1-2.8-1.2-0.9-0.3 0.3-8-0.7-8.3-0.9-0.3-3.9 6-4.8 5.8-0.9-0.3 0.8-9.2-0.1-9.5s-0.4-4.8-1.3-5.1-6.7 13.5-7.6 13.2 1.7-10.7 0.8-11c-0.9-0.3-1.9-0.3-2.8-0.6s-4.2 5.5-5.1 5.1 2.3-11.1 1.5-11.4c-0.9-0.4-6 9.5-6.9 9.1s-1.2-2.3-2.1-2.6c-0.9-0.4-2.1-0.1-3-0.5s-2-0.4-2.9-0.8c-0.9-0.4 1.1-6.9 0.3-7.3-0.9-0.4-0.5-3.2-1.4-3.6-0.9-0.4-1-2.1-1.8-2.6-0.9-0.4-3.7 2.9-4.5 2.5-0.8-0.5-4.4 4-5.2 3.5s3.4-9.8 2.6-10.3c-0.8-0.5-5.7 6-6.6 5.5-0.8-0.5 2.5-7.7 1.7-8.2s-5.5 5.1-6.3 4.5c-0.8-0.5 0.3-3.9-0.5-4.4s-1.4-1.3-2.2-1.8c-0.8-0.6-7 6.4-7.8 5.9-0.8-0.6 4.8-9.6 4-10.2-0.8-0.6 0.8-3.9 0-4.5-0.7-0.6-5.7 4.2-6.4 3.6-0.7-0.6-6.1 4.2-6.8 3.6-0.7-0.6 2.5-5.8 1.8-6.5-0.7-0.6-3.5 1-4.2 0.3-0.7-0.6-1.1-1.7-1.7-2.4-0.7-0.7 5.3-8 4.6-8.7s-4.4 1.7-5 1c-0.7-0.7-2.9 0.2-3.6-0.5-0.6-0.7-3.1 0.2-3.7-0.5-0.6-0.7 0.6-3 0-3.7s-5.2 1.8-5.8 1c-0.6-0.7 1.2-3.5 0.6-4.2-0.6-0.8-0.8-1.8-1.4-2.6-0.6-0.8-4.4 0.7-4.9-0.1s0.8-3 0.3-3.8 3.1-4.3 2.6-5.1-7.3 2.2-7.8 1.4 11-8.6 10.5-9.4c-0.5-0.8-4.5 0.5-4.9-0.4-0.5-0.8 1.8-2.9 1.4-3.8-0.4-0.8-1.9-1-2.3-1.9-0.4-0.9-9.7 2.4-10.1 1.6-0.4-0.9 8.8-5.9 8.4-6.7-0.4-0.9-8.4 1.4-8.8 0.6-0.3-0.9-6.3 0.2-6.6-0.7s14.3-7.1 14-8-11.9 1.9-12.2 1 4.5-3.3 4.2-4.3l-0.9-2.7c-0.2-0.9 4-2.9 3.8-3.8-0.2-0.9-6-0.5-6.2-1.5-0.2-0.9 1.3-2.2 1.1-3.1-0.2-0.9 2-2.2 1.9-3.1-0.1-0.9-5.6-1.1-5.7-2-0.1-0.9-0.4-1.9-0.5-2.8-0.1-0.9-0.3-1.9-0.4-2.9-0.1-0.9 9.1-2.4 9-3.4-0.1-0.9-2.5-1.6-2.6-2.6 0-0.9-0.2-1.8-0.2-2.7 0-1-8-1.9-8-2.9s3.2-1.8 3.3-2.8c0-0.9-1.7-1.9-1.7-2.8 0-0.9-1.7-1.7-1.8-2.6-0.1-0.9 7.1-2.6 7-3.5s3.2-2.8 3-3.7-5.8-0.9-6-1.8c-0.2-0.9 2.4-2.9 2.2-3.8-0.3-0.9-8.9 1.1-9.2 0.3-0.3-0.9 9.5-6.2 9.1-7.1-0.4-0.8-15.5 5.8-16 5-0.4-0.8 10.8-8.3 10.3-9.1s-3.6 0-4.2-0.8c-0.5-0.7-4.2 0.9-4.8 0.2s5.7-7 5.1-7.7c-0.6-0.7-11.6 7.1-12.2 6.4-0.6-0.7 2.6-4.4 2.1-5.1-0.6-0.7-1-1.5-1.5-2.2s0.8-2.9 0.3-3.6c-0.6-0.8-6.7 3-7.3 2.3s3.7-5.5 3-6.2c-0.6-0.7 3.6-6.2 2.9-6.9-0.7-0.7-9.6 7-10.3 6.4-0.7-0.7 3.2-6.4 2.5-7s-2-0.7-2.8-1.2c-0.7-0.6-1.5-1.3-2.3-1.8-0.8-0.6-3.4 1.6-4.2 1.1s-4.3 2.8-5.1 2.3 2.6-7.2 1.8-7.7c-0.8-0.6 1.7-5.6 0.9-6.1-0.8-0.6-2.9 0.8-3.6 0.2-0.8-0.6-5.8 4.4-6.6 3.8-0.8-0.6-2.3-0.4-3-1s4.5-8.4 3.7-9c-0.7-0.6-0.4-2.4-1.1-3-0.7-0.6-5.8 3.7-6.5 3.1-0.7-0.6 3.9-7 3.2-7.6-0.7-0.7-10.6 8.4-11.3 7.7-0.7-0.7 4.8-7.6 4.1-8.3-0.7-0.7 2.5-5 1.8-5.7s-13.5 10.2-14.1 9.5c-0.7-0.7 1.6-4.3 1-5s6.2-8 5.6-8.7-3 0.1-3.6-0.6c-0.6-0.7 2.5-4.3 1.9-5.1-0.6-0.7-1.3-1.2-1.9-2s-4.9 1.4-5.5 0.6c-0.6-0.8-2.4-0.6-2.9-1.4-0.6-0.8 0-2.2-0.6-3-0.5-0.8-8.7 3.4-9.3 2.6-0.5-0.8 0.7-2.8 0.2-3.6s-2.7-0.7-3.2-1.6c-0.5-0.8-1.9-1.3-2.4-2.1s12.2-8.7 11.7-9.6c-0.4-0.8-15.1 5.5-15.5 4.7-0.4-0.9 9.3-6.7 8.9-7.5-0.4-0.9-2.1-1.1-2.5-2s-2.6-1-3-1.8c-0.4-0.9 0.7-2.3 0.4-3.2-0.3-0.9 0.5-2.2 0.2-3.1-0.3-0.9 0.5-2.1 0.2-3s-12 1.6-12.3 0.7c-0.3-0.9 10.5-5 10.2-5.9-0.2-0.9-0.9-1.7-1.2-2.6-0.2-0.9 1.2-2.1 1-3.1-0.2-0.9-11.4 0.2-11.5-0.8-0.2-0.9-0.2-2.1-0.3-3.1-0.1-0.9 6.6-2.9 6.5-3.9s-6.9-1.3-7-2.2c-0.1-1 5.4-2.5 5.3-3.4-0.1-1-0.6-1.9-0.6-2.9s7.5-2 7.5-3-2.5-1.8-2.5-2.8-7.2-2.2-7.1-3.1c0-1-3.4-2.3-3.3-3.2 0.1-1 10.8-1 10.9-2s4.7-1.2 4.8-2.2c0.1-1-16.3-4.3-16.2-5.2 0.1-0.9 9.1-0.5 9.3-1.5 0.2-0.9 2.1-1.5 2.3-2.5 0.2-0.9-3.7-2.8-3.5-3.7 0.2-0.9 1.3-1.7 1.5-2.6s8.2 0.3 8.4-0.6c0.3-0.9-2.6-2.7-2.4-3.6 0.3-0.9 3.9-0.6 4.2-1.6 0.3-0.9-13.5-6.6-13.1-7.5 0.3-0.9 10.6 1.8 11 0.9 0.3-0.9-8.6-5.5-8.3-6.3 0.4-0.9 12.5 3 12.9 2.1s-6.5-4.9-6.1-5.8 5.3 0.3 5.7-0.6c0.4-0.9-4.8-4.4-4.4-5.3s8.8 2.3 9.2 1.4c0.4-0.9-5.7-5.1-5.2-5.9s0-2.2 0.5-3.1c0.5-0.8 10.6 3.8 11 3 0.5-0.8-4-4.5-3.5-5.3s4.2 0.4 4.7-0.4-5.3-5.6-4.7-6.4c0.5-0.8-0.3-2.6 0.2-3.4s0-2.4 0.6-3.2c0.6-0.8-1.8-3.8-1.2-4.5 0.6-0.8 7.7 3.2 8.3 2.5 0.6-0.8-3.8-5.4-3.2-6.2 0.6-0.8 8.2 4 8.8 3.3 0.6-0.7 1.7-1 2.3-1.8 0.6-0.7-1.5-3.5-1-4.2s-3.9-3.6-3.5-4.4 3.8 0.1 4.1-0.7c0.3-1 9.8 0.8 10.1-0.2 0.3-1-1.3-2.6-1-3.6 0.3-0.9-9.6-4.4-9.5-5.3s-3.3-1.1-3.3-2 14.8-3.1 14.6-4c-0.2-0.9-10.8 0.7-11.1-0.2-0.3-0.9 1-1.9 0.5-2.7-0.5-0.8-1.3-0.8-1.9-1.5s1-3.3 0.4-4.2c-0.5-0.8-7.6 2-8.1 1.2s12.2-8.4 11.8-9.3c-0.4-0.9-4.1 0-4.5-0.9-0.3-0.9-2.2-1.1-2.5-2.1-0.3-0.9-4.1-0.9-4.3-1.9-0.2-0.9 3.1-2.7 3-3.6-0.2-0.9-1-1.7-1.2-2.7-0.1-1 4.5-2.3 4.4-3.3s0.9-1.8 0.9-2.7c0-1-13.3-1.5-13.3-2.5s-0.7-2.2-0.6-3.2c0-1 13.9-1.4 13.9-2.4 0.1-1-11.6-2.7-11.5-3.7s-1.2-2.2-1.1-3.2-0.1-2.1 0-3.1 2.1-1.8 2.3-2.8c0.2-1 0-2.1 0.2-3.1 0.2-0.9 1.8-1.7 2.1-2.7 0.2-0.9 4-1.1 4.2-2.1 0.2-0.9 1.4-1.6 1.7-2.6 0.2-0.9 5.7-0.4 5.9-1.3 0.3-0.9-0.1-1.9 0.2-2.9 0.3-0.9 2.5-1.1 2.8-2s-11.8-6-11.4-6.9c0.3-0.9 8.8 1.1 9.1 0.2 0.3-0.9-7.3-4.9-7-5.8 0.4-0.9 5.8 0.2 6.2-0.7 0.4-0.9 3.2-0.7 3.6-1.6s-3.1-3.5-2.7-4.4 9.9 2.6 10.3 1.7-5-4.5-4.6-5.4-0.4-2.4 0-3.2c0.5-0.9 5.3 0.7 5.8-0.1 0.5-0.9 3.1-0.3 3.6-1.1s-12.9-9.9-12.4-10.8c0.5-0.8 0.9-1.9 1.4-2.8 0.5-0.8 10 4.2 10.6 3.4 0.5-0.8-4-5-3.4-5.8 0.5-0.8 4.6 0.9 5.2 0.1 0.6-0.8-3.1-4.7-2.6-5.5 0.6-0.8 1-1.7 1.6-2.5s8.8 4.5 9.4 3.8c0.6-0.7-0.6-2.9 0-3.6s-0.1-2.5 0.5-3.2 7 3.6 7.6 2.9-7-8.7-6.3-9.4c0.6-0.7 1.6-1.1 2.3-1.8 0.7-0.7-0.7-3.4-0.1-4.1 0.7-0.7 3 0.2 3.7-0.5s2.4-0.3 3.1-1c0.7-0.7-1.6-4.5-0.9-5.1 0.7-0.7 4.3 1.7 5 1.1s-3-6.3-2.3-6.9 5.4 3.1 6.1 2.5c0.7-0.6-2.5-6-1.8-6.6s1.6-1.2 2.3-1.9c0.7-0.6 8.4 7.2 9.2 6.6 0.7-0.6 4.3 2.4 5 1.8s1.5-1 2.3-1.6-5.7-10.7-4.9-11.2c0.8-0.6 2.2-0.4 2.9-0.9 0.8-0.6 4.1 2.4 4.8 1.8 0.8-0.6 4.2 2.7 5 2.2s-2.8-7.6-2-8.1-1.3-5.6-0.5-6.1 8.2 9.3 9 8.8 3.7 2.5 4.5 2 1.1-1.7 1.9-2.2c0.8-0.5-3.7-10.1-2.9-10.5 0.8-0.5 1.5-1.3 2.3-1.8s0.3-3.5 1.2-4c0.8-0.5 4 3.3 4.8 2.8 0.8-0.4 4.1 3.9 5 3.4 0.9-0.4-2.2-8.8-1.4-9.2 0.9-0.4 1.3-1.9 2.2-2.3 0.9-0.4 5.3 6.9 6.2 6.5s-0.4-5.5 0.5-5.9 3.7 3.8 4.6 3.5c0.9-0.4 1.2-2 2.1-2.3 0.9-0.4-0.2-5.7 0.7-6.1 0.9-0.3 2.9 2.2 3.8 1.9 0.9-0.3 2.2 0.5 3.1 0.2 0.9-0.3-0.4-7.3 0.5-7.6s3.5 4.5 4.4 4.3c0.9-0.3 0.3-5.8 1.3-6.1 0.9-0.3 6.1 14.6 7 14.4 0.9-0.2-2.3-16.3-1.4-16.6 0.9-0.2 5.1 13 6 12.8s-1.2-14.3-0.2-14.5c0.9-0.2 4.1 10.4 5 10.2s2.5 3.7 3.4 3.5 1.3-3 2.3-3.2c0.9-0.1 0.5-10.8 1.4-10.9 0.9-0.1 2.4 3.3 3.3 3.2 1-0.1 2.7 9.3 3.7 9.3 1-0.1 1.1-11.8 2.1-11.8 1-0.1 2.2 5.9 3.2 5.8 1 0 1.9 0.1 2.8 0 1 0 2.1-8.4 3-8.3 1 0 2 1.5 3 1.5 0.4 0 0.8 7 1.8 7 0.6 0 0.8 5.8 1.6 5.8 0.9 0.1 2.5-3.3 3.4-3.3s1.5-7.8 2.4-7.9c0.9-0.1 2.1 3.9 3 3.7s2.1 0.7 3 0.5 3.7 4.7 4.6 4.4-0.6-7 0.2-7.4c0.8-0.4 6.2 7.4 7 6.9s0.6-3.7 1.4-4.2 3.7 0.9 4.4 0.3c0.7-0.6-4.1-8-3.5-8.7 0.7-0.6 1.1-1.5 1.7-2.2s-4.5-5.6-3.9-6.4c0.6-0.8 12.1 7 12.7 6.2 0.6-0.7 2.5-0.1 3.1-0.8s-10.6-11.9-10-12.6c0.6-0.7 12.1 8.7 12.7 8 0.7-0.7-7.9-10.5-7.2-11.2 0.7-0.7 10.2 7.9 10.9 7.3 0.7-0.6-2.3-5.2-1.5-5.8 0.7-0.6-2-5.3-1.3-5.9 0.7-0.6 1.2-1.7 1.9-2.3 0.7-0.6 5.4 3.7 6.1 3.1 0.7-0.6-3.9-8.3-3.1-8.9 0.8-0.6 8.4 8.3 9.2 7.8 0.8-0.6-0.7-4.2 0.1-4.8 0.8-0.5-1.8-6.1-1-6.7 0.8-0.5 5.6 5.1 6.5 4.6 0.8-0.5-1.4-5.9-0.6-6.4s0-3.9 0.8-4.3c0.8-0.5 8.6 10.9 9.4 10.4s-2.6-8.4-1.8-8.9 1.3-1.7 2.1-2.1c0.8-0.5 0.5-3.2 1.4-3.6 0.8-0.4 3.4 2.3 4.2 1.9 0.8-0.4-1.3-7-0.4-7.4s5 5.8 5.8 5.4c0.9-0.4 0.3-3.9 1.2-4.3 0.9-0.4 5 6.5 5.9 6.1s1.6-0.9 2.5-1.3c0.9-0.4-2.9-11.8-2.1-12.1 0.9-0.4 7.5 13.2 8.4 12.8s-3.4-13.5-2.5-13.9 2.1 0 3-0.4c0.9-0.3 3.9 4.8 4.8 4.5s2.1 0.2 3-0.1-0.5-7.2 0.4-7.5 2.1-0.1 3-0.4c0.9-0.3 4.6 7.6 5.5 7.3s0.5-4.7 1.4-5 2.1 0.3 3 0 3.4 4.6 4.3 4.3 0.2-6.1 1.1-6.4c0.9-0.3 1-3.7 1.9-3.9 0.9-0.3 4.7 9.8 5.6 9.6s0.5-5.4 1.4-5.7c0.9-0.2 1.9-0.3 2.8-0.6 0.9-0.2 1.3-2.5 2.3-2.7 0.9-0.2 2 0 2.9-0.2s0.9-4.7 1.8-4.9 3.5 7.1 4.5 6.9c0.9-0.2 0.5-7 1.4-7.2s3.9 9.8 4.8 9.6-0.6-13.4 0.3-13.6c0.9-0.2 2.7 3.7 3.6 3.6 0.9-0.2 2.9 5.4 3.8 5.2s2 0.3 2.9 0.2c0.9-0.2 1.6-1.9 2.5-2.1 0.9-0.1 1.5-2.9 2.4-3.1 0.9-0.1 1.5-3.5 2.4-3.7 0.9-0.1 2.7 5.7 3.6 5.6 0.9-0.1 1.3-5 2.3-5.2 0.9-0.1 2.2 2 3.1 1.9 1-0.1 1.5-4.4 2.4-4.5 1-0.1 1.8-1.8 2.7-1.9 1-0.1 2.6 8.3 3.6 8.2s2 1.7 3 1.6c1-0.1 1.5-5.7 2.5-5.8s1.8-2.1 2.8-2.1c1-0.1 2.2 5.8 3.1 5.7 1 0 2.1 5.2 3 5.1 1 0 1.7-5.3 2.7-5.3s1.9 2 2.9 2 1.9-3.4 2.8-3.4c1 0 1.9-2 2.9-1.9 1 0 1.9-0.3 2.9-0.3s1.7 8.6 2.6 8.6c1 0 1.8 0.6 2.8 0.6s2.1-5.3 3.1-5.3 2.5-10.2 3.5-10.2c1 0.1 1.9 1.8 2.9 1.9 1 0.1 0.9 13.1 1.9 13.2 1 0.1 3.1-13.9 4.1-13.8 1 0.1 1.9 1.1 2.9 1.2 1 0.1 1.7 3.1 2.6 3.2 1 0.1 2.5-4.5 3.5-4.4s0.4 12.3 1.4 12.4c1 0.1 1.4 3.5 2.4 3.6s2-0.5 2.9-0.3c1 0.1 4-13.4 5-13.2s-0.1 12.9 0.8 13c1 0.2 3.8-10.6 4.7-10.4 0.9 0.2-0.3 12.5 0.6 12.7 0.9 0.2 1.7 0.9 2.7 1.1 0.9 0.2 2.4-2.6 3.4-2.4 0.9 0.2 1.1 4 2 4.2s2.6-3.2 3.6-3c0.9 0.2 1.6 1.4 2.6 1.6 0.9 0.2 2.5-2.5 3.5-2.2 0.9 0.2 3.5-5.9 4.4-5.7s1.1 3.7 2 3.9-0.2 8.1 0.8 8.3c0.9 0.3 2.6-2.5 3.6-2.2 0.9 0.3 2.5-1.8 3.4-1.6 0.9 0.3-0.2 7.4 0.7 7.7s3.9-6.3 4.8-6c0.9 0.3 2.8-2.5 3.7-2.2s0.1 6.1 1 6.4c0.9 0.3 1.9 0.3 2.8 0.6 0.9 0.3 1.5 1.6 2.4 1.9 0.9 0.3 5.8-10.6 6.7-10.3s-1.4 9.5-0.5 9.8 4.1-5.4 5-5c0.9 0.3-1.2 8.5-0.3 8.9s2.4-0.8 3.3-0.4c0.9 0.4 2.5-1.1 3.4-0.7 0.9 0.4-0.2 5.3 0.7 5.7s3.6-3.5 4.5-3.1 2.1 0.1 2.9 0.5c0.9 0.4 1.7 0.9 2.6 1.3 0.9 0.4 1.6 1.2 2.4 1.6 0.9 0.4-0.1 4.4 0.8 4.9 0.9 0.4 4.9-5.4 5.7-4.9 0.9 0.4 0.7 2.9 1.5 3.3 0.9 0.5 0.8 2.6 1.6 3.1 0.9 0.5 3-1.5 3.9-1 0.8 0.5 1.1 2 1.9 2.5 0.8 0.5-0.3 4.2 0.5 4.7s-0.2 3.9 0.6 4.4 9.9-11.8 10.7-11.2c0.8 0.5-3.9 9.3-3.1 9.8 0.8 0.5 7.2-6.8 8-6.2s-7.1 13.1-6.4 13.6c0.8 0.6 7.3-6.4 8-5.9 0.8 0.6 4.2-1.9 4.9-1.3 0.8 0.6-5.7 9.7-4.9 10.4 0.7 0.6 6.7-4.7 7.4-4.1 0.7 0.7 5.3-2.5 5.9-1.8 0.7 0.7 1.1 2.1 1.7 2.7 0.7 0.7-2.8 5.5-2.2 6.2 0.7 0.7-1.6 4-1 4.7 0.6 0.8 0.7 1.8 1.3 2.5 0.6 0.8 6.6-2.3 7.1-1.5 0.6 0.8 0.1 2.4 0.6 3.3 0.5 0.8-6.9 6.1-6.5 6.9 0.5 0.9 6.5-1.2 6.9-0.4 0.4 0.9 5.5 0.1 5.9 1 0.3 0.9-7.6 4.6-7.3 5.5 0.3 1.1 3.4 1.5 3.9 2.5 0.6 0.9 5.3-2.8 6.1-2.1s-4.5 13.2-3.5 13.6l5.1 0.1c1-0.3-1-10.6 0-10.8 1-0.3 3.4 4.8 4.3 4.6 1-0.3 2.3 1.3 3.2 1.1 1-0.2-0.3-10.8 0.7-11s2.9 3.8 3.8 3.6c1-0.2 1.2-5.6 2.2-5.8s3.6 10.8 4.5 10.7c1.1-0.1 0.8-10.9 1.7-11 1.1-0.1 3.1 9.7 3.9 9.7 1.4-0.1 2-5.5 2.6-5.6 1 0 2.1 8.6 3.1 8.5 1 0 1.8-11.5 2.7-11.5 1 0 1.8 5.8 2.8 5.8s1.8 0.8 2.8 0.8c1 0.1 1.9-0.8 2.9-0.8 0.9 0.1 1.8 1 2.7 1.1s1.3 4.5 2.3 4.6c0.9 0.1 2.4-4 3.3-3.8 0.9 0.1 1.1 5 2 5.1 0.9 0.2 1.5 1.8 2.4 2s3.7-9 4.6-8.8c0.9 0.2 2.7-3 3.6-2.8 0.9 0.2 0 8 1 8.3 0.9 0.2 4.4-9.1 5.3-8.8 0.9 0.2-1.8 13.6-0.9 13.9 0.9 0.3 4.2-7.5 5.1-7.2 0.9 0.3 2.7-2 3.6-1.7 0.9 0.3 2.5-1.3 3.4-1s2.5-1 3.4-0.6c0.9 0.3-1.2 8.7-0.3 9.1 0.9 0.3 1.4 1.6 2.3 2 0.9 0.4 1.8 0.5 2.7 0.9s-1.1 7.1-0.2 7.5c0.9 0.4 5.7-8.2 6.6-7.9 0.9 0.4 1.6 1.1 2.5 1.6 0.9 0.4 1.2 1.8 2.1 2.3 0.9 0.4 2.3-0.4 3.2 0.1 0.9 0.4 3.7-3 4.6-2.5 0.8 0.4-2.1 8.1-1.3 8.6s2 0.3 2.8 0.7c0.8 0.5 6-6.6 6.8-6.1s-1.6 6.6-0.8 7.1 2.3-0.2 3.1 0.3c0.8 0.5 0.4 2.9 1.2 3.4s-0.7 4.5 0.1 5 6-5.6 6.8-5.1-1.5 5.6-0.7 6.1 4.2-2.7 5-2.1-2.4 6.6-1.6 7.2c0.8 0.6 0.7 2.1 1.5 2.7s8.4-7.9 9.1-7.4c0.8 0.6-1.8 5.5-1.1 6.1 0.8 0.6 0.9 2 1.6 2.6 0.7 0.6 3.2-0.8 3.9-0.2 0.7 0.6 4-1.7 4.7-1 0.7 0.6-6.3 10.2-5.6 10.8 0.7 0.6 6.6-4.6 7.3-4s0.6 2.1 1.3 2.8c0.7 0.6 5.3-2.8 6-2.2 0.7 0.7-6.9 9.9-6.2 10.5 0.7 0.7 6.3-3.7 7-3.1 0.7 0.7 2.7 0.1 3.4 0.7 0.7 0.7 4.1-1.1 4.7-0.4 0.7 0.7-4.3 6.7-3.7 7.4 0.6 0.7-4.4 6.4-3.8 7.1 0.6 0.7 12.1-8 12.7-7.3 0.6 0.7-2 4.3-1.4 5s5.5-2 6.1-1.2c0.6 0.7 0.2 2.4 0.8 3.2 0.6 0.8-10.2 10.1-9.6 10.9 0.6 0.8 6.9-2.8 7.5-2s4-0.5 4.5 0.3 5.7-1.4 6.2-0.6-5.2 5.7-4.6 6.5c0.5 0.8-3.1 4.2-2.6 5s12.3-5 12.8-4.1c0.5 0.8-3.3 4.2-2.8 5.1s2.4 1 2.9 1.8c0.5 0.9 1.9 1.3 2.4 2.2 0.4 0.9 1.3 1.7 1.7 2.5 0.4 0.9 1.7 1.5 2.1 2.4 0.4 0.9-7.7 5.6-7.3 6.5s-2.9 3.3-2.6 4.2c0.4 0.9 11-2.3 11.4-1.4s-8 5.1-7.6 6.1c0.3 0.9 12.5-2.4 12.8-1.4 0.3 0.9-11.3 5.9-11 6.8s9.2-0.8 9.4 0.1c0.3 0.9-1.2 2.5-0.9 3.4s3.3 1.2 3.5 2.2c0.2 0.9-11.3 4.8-11 5.8 0.2 1-2 2.3-1.8 3.2 0.2 1 13.9-0.9 14.1 0.1 0.2 1-1.5 2.4-1.4 3.3 0.2 1-1.5 2.3-1.3 3.2 0.1 1-7.4 2.8-7.3 3.8 0.1 1-0.7 1.8-0.6 2.8 0.1 1 4.5 1.5 4.6 2.5s3.5 1.8 3.5 2.8c0 0.9-7.1 2.1-7 3 0 0.9 3.9 1.8 3.9 2.7 0.1 0.9-5.1 2.3-5 3.2 0.1 0.9 14.8 0.7 14.9 1.6 0.1 0.9-6.7 2.5-6.5 3.4 0.1 0.9 1 1.7 1.1 2.7 0.1 0.9 5.2 1.1 5.3 2s-1.8 2.1-1.7 3c0.2 0.9 4.2 1 4.4 1.9s-5.1 2.8-4.9 3.7c0.2 0.9 5.4 0.6 5.6 1.5 0.2 0.9 0.2 1.7 0.4 2.6s-10.7 4.8-10.4 5.7c0.3 0.9-0.1 2.1 0.1 3 0.3 0.9 5.9 0.1 6.2 1s0.5 1.8 0.8 2.7c0 0.1-3.4 1.5-3.3 1.6 0.3 0.9 8.7-1.1 9.1-0.2 0.4 0.9 3.4 0.6 3.8 1.6 0.4 0.9-7.3 5.1-6.9 6 0.4 0.9-1.6 2.9-1.2 3.8 0.4 0.9 3.5 0.6 4 1.5 0.4 0.9 0.6 1.9 1.1 2.8s8.2-2.2 8.7-1.4c0.5 0.9-1.4 2.9-0.9 3.7 0.5 0.9-1.3 3-0.8 3.9 0.5 0.8 0.4 2 1 2.9 0.5 0.8-2.8 4.3-2.2 5.1 0.5 0.8 5.5-1.5 6.1-0.7 0.5 0.8 2.2 0.9 2.7 1.7 0.5 0.8 1.1 1.6 1.6 2.5 0.5 0.8 3.3 0.3 3.8 1.2 0.5 0.8 0.6 2 1.1 2.8s-2.3 3.6-1.8 4.4-3 3.8-2.5 4.6c0.4 0.8 9-2.5 9.5-1.6 0.4 0.9-12.6 8.4-12.2 9.2 0.4 0.9 12.4-3.8 12.8-2.9 0.4 0.9-10.9 7-10.5 7.9s14.7-4.3 15.1-3.4c0.4 0.9-5.5 4.4-5.1 5.3s-4.4 3.7-4 4.6c0.3 0.9-1.7 2.5-1.4 3.4s2.8 0.9 3.1 1.8 12-1.8 12.3-0.9 2.3 1.5 2.6 2.4-10.5 4.9-10.2 5.8c0.2 0.9 2.4 1.3 2.7 2.3 0.2 0.9-7.3 3.5-7.1 4.4s5 0.8 5.1 1.8c0.2 0.9 2.8 1.4 3 2.3 0.1 0.9 9.6 0.6 9.8 1.6 0.1 1-10.2 3.2-10.1 4.2 0.1 1-4 2.2-4 3.1 0.1 1 10.3 1.3 10.4 2.2 0 1 1.7 2 1.7 2.9 0 1-3.5 2-3.5 3s0.6 2 0.6 3-3.5 1.8-3.5 2.7c-0.1 1 5.6 2.4 5.5 3.4s-9.3 0.9-9.5 1.9c-0.1 1 2.3 2.2 2.2 3.1-0.1 1 10.2 3.7 10 4.7-0.2 0.9-11.5-0.2-11.7 0.8-0.2 0.9 0.5 2 0.3 2.9s4.7 3.2 4.4 4.1c-0.2 0.9-6.2 0.3-6.5 1.2s0.3 2 0 3c-0.3 0.9 0.4 2.1 0.1 3.1-0.3 0.9 4.4 3.7 4.1 4.6-0.3 0.9-10.7-2.2-11.1-1.3-0.4 0.9-2.3 0.9-2.7 1.8-0.4 0.9 8.6 5.9 8.2 6.8-0.4 0.9-6.3-0.9-6.8-0.1-0.4 0.9-1.5 1.3-2 2.1-0.4 0.9 0.1 2.1-0.4 3-0.5 0.8-2 1-2.5 1.8s0.9 2.7 0.4 3.5-4.5-0.7-5 0.1 10.5 9.3 10 10.1-5.7-1.5-6.2-0.7c-0.6 0.8-2.3 0.8-2.8 1.5-0.6 0.8-5.7-2-6.3-1.2s-2.3 0.5-2.9 1.3c-0.6 0.8 7 8.1 6.4 8.9-0.6 0.7-1.1 1.7-1.7 2.4-0.6 0.7-7.3-3.9-8-3.2-0.6 0.7 2.4 4.8 1.8 5.5-0.7 0.7-6.8-3.9-7.5-3.2s7.5 10 6.8 10.7-10-7.5-10.7-6.8 1 3.7 0.3 4.3c-0.7 0.7-0.3 2.5-1 3.1s1.3 4.4 0.6 5-1.7 1-2.4 1.7c-0.7 0.6-8.2-7-8.9-6.4s7.1 12 6.3 12.5c-0.8 0.6-8.6-8-9.3-7.4-0.8 0.6 0 3.1-0.8 3.7-0.8 0.6-2.8-0.7-3.6-0.2-0.8 0.6-1.4 1.2-2.2 1.7s3.9 9.2 3.1 9.7c-0.8 0.5-2.6-0.4-3.4 0.1-0.8 0.5-1.5 1.3-2.3 1.8 0.2 0 0.9 3.2 0.1 3.7z" fill="#C09C80" p-id="1204"></path><path d="M503.3 873.2c-0.6 0-1.1 0-1.5-0.1-1.5-0.2-4.3-1-6.4-3.5-1.7 0.8-3.8 1.1-6.2 0.6-0.7-0.2-2.2-0.6-3.6-1.6-1.2 0-2.1-0.2-2.6-0.3-4.2-1.1-6.1-3.8-7.1-6.6h-1.1c-1.5 0.3-3.9 0.6-6.6-0.5-3.3-1.3-5-3.7-6-5.8h-0.9c-1.9 0.4-5 0.8-8.2-1-1.1-0.6-2.8-1.7-3.9-3.7-2.2-0.2-3.9-1.2-4.6-1.7-0.9-0.6-1.7-1.3-2.3-2.1-0.7-0.1-1.5-0.3-2.3-0.7-1.1-0.4-2-1-2.8-1.6-1.5 2.1-3.9 3.7-7.5 3.9-2.5 0.1-4.6-0.5-6.5-1.9-1 1.4-2.4 2.6-4.5 3.4-2.3 0.9-4.3 1-6.1 0.5-0.5 0.4-1.1 0.8-1.7 1.2-0.9 0.8-2.5 2-4.7 2.6-1.2 0.4-4.4 1-7.7-0.9-1.1 2-3.5 5.1-7.9 5.9-1.4 0.3-4.1 0.4-6.7-1.1-1.9 2-4.3 2.6-6.1 2.8-2.1 0.2-5.4 0-8.1-2.8-1.7-0.1-4-0.7-6-2.6-2.6 3.5-6.2 4-8.1 4-2.1 0-5.3-0.6-7.6-3.6-1.1-0.2-2-0.5-2.9-1-2.8 2.8-6.2 3-8 2.8-2.1-0.2-3.7-0.9-5-1.8-1.2 0.3-2.6 0.4-4.1 0.2-5.3-0.7-7.5-4.3-8.6-7.6-0.5 0.5-1.1 1-1.7 1.3-1.2 1.4-3.5 3.8-7 4.5-1.6 0.8-4.3 1.7-7.7 1-0.3-0.1-0.7-0.1-1-0.2-0.7-0.1-1.4-0.3-2-0.4-0.9-0.2-1.7-0.5-2.4-0.9-1.1 0.1-2.3 0-3.6-0.4-1.5-0.4-2.7-1-3.4-1.4h-0.1c-1.5-0.5-2.6-1.2-3.6-2.1-0.5-0.1-1-0.2-1.5-0.4-0.6-0.2-1.7-0.6-2.8-1.4-2.5 0.9-4.9 0.5-6.5-0.1-1.3-0.5-4.7-2-6.2-6.2-0.4-0.1-0.8-0.2-1.3-0.4-0.8-0.3-1.8-0.8-2.9-1.7-1.2-0.1-2.1-0.5-2.8-0.8-1.6-0.7-2.9-1.7-3.8-2.7-0.2-0.1-0.5-0.2-0.7-0.2-0.9-0.2-2.2-0.4-3.8-1.2-3.5-1.6-5-4.3-5.6-6.9-2.3 0.7-4.9 0.7-7.8-0.9-1-0.6-3.3-2.1-4.5-5.1-1.3-0.8-2.3-1.8-3-2.8-0.5-0.2-1.1-0.5-1.6-0.9-5.4 2.8-9.7 0.3-11-0.7-0.9-0.7-3-2.5-3.8-5.6-1.9-0.1-4-0.8-6-2.5-2.6-2.2-3.5-4.8-3.6-7.2-0.9-1-1.4-1.9-1.8-2.5-0.9-1.1-2-2.9-2.3-5.3-1.5-0.4-3.1-1.2-4.6-2.6-2.3-0.2-4.8-1.2-6.8-3.8-1-1.3-1.6-2.6-2-3.9-1.5-0.7-2.9-1.8-4.1-3.5-1.1-1.5-1.6-3.1-1.8-4.5-1.3-0.8-2.5-1.9-3.4-3.5-1-1.7-2.6-5.3-0.4-9.7-3.5-1.3-5-4.1-5.6-5.3-0.1-0.3-0.3-0.7-0.4-1.2-2.7-0.8-5.4-2.5-6.8-6.3-0.8-2.2-1.4-5.7 1.2-9.3-0.4-3.3 0.9-5.9 2.4-7.9-0.6-1-1.1-2.1-1.3-3.4-0.2-1.2-0.3-2.2-0.2-3.2-1.3-1.4-2.4-3.2-2.7-5.8 0-0.3-0.1-0.5-0.1-0.8-0.1-0.6-0.3-1.4-0.4-2.3 0-0.3-0.1-0.6-0.1-0.9-0.1-0.6-0.2-1.4-0.3-2.2-0.1-1-0.1-3.1 1-5.3-1.7-1.7-2.8-4-2.8-7.2 0-1.4 0.3-2.5 0.7-3.6-0.5-1-0.8-2.2-0.9-3.6-0.1-2 0.2-3.7 0.9-5.1-0.1-0.1-0.2-0.1-0.3-0.2-5.2 0.2-7.9-2.5-9.4-5.2-0.8-1.5-1.7-3.9-1.1-6.6-1.8-0.8-2.9-2-3.6-2.9-1.5-1.9-2.1-3.7-2.2-5.5-1.4-0.6-2.8-1.5-4.1-3-1.3-1.6-2-3.2-2.3-4.8-0.5-0.3-0.9-0.7-1.2-1-1.4-1.3-2.3-2.8-2.8-4.2-2.3 0.5-5.1 0.3-7.8-1.6-3.5-2.4-4.4-5.5-4.4-8.4-0.4-0.1-0.9-0.3-1.3-0.5-1.3-0.3-3.4-0.8-5.4-2.4-1-0.8-3.3-3.1-3.7-6.8-4.5 0.9-7.5-1.3-8.9-2.6-0.3-0.3-0.9-0.9-1.4-1.7-3.1-0.1-5.6-1.5-7.2-3.2-4.2-4.6-2.6-10-1.7-12.4 0.1-1.8 0.7-3.8 2.1-6.1-0.3-0.1-0.6-0.3-0.8-0.4-0.8-0.2-1.7-0.6-2.6-1.2-0.1 0-0.2 0.1-0.3 0.1-8.1 2.6-12-2.4-13-3.9-0.7-1.1-1.1-2.2-1.4-3.2l-0.5-0.5c-1-0.7-2.7-2-3.9-4.2-0.2-0.4-0.5-0.9-0.7-1.5-1.6-1.1-2.7-2.6-3.3-3.9-1.1-2.1-2.8-7.4 2.9-12.7-0.2-0.5-0.3-1.1-0.4-1.6h-0.3c-7.8 0-10.2-5.1-10.8-7.4-0.5-1.6-1-4.8 1-8-1.8-1.9-2.5-4.1-2.7-5.4-0.2-1-0.2-1.9-0.3-2.6 0-0.3 0-0.5-0.1-0.7-0.2-1.5-0.2-2.8 0.1-3.9-0.3-0.8-0.5-1.7-0.6-2.8-0.5-4.9 2.2-7.9 4.8-9.7l-0.2-0.2c-2-1.5-5.7-4.7-5.3-10.2 0.1-0.7 0.2-2 0.9-3.5-1.5-2.4-1.5-5-1.3-6.7 0.3-1.7 1.6-6.9 8.3-8.5 0.5-2 1.5-3.5 2.1-4.4 0.1-0.3 0.3-0.6 0.4-0.9-5.1-4.2-4.5-8.9-3.6-11.5 0.3-0.8 0.9-2.2 2.2-3.6 0.1-1 0.4-1.8 0.6-2.2 0.7-1.8 2.7-5.2 7.3-6.1 0.1-1.3 0.4-2.6 1.1-4 0.4-0.8 1.4-2.6 3.4-3.9 0.2-1.2 0.5-2.6 1.4-4.2 0.6-1.1 2.5-3.8 6.1-4.8 0-0.4 0.1-0.8 0.1-1.2-0.1-1.1 0-2.6 0.5-4.2-1-2.5-2.1-6.8 1-11 1.5-2.1 3.3-3.2 5.1-3.8 0.1-0.1 0.1-0.2 0.2-0.2 0.6-0.8 2.2-2.5 4.7-3.4 0.1-0.5 0.3-1 0.6-1.6 0.3-0.8 0.7-1.5 1.2-2.1-1.3-2-1.6-4.1-1.6-5.6 0-0.7 0.1-1.5 0.2-2.3-1.7-0.8-3.3-2.1-4.6-4.3-1.2-2.1-3-7 1.8-12.2-1-1.1-1.8-2.6-2.3-4.5-0.7-3-0.1-5.5 1-7.4-5.7-1.9-7.1-6-7.4-8.5-0.3-1-0.8-2.6-0.7-4.7 0-1.3 0.3-3.6 1.8-5.6-0.3-1.2-0.6-2.6-0.4-4.2v-0.3c0-0.8-0.1-2 0.1-3.5 0.3-2.3 1.4-4.1 2.4-5.4 0-0.3 0.1-0.6 0.1-0.9 0.6-3 2.2-5 3.4-6.2 1.5-2.5 3.8-3.8 5.6-4.5-4.9-4.3-3.9-9.1-3.2-11.2 0.4-1.2 0.9-2.1 1.5-2.9 0.1-1 0.3-2 0.7-3.1 1.5-3.8 4.2-5.4 6.9-6.2 0.1-0.3 0.3-0.7 0.4-1 0.5-1.1 2-3.7 5.1-5 0.1-0.5 0.3-1.1 0.6-1.6-5.5-5.6-4-10.6-2.4-13.2 0.1-0.1 0.1-0.3 0.2-0.4 0.3-0.7 0.7-1.6 1.4-2.6 0.8-1.3 3.4-4.6 8.4-4.7 0.3-1.2 0.8-2.4 1.7-3.6 0.1-0.1 0.2-0.3 0.2-0.4 0.4-0.6 0.9-1.4 1.5-2.3 0.9-1.2 3.9-4.4 9.2-3.9 0.1-2.6 1.3-4.6 2.1-5.7 0.1-2.1 0.8-4.6 3-6.8 1.1-1.1 2.3-1.9 3.4-2.4 0.4-1.4 1.1-2.7 2.3-4 0.2-2.2 1.1-4.5 3.3-6.5 0.7-0.6 1.5-1.2 2.2-1.5 0.5-1 1.3-1.9 2.3-2.7 0.5-0.4 1.1-0.9 1.6-1.3 0.3-0.2 0.6-0.4 0.8-0.7 1.5-1.2 4.8-3.3 9.4-1.9 0.8-1.3 1.9-2.2 2.6-2.8 1.9-1.4 3.8-1.9 5.1-2.2l0.9-0.3c0-3 0.9-6.5 4.7-9 1.7-1.1 5.8-3 10.6-0.2 0.3-0.3 0.6-0.6 0.9-0.8 0.6-2.3 2-5.1 5.3-6.9 2.2-1.2 4.2-1.4 6.1-1.2 0.1-0.1 0.3-0.2 0.4-0.4 0.8-1 2.2-2.8 4.6-3.9 3.4-1.6 6.2-1.2 8.6 0 0.4-0.1 0.7-0.2 1.1-0.2 1-1.8 2.6-3.4 5.2-4.3 0.6-0.2 1.3-0.4 1.9-0.5 1-2.2 2.8-4.2 6-5.2 1.1-0.3 2.1-0.5 3-0.5 0.8-0.6 1.8-1 3-1.4 0.6-0.2 1.3-0.3 2-0.4 1.3-1 2.8-1.6 3.9-1.9 0.7-0.2 1.6-0.3 2.6-0.3 1.2-0.8 2.5-1.2 3.6-1.4 1.6-0.3 4.9-0.6 7.9 1.6 2-1.6 4.1-2 5.1-2.1 2.6-0.3 4.7 0.3 6.4 1.3 1.3-0.5 2.5-0.7 3.4-0.7 1-0.1 1.9 0 2.7 0.2 1.6-1.6 3.9-2.7 7.1-2.6 3.2 0.1 5.5 1.5 6.8 2.4 0.8 0.3 1.5 0.8 2.2 1.3 0.7-0.2 1.4-0.3 2.2-0.4 3.2-0.3 5.5 0.8 7.3 2.2 0.1 0 0.1-0.1 0.2-0.1 0.8-0.4 1.5-0.6 2.3-0.8-1.3-2.9-1.8-6.7 1-10.4 0.7-0.9 2-2.4 4-3.2 0.4-2.1 1.5-3.7 2.5-4.8 1.1-1.3 3-2.7 5.6-3.2l0.3-0.3c1.1-1.1 3.4-2.8 6.7-2.9 0.3-0.5 0.7-1 1.2-1.4 0.4-0.6 1.1-1.6 2.2-2.5 0.6-3.7 3-5.8 4-6.5 1.2-0.9 3.4-2.2 6.5-2 0.6-0.7 1.4-1.4 2.3-2s1.8-1 2.7-1.3c0.7-1.8 2-3.7 4.3-5 1.4-0.8 4.3-2.1 7.8-1.1 0.6-0.9 1.5-1.9 2.6-2.6 0.6-2.4 2.1-4.8 5.3-6.4 3.2-1.6 5.9-1.3 8.3-0.3 1.2-3.8 4.1-5.5 5.7-6.2 1.3-0.6 3.2-1 5.2-0.8 0.3-0.1 0.6-0.3 0.9-0.4 1.9-0.8 3.6-0.9 4.7-0.9 1-0.2 1.9-0.3 2.8-0.2 1-1.1 2.3-2 4.1-2.6 1.7-0.6 3.2-0.7 4.1-0.7 3.6-0.9 6.4 0.3 8.6 2.1h1.4c1.1-2.1 3.1-4.5 6.6-5.5 1.4-0.4 5.4-1.1 9.1 1.9 0.3-0.2 0.6-0.4 0.9-0.5 1.1-2.5 3.2-5.2 7.3-6.1 1.8-0.4 3.4-0.4 4.8 0 2-3.1 4.9-4.1 6.6-4.4 5.5-1 9.1 2.4 10.9 4.6 1.4-2 3.7-4.1 7.3-4.6 2-0.3 3.7 0 5.1 0.6 0.2 0 0.5-0.1 0.7-0.1 0.6-0.5 1.2-1 1.9-1.4 1.3-1.2 3.5-2.8 6.8-3.1 3.7-0.3 6.3 1 8.1 2.9 1.1-0.5 2.5-0.9 4.1-1 5.1-0.3 8 2.7 9.7 5.5h0.1c0.1-0.1 0.3-0.2 0.5-0.3 1.4-1.3 3.9-3 7.5-3.1h0.2c0.7-0.1 1.8-0.2 3-0.2 0.8 0 1.5 0.1 2.2 0.2 3-6.4 8.4-6.6 10.2-6.5 2.1 0.1 3.9 0.9 5.2 1.7 1.5-0.4 2.9-0.5 4-0.4 1.4 0.1 2.6 0.5 3.6 0.9 1.6-0.8 3.4-1.2 5.7-0.9 1.5 0.2 4.2 0.8 6.3 3.2 2.1-0.9 4.2-0.9 5.7-0.7 1.3 0.2 3.4 0.8 5.3 2.5 0.2 0 0.3 0 0.4 0.1 2.5 0.4 8.4 2.5 8.6 11.6v0.3c0.4 0.2 0.9 0.4 1.3 0.6h1.1c2-3 5.8-7.7 12.4-6.1 5.2 1.3 7.1 5.6 7.9 7.9 0.1 0.1 0.1 0.2 0.2 0.3 0.6 0.1 1.3 0.2 2 0.4 0.4 0.1 0.8 0.3 1.2 0.4 2.1-1.1 4.9-1.9 8.3-0.8 1 0.3 1.9 0.7 2.6 1.2 4.2-4 8.6-3.1 10.6-2.4 1.2 0.4 4.2 1.8 5.8 5.3 3.4 1.7 4.8 4.4 5.3 7.2 0.1 0 0.2 0.1 0.3 0.1 1.2 0.5 2.2 1.1 3 1.9 0.3 0.1 0.6 0.1 0.9 0.2 1 0.1 2.7 0.3 4.5 1.1 0.7 0.3 1.3 0.6 1.9 1 0.3 0.1 0.5 0.3 0.8 0.4 0.7 0.3 1.3 0.7 1.8 1 2.2-0.7 4.7-0.7 7.5 0.7 2.3 1.2 3.7 2.9 4.6 4.5 0.9 0.2 1.8 0.6 2.8 1.1 0.8 0.5 1.5 1 2.1 1.5 5.3-4.1 9.8-2.4 12.2-0.8 0.6 0.4 1.7 1.2 2.6 2.5 1.2 0.4 2.1 1 2.6 1.3 1.3 1 3 2.6 3.8 5 1.1 0.4 2.2 1 3.4 1.9 0.6 0.5 1.3 1.2 2 2.1 2.3 0 4.8 0.7 7.1 2.9 1.5 1.4 2.3 3 2.8 3.9 2.3 3 2.3 6.3 1.7 8.9 1.4 0.7 2.6 1.8 3.8 3.4 1.7 2.4 2 4.8 2 6.3 0.1 0.2 0.1 0.4 0.2 0.7 1.8 0.7 3.5 1.9 4.8 3.8 1-0.5 1.9-0.7 2.4-0.8 0.6-0.1 1.1-0.2 1.6-0.2 1.2-1 2.8-1.7 4.8-2 1-0.2 2.6-0.2 4.3 0.2 1-0.4 1.9-0.5 2.4-0.6 1.7-0.2 5-0.1 8 2.6 2-1.3 4.1-1.5 5.4-1.5 5.1 0 7.8 3.1 9.3 5.9 2.1 0.2 3.8 0.9 4.8 1.4 0.4 0.1 0.8 0.3 1.2 0.4 1.3-0.2 2.3 0 2.9 0.1 0.5 0.1 0.9 0.2 1.3 0.3 0.4-0.3 0.7-0.5 1.1-0.7 1.7-1.8 5.4-5.1 10.9-3.9 2.9-1.2 5.5-0.8 6.6-0.5 1.4 0.4 3.9 1.4 5.6 3.9 0.7-0.2 1.4-0.3 2.1-0.3 1.7-0.5 4.5-1.2 7.7 0 5.7 2.1 6.8 6.9 6.7 11 2.3-0.2 4.2 0.5 5.1 0.9 1.3 0.6 2.3 1.3 2.9 1.7 2.5-1.3 6-2.2 9.9-0.1 1.1 0.6 2 1.3 2.7 2 1.8-0.2 3.8 0.2 5.9 1.4 4.2 2.4 5.1 6.2 5.1 9.4 1.9-0.1 3.9 0.4 6 1.8 1.5 1 2.5 2.1 3.2 3.3 0.4 0.2 0.9 0.5 1.3 0.8 0.4 0.3 0.7 0.6 1.1 0.8 3.9-0.9 6.9 0.8 8.3 1.9 2.1 1.6 3.2 3.4 3.7 5.3 1.9 0.1 3.9 0.8 5.9 2.5 1 0.9 2.6 2.5 3.2 5 2 0.1 4.2 0.9 6.2 2.8 0.9 0.9 2.3 2.6 2.9 5 2.1 0.2 4.4 1.1 6.4 3.2 1.6 1.7 2.4 3.4 2.6 5.1 1.3 0.7 2.3 1.6 3 2.4 0.2 0.3 0.5 0.6 0.7 0.9 1.5 0.6 3 1.6 4.2 3.2 1.8 2.3 2.3 4.7 2.5 6.2 0.2 0.5 0.4 1.1 0.5 1.7 2.5 0.4 5 1.5 6.9 4.5 0.9 1.4 1.4 2.7 1.6 3.9 2.2 1.1 3.5 2.9 4.2 4 1.5 2.7 1.7 5.2 1.2 7.3 0.4 0.5 0.9 1.1 1.3 1.8l0.1 0.1c0.3 0.4 0.7 0.9 1.1 1.6 0.8 0.8 2.1 2.1 3 4.1 0.5 1.1 1.6 4 0.4 7.5 0.3 0.4 0.6 0.9 0.8 1.3 3.7 1.4 5.2 4.4 5.8 6.1s1.3 5.2-1.1 8.8v0.1c1 1.1 1.9 2.5 2.4 4.4 0.3 1.3 0.6 3.5-0.2 5.9 1 1.4 1.4 2.9 1.6 3.9 0.7 3.6-0.6 6.4-1.5 8.1-0.3 1.3-0.9 2.4-1.3 3.2-0.3 1.1-0.8 2.1-1.4 2.9 1.1 1.5 1.9 3.4 1.9 5.9v1.3c5.2 1.9 6.5 6 6.7 8.6 0.2 2.1-0.2 3.8-0.8 5.2 0.2 0.5 0.3 0.9 0.4 1.5 2.2 2.1 2.6 4.4 2.8 5.4 0.2 1.2 0.3 2.3 0.1 3.3 0.2 0.5 0.3 1 0.5 1.5 0.2 1 0.3 1.9 0.4 2.5v0.2c0.4 1.6 0.6 4.6-1.2 7.5 2.3 0.7 5.4 2.4 7 6.3 1.1 2.7 1 5.1 0.2 7.1 1.9 0.7 3.6 2.1 5 4.5 2.1 3.9 1.3 7.5 0.4 9.6 0 0.7-0.1 1.3-0.3 1.9 0.1 0.1 0.2 0.1 0.3 0.2 1.2 0.6 2.9 1.6 4.4 3.4 2.1 0.6 4.5 2 6.2 4.8 0.9 1.4 1.3 2.8 1.5 3.6 0.5 1 0.8 2 0.9 2.9 2.4 1.3 3.6 3.4 4.1 4.3 0.8 1.5 1.5 3.8 1 6.4 2.5 1.3 3.9 3.4 4.5 5 1.5 3.5 0.8 6.5-0.5 8.9 1.6 0.7 2.8 1.6 3.6 2.6 1.4 1 3.7 3 4.7 6.4 0.6 2.1 1.2 7.1-3.9 11.1 6 1.9 7.1 6.9 7.3 8.5 0.2 1.4 0.3 5.4-3.1 8.7 0.7 1.3 1.2 2.9 1.2 4.9 0.1 3-1 5.2-2.4 6.9 1 1.6 1.7 3.7 1.4 6.3 0 0.4-0.1 0.9-0.3 1.5 3.5 3.4 3.1 7.5 2.9 9-0.4 2-1.7 6.2-7 7.9 0 0.2-0.1 0.5-0.2 0.7-0.6 2.2-1.6 3.8-2.9 4.9 1 2.1 1.4 4.8 0.3 7.9-0.4 1.2-1.8 4-5.2 5.6-0.2 1.1-0.5 1.9-0.8 2.4-2.2 4.7-6.2 5.8-9.6 6l-0.6 0.9 0.4 0.4c6.9 6.7 4.2 12.4 2.8 14.6-2.8 4.2-6.9 4.7-10.1 4.5-0.1 2.9-1.4 5-2.2 5.9-0.1 0.1-0.1 0.2-0.2 0.3-0.4 0.6-1 1.5-1.8 2.5-0.6 0.7-2.1 2.2-4.4 3 0.2 3.7-1.8 6.3-3 7.4-1.3 1.3-4.3 3.6-8.7 2.8-0.6 1.2-1.4 2.3-2.6 3.4-0.6 0.5-1.1 0.9-1.6 1.2-0.3 3.7-2.5 6-3.8 7-1.5 1.1-4.8 3.1-9.1 1.7-0.8 3.6-3.3 5.6-4.4 6.3-0.9 0.6-1.8 1-2.7 1.3-0.4 1.1-1.1 2.2-2 3.2-0.7 1.3-2.1 3.3-4.6 4.7-1.6 0.9-4.2 1.8-7.1 1.1-1.2 2.3-3 3.6-4.2 4.2l-0.1 0.1c-0.6 0.4-1.4 1-2.4 1.6l-0.6 1.2c1.9 1.1 3.1 2.5 3.8 3.8 0.9 1.1 2.4 3 2.9 5.9 0.3 1.6 0.4 4.6-1.6 7.5 1.1 1.4 1.9 3.2 2.1 5.5 0.3 3.2-0.9 5.7-2.4 7.4 0.2 0.7 0.2 1.5 0.2 2.3 0 1-0.1 1.8-0.1 2.4v0.7c0.1 0.8 0.2 1.9 0.2 3.3-0.1 2.5-1 4.4-2.1 5.9 3 2 6 5.3 5 10.7-0.6 3.6-2.8 5.8-4.9 7.1-0.2 0.5-0.4 0.9-0.5 1.3 1.4 2.9 0.9 5.7 0.5 7.2-0.2 0.6-0.5 1.5-1 2.4 0.1 1.7-0.3 3.1-0.6 4-1.3 3.7-3.9 5.4-6.4 6.3 1.7 3.9 0.4 7.4-0.2 8.6-1.5 3-3.9 4.5-6.1 5.2 0 0.8-0.1 1.7-0.4 2.6-0.1 1.4-0.4 3.8-1.9 6-2.3 3.6-5.7 4.5-8.4 4.7 1.4 2.9 2.9 8-1 12.6-0.7 0.8-1.5 1.5-2.3 2-0.5 1-1.1 2-2 2.9-0.4 0.5-1.3 1.2-2.5 1.9-0.7 1.4-1.5 2.3-2 2.8-1.5 1.5-3.1 2.2-4.7 2.6-0.6 1.3-1.4 2.5-2.8 3.7-1.4 1.2-3.7 2.6-6.7 2.5-0.5 0.7-1.2 1.4-2 2-1.4 1-2.7 1.6-3.5 2-0.9 2.1-2.4 3.5-3.7 4.4-2.2 1.5-4.4 1.9-6.3 1.8-0.7 1.9-2 3.7-4.3 5-3.7 2.1-7.2 1.5-9.6 0.6-0.3 0.1-0.5 0.1-0.8 0.2-0.2 5.6-4 8-5.8 8.9-1.9 0.9-3.7 1.2-5.3 1-0.3 0.2-0.6 0.3-0.9 0.4-1.3 0.6-3.9 1.3-6.8 0.5-0.7 0.5-1.5 1-2.5 1.4-0.1 0.1-0.3 0.1-0.5 0.2a9.65 9.65 0 0 1-4.7 3.5c-1.9 0.7-6.3 1.6-10.4-2.2-1 5.3-4.7 7.3-7.2 8-1.1 0.3-2.9 0.6-4.9 0.2-1.1 0.9-2.4 1.6-4.1 2-1.7 0.4-5.1 0.8-8.3-1.6-1.1 0.8-2.5 1.5-4.2 1.8-4.9 1-8.4-1.7-10.1-3.4-0.5-0.3-1-0.5-1.4-0.8-0.9 8.6-6.2 10.4-9.3 10.8-4.5 0.5-7.5-1.8-9.4-4.1-0.7-0.1-1.4-0.3-2-0.6-1.6 1.9-3.9 3.3-7.3 3.4h-1.2c-2.9 3.6-6.8 3.9-8.2 3.9-2.1 0-6.6-0.8-9-6.1h-0.1c-0.3 0-0.6-0.1-1-0.1-3 3.5-6.9 3.5-8.7 3.3-7-0.8-8.8-6.9-9.5-10.8-0.1-0.1-0.2-0.2-0.4-0.3-1.7 0.8-4.3 1.6-7.5 0.9-0.3-0.1-0.5-0.1-0.8-0.2-3.7 3.1-7.7 2.4-9.5 1.9-0.8-0.3-2-0.8-3.2-1.7-2.3 1.2-4.6 1.1-6.2 0.8h-0.1c-0.4 0-0.8 0-1.4-0.1-2.8-0.3-4.8-1.5-6.2-3-0.9 3-3 4.7-4.3 5.5-2.4 1.5-4.7 1.8-6.8 1.5-1.2 3.1-3.6 4.6-5 5.3-0.7 0.3-1.5 0.6-2.5 0.8-1.1 1.1-2.3 1.7-3.3 2.2-0.1 0.1-0.3 0.1-0.4 0.2-0.7 0.4-1.6 0.9-2.7 1.3-1.8 0.7-5.8 1.6-9.8-1.5-1 0.8-2.2 1.5-3.7 1.9-3.4 0.9-6 0.2-8.1-1.1-1.3 2.5-3.4 4.7-7.2 5.3-0.2 0-0.4 0.1-0.6 0.1-2.1 1.9-4.4 2.4-5.5 2.6-1.8 0.2-5.4 0.3-8.5-2.8-1.5 2-3.8 3.5-7.4 3.7-2.1 0.1-5.3-0.3-7.8-3.1-1.7 1.6-4.3 3.3-8 3.2-1.4 0-3.3-0.4-5.1-1.5-1.8 1.4-4.4 2.7-7.8 2.3-0.5 0-1.1-0.1-1.8-0.3-1.1-1.3-2.2-1.1-3.1-1.1z m21.1-3.8c0.5 0 1 0 1.5-0.1-0.6 0.1-1.1 0.1-1.5 0.1z m66.3-7z m-119-1.4z m-5.3-4.1z m-159.7-2.5c0.1 0 0.1 0 0 0 0.1 0 0.1 0 0 0z m3.9-3.1c0.6 0.1 1.1 0.2 1.6 0.2-0.7 0-1.3-0.1-1.6-0.2z m291.8-0.3c0.3-0.1 0.6-0.3 0.9-0.5-0.3 0.2-0.6 0.4-0.9 0.5z m119.4-0.1z m-78.2-2.6z m-320.2-0.8z m193-2h0.2-0.2z m88.6-2.8s-0.1 0 0 0c-0.1 0 0 0 0 0z m0 0z m-72-4.5c2.2 0 5.4 0.6 7.8 3.8 1.3-1 2.9-1.7 5-2 1.2-0.1 3.4-0.2 5.6 0.9 1-0.1 1.9-0.2 2.7-0.1 1.2-1 2.7-1.9 4.7-2.3 1.9-0.4 3.6-0.3 5.1 0.2 0.1 0 0.2 0 0.3-0.1 0.1 0 0.2-0.1 0.3-0.1 1.7-3.7 4.9-5.1 6.1-5.5 1.5-0.5 2.9-0.6 4.2-0.5 1.3-2.2 3.2-3.4 4.6-4 1.1-0.5 2.7-1 4.5-0.9 0.6-0.5 1.3-1.1 2.3-1.6s3.3-1.6 6.3-1.1c1-1.9 2.6-3.8 5.3-4.9 1.1-0.4 2.1-0.7 3-0.8 1.2-1.1 2.7-2 4.8-2.5 2.5-0.6 4.6-0.3 6.3 0.5 0.7-0.2 1.4-0.3 2.1-0.3 3.9-0.2 6.5 1.4 8.3 3.5 3.3-2 6.6-1.4 7.9-1 0.1 0 0.2 0 0.3 0.1 1.9-0.7 4-0.8 6.6 0.1 0.9 0.3 2.3 0.9 3.5 2.1 0.3 0.1 0.7 0.1 0.9 0.2 2.6 0.7 4.3 2.2 5.5 3.8 1.7-0.9 4-1.6 6.8-1.1 2.9 0.5 4.9 1.9 6.2 3.6 0.3-0.1 0.6-0.1 0.8-0.2 1.2-0.5 3.2-1.1 5.6-0.9 2.4 0.2 4.3 1 5.6 2.2 0.6 0 1.3-0.1 2.2-0.1 2 0.1 5 0.7 7.3 3.5 1.2-1 2.7-1.8 4.6-2.1 1.5-1.6 3.7-2.9 6.7-3.1 0.8 0 2.3 0 4.1 0.6 2-2.3 4.5-3 6.3-3.3 2.7-0.3 4.8 0.3 6.5 1.4 0.5-0.1 1.1-0.3 1.8-0.4 2.5-0.4 4.6 0.1 6.3 1 0.4-0.3 0.8-0.6 1.2-0.8 0.7-0.7 1.8-1.6 3.4-2.3 1-0.7 2.6-1.8 4.7-2.3 1.1-0.3 2.6-0.4 4.2-0.1 1.4-1.1 2.8-1.6 3.6-1.8 0.5-0.1 1.1-0.3 1.8-0.3 1.1-0.8 2.3-1.3 3.2-1.6 0.3-0.1 0.7-0.2 1-0.2 1-0.9 2.2-1.7 3.9-2.2 2.5-0.8 4.6-0.7 6.5 0 0.5-0.1 1.1-0.2 1.7-0.3 0.9-0.7 1.9-1.1 2.6-1.4 1.1-0.4 2.9-0.9 5.1-0.6 0.7-0.6 1.6-1.2 2.7-1.6 1.5-0.6 4.3-1.4 7.6-0.1 0.3-0.4 0.7-0.7 1.1-1 0.6-2.5 2-5.1 5.3-6.8 1.6-0.8 6.9-2.9 12.3 2.1 0.4-0.5 0.9-1 1.4-1.5-2.1-6.7 1.3-10.4 3.6-12.1 1.2-0.8 3-1.7 5.1-1.9 0.9-2.2 2.3-3.6 3-4.2 2-1.6 5.7-3.6 10.6-1.3 0.6-1.7 1.6-2.9 2.3-3.6 0.8-0.8 2.2-2 4.3-2.6-0.9-2.8-0.9-6.1 1.7-9.3 0.9-1.1 1.7-1.8 2.2-2.3 0.9-1.1 1.9-1.9 2.6-2.4 1.4-1.5 3.1-2.4 4.7-2.8-0.2-1.7 0-4.1 1.4-6.7 0.7-1.2 1.5-2.2 2.4-2.9 0.1-1.7 0.6-3 1-3.9 0.6-1.2 1.3-2.2 2.1-3 0.1-0.5 0.3-0.9 0.5-1.4 0 0 0-0.1 0.1-0.1-1.8-3.1-1.4-6.2-0.7-8.1 0.2-0.6 0.5-1.3 0.9-2.1 0-1 0.2-1.9 0.4-2.6 0.4-1.5 2.1-6 7.9-7.3-2.7-1.9-5-4.8-4.6-9.5 0.4-4 2.5-6.3 4.9-7.8-0.7-1.2-1.1-2.7-1.1-4.5-0.1-2.2 0.5-4 1.3-5.5-2-1.4-3.8-3.5-4.3-6.9-0.1-0.7-0.2-1.8 0-3.1-0.8-1-1.3-2.1-1.7-3-0.4-0.7-0.9-1.7-1.3-3-1.3-1.2-2.2-2.7-2.7-4.5-0.9-3-1.2-8.6 6.4-12.8 0.1 0 0.2-0.1 0.3-0.1 0-0.6 0.1-1.1 0.2-1.6 0-2.5 0.9-4.9 2.6-6.8 0.7-0.8 1.5-1.4 2.3-2 1-1.5 2.4-2.9 4.6-3.8 0.1 0 0.1-0.1 0.2-0.1 0.3-1.8 1-3.5 2.4-5 0-3.3 1-7.2 5.4-9.5 2.2-1.2 6.1-2.4 10.4 0.6 0.7-3.7 3.1-5.7 4.2-6.5l0.3-0.3c0.4-0.4 1-0.9 1.8-1.5 0.6-0.4 1.2-0.8 1.9-1.1 0.4-0.5 0.9-1.1 1.4-1.6 0.6-2.7 2.2-4.5 3.5-5.6 1-0.8 3.9-2.8 7.9-2.1 0.4-1.7 1.3-3.5 2.9-5.1 0.5-0.4 1.1-1 2-1.5 0.5-1 1.1-1.7 1.6-2.2 1.9-2 4.1-2.9 6.1-3.1-0.1-3.2 1.3-5.5 2.2-6.7 1.9-2.3 4.2-3.3 5.7-3.8 0.1 0 0.2-0.1 0.2-0.1-0.2-2.6 0.7-4.8 1.6-6.2 1.4-2.2 3.2-3.4 4.9-4.1 0.4-0.6 0.9-1.1 1.3-1.5 0.2-0.7 0.5-1.3 0.8-2 0.1-0.1 0.1-0.2 0.2-0.3-1.5-3.6-0.4-6.7 0.1-7.9 1.4-3.3 4-4.9 5.7-5.7 0.8-0.7 1.8-1.2 3-1.6 0-0.8 0.2-1.7 0.5-2.6 0.4-1.3 0.9-2.3 1.5-3.2-0.2-1.1-0.2-2.6 0.1-4.3 0.1-0.4 0.2-1 0.5-1.6-0.8-1.6-1.4-3.7-1.1-6.1 0.4-3.6 2.1-5.8 4.3-7.2 0.1-0.4 0.3-0.8 0.5-1.2-5.6-2.3-6.4-7.1-6.5-8.8-0.2-2 0.2-3.7 0.9-5.1-3.6-2.2-4.3-5.3-4.5-6.5-0.8-3.8 0.4-6.6 2.2-8.6-1.9-1-4-2.8-5.1-5.9-0.6-1.7-0.7-3.3-0.5-4.8-2-1.2-3.1-3-3.7-4.4-0.3-0.6-0.6-1.5-0.8-2.5-0.6-0.8-1.1-1.5-1.4-2.1-1.2-2.4-2.2-6.7 1.6-11.2-0.3-2.9 0.8-5.4 1.9-7.2l-0.1-0.1c-3.2 0.5-7.8 0.3-10.9-4.2-2.7-3.9-2-7.7-0.9-10.4-2.7-1-4.3-2.9-5.1-4.1-2-0.9-4.3-2.4-5.7-5.4-1.1-2.4-1.1-4.8-0.7-6.6-1.9-1-3.5-2.7-4.4-5.4-0.1-0.2-0.1-0.3-0.2-0.5-1.6-1.1-2.9-2.8-3.7-5.2-0.6-2-0.6-3.7-0.5-4.7-0.3-2.5 0.1-6.4 4.4-9.7-0.2-1.6-0.1-3 0.3-4.3-1.3-1.1-2.4-2.6-3-4.6-0.1-0.2-0.2-0.3-0.3-0.5-7.8-1.3-9.4-6.4-9.6-9.5-0.2-2.2 0.3-4 1.1-5.5 0-0.2 0-0.5-0.1-0.7 0-1.3 0.1-2.4 0.4-3.4-0.7-1.2-1.2-2.7-1.4-4.4-0.2-2.1 0.2-3.8 0.6-4.9 0-0.3 0.1-0.6 0.1-0.9-2.7-1.8-3.7-4.3-4.1-6.2-1-4.4 1.1-7.7 2.4-9.4 0.1-0.3 0.3-0.6 0.4-0.8-0.7-0.9-1.3-2-1.8-3.4-0.2-0.7-0.5-1.6-0.5-2.8-0.5-0.7-0.8-1.4-1.1-2-2.1-1.4-3.2-3.4-3.7-4.6-2.3-5.6 0.9-10 2.6-12 0.5-1.1 1.2-2.1 2-3l-0.1-0.1c-7.6 2.2-11.3-1.6-12.9-4.2-0.9-1.5-1.4-3-1.5-4.4-3 0.2-6.3-0.6-8.9-4.1a9.64 9.64 0 0 1-2-6.6c-2.9-0.4-4.9-2-6.1-3.3-2.5-2.9-2.9-5.8-2.4-8.5-1.6-0.4-3.2-1.2-4.8-2.7-0.8-0.8-2-2.3-2.7-4.3-1.8-0.2-3.6-0.9-5.4-2.5-1.4-1.2-3.9-4.1-3.4-8.8-4.1 1.1-7.2-0.6-8.7-1.7-2.2-1.6-3.2-3.6-3.8-5-0.4-0.5-0.7-1.1-0.9-1.7-1.8 0-3.7-0.4-5.7-1.7-3.5-2.3-4.5-5.5-4.7-8.2-1.4 0-2.5-0.2-3.5-0.5-1-0.1-2.7-0.5-4.5-1.4-2.4-1.3-3.8-3-4.5-4.8-5.1 5.6-10.6 3.8-12.3 3.1-5.4-2.4-6.3-7.1-6.2-10.9l-0.5-0.5c-0.4-0.3-0.8-0.6-1.1-0.9-2.4 2.9-5.9 5.3-11.1 3.8-1.5-0.4-3.4-1.3-5-3.1-3.1 2.2-6.4 1.9-7.7 1.6-2.7-0.5-4.6-1.9-5.8-3.1-0.4 0-0.8 0-1.2-0.1-3.3-0.4-5.5-2.1-6.9-4-2.5 3.4-6 3.9-7.8 4-3.2 0.1-5.5-1-7.1-2.7-1.2 0.6-2.3 0.8-3.1 0.9-1.1 0.1-3.1 0.2-5.1-0.6-1.8 1.9-3.9 2.6-5.1 2.9-0.3 0.1-0.6 0.1-0.9 0.2-1.6 3-4.3 4.3-5.7 4.7l-0.4 0.1c-2 0.6-8.8 0.5-11.3-0.4-2-0.8-8.2-3.9-6.2-13.2-2.1-1-5.2-3-6.4-6.9-1.8-0.8-3.5-2.2-4.8-4.5-1.6-2.9-1.5-5.5-0.8-7.8-0.8-1.1-1.2-2.1-1.5-2.8-0.7-1.1-1.1-2.2-1.4-3.2-2.7 0.6-5.7 0.2-8.6-2.3-0.2-0.2-0.5-0.4-0.8-0.7-3.3 0.2-5.8-1.3-6.7-2-1.1-0.8-2.4-2.1-3.2-3.9h-0.1c-2.2 0-4.1-0.8-5.3-1.6-4.3-2.7-4.9-7-5-9.7-0.4-0.2-0.9-0.4-1.3-0.6-0.4-0.2-0.7-0.4-1-0.7-2.2 0.7-4.7 0.7-7.5-0.7-2.5-1.2-3.9-3-4.8-4.9-2.2 0.9-4.9 1.2-7.9-0.1-2.1-0.9-3.5-2.2-4.5-3.7-0.8-0.1-1.7-0.3-2.6-0.7-1.9-0.8-3.3-1.8-4.3-3.1-2.6 0.8-5 0.3-6.2-0.2-1.6-0.5-2.8-1.4-3.7-2.1l-1.2-0.3c-2.3 1.8-5.3 3-9.3 1.8-2.4-0.7-4.1-2-5.2-3.5-0.7 0-1.5-0.1-2.3-0.4-2.9-0.8-4.7-2.3-5.8-4.2-0.9 0.2-1.9 0.3-3 0.2-1.9 1.1-4.4 1.8-7.4 1.2-1.5-0.3-2.7-0.9-3.7-1.6-0.5 0-1-0.1-1.5-0.2-1.8-0.3-3.1-1-3.9-1.4-1-0.3-2.2-0.9-3.3-1.8-0.2 0-0.4-0.1-0.6-0.1-0.2 0-0.5-0.1-0.8-0.2-1.1 0.4-2.1 0.5-3.1 0.5-1 0.2-2.6 0.5-4.6 0.2-4.2-0.6-6.6-3.3-7.9-5.5-2.7 3.2-6.1 3.5-8.4 3.4-1.1-0.1-2.8-0.4-4.5-1.5-1.6 1.2-3.7 2-6.3 1.9-1.6-0.1-2.9-0.4-3.7-0.7-3-0.3-5-1.7-6.4-3.5-0.4 0.1-0.8 0.3-1.2 0.3-1.6 1.9-3.9 3.4-7.4 3.6-3.8 0.1-6.4-1.6-8.1-3.6-0.9 0.3-1.8 0.5-2.9 0.6-3.4 0.2-6-1.1-7.5-2.2-0.9-0.4-1.7-0.9-2.4-1.4-0.1 0-0.1 0-0.2 0.1-1.4 1.6-3.5 3-6.4 3.4-1.6 0.2-3 0.1-4.2-0.3-1.2 1.3-3.3 3-6.4 3.5-1.4 0.2-2.7 0.2-3.6 0.1-1.8 3.1-4.7 4.2-6.7 4.6-1.4 0.3-5.1 0.6-8.4-2.2-1.9 0-3.4-0.5-4.8-1.3-0.2 0.2-0.4 0.3-0.7 0.5-0.8 2.9-2.8 6.4-7.4 7.7-1.3 0.3-3.6 0.7-6.1-0.2-0.6 0.4-1.4 0.7-2.2 0.9-2.6 0.8-4.8 0.5-6.6-0.2-0.5 0.3-1.2 0.6-1.8 0.8-1.1 0.4-3.9 1-7-0.2-0.5 0.3-1 0.5-1.6 0.7s-1.1 0.4-1.6 0.5c-0.2 5.8-3.8 8.3-6.3 9.3-1.8 0.7-4.6 1.3-7.6 0-0.3 0.2-0.6 0.3-1 0.5-4.1 1.8-7.4 0.8-10-1-0.2 0-0.5 0.1-0.7 0.1-0.4 0.3-0.9 0.6-1.4 0.9-0.3 0.1-0.5 0.3-0.8 0.4 0.8 4 0.6 9-4.7 12.1-2 1.2-5.5 2.4-9.5 0.3-0.2 0.1-0.5 0.3-0.7 0.4-0.5 2.1-1.6 4.2-4 6-1.3 0.9-3.8 2.3-7.2 1.8h-0.1c0.5 2.9 0.1 6.4-3.1 9.4-0.4 0.4-0.9 0.8-1.6 1.2-0.5 0.9-1.1 1.7-1.7 2.3-0.1 0.1-0.1 0.2-0.2 0.2-0.4 1.6-1.3 2.9-2.2 3.9-2.4 2.7-5.3 3.5-7.2 3.8-0.2 0.1-0.3 0.1-0.5 0.2 0.6 5.2-2.5 8.3-3.7 9.2-1.3 1.1-2.7 1.7-4 2-0.8 1.1-1.8 2-3.3 2.8-1.1 0.6-4.2 2-8 0.8-0.3 0.1-0.5 0.2-0.8 0.3-4.5 1.6-8 0-10.4-2.1-1.5 2-4.8 5.7-10.3 5.2-4.1-0.4-6.5-2.6-7.9-5.1-2.3 4.1-6.1 4.9-8 5-0.9 0.1-2.7 0.1-4.8-0.8-1.3 1.1-2.9 2-5.1 2.4-1.9 0.3-3.5 0.1-5-0.3-0.4 0.2-0.8 0.4-1.1 0.5-1.5 2.4-3.7 3.6-5.8 4.1-2.9 0.8-7.9 1-11.8-5.4-0.2 0.1-0.5 0.2-0.7 0.3-1 0.3-1.9 0.5-2.8 0.6-0.4 0.5-0.8 1-1.4 1.5-0.9 1.2-2.4 3-5 4.1-0.8 0.3-1.5 0.5-2.2 0.7-0.7 0.6-1.6 1.2-2.6 1.6-0.8 0.4-1.7 0.6-2.4 0.8-1.3 2.3-3.3 3.5-4.2 3.9-1.7 0.9-3.4 1.2-4.9 1.1-0.1 3.4-1.6 5.6-3 7-0.6 0.9-1.8 2.4-3.7 3.6-3 1.9-6 1.8-8.3 1.1-0.6 0.7-1.3 1.4-2.2 2-1.2 0.8-2.4 1.3-3.6 1.6-0.5 3.3-2.6 5.3-3.8 6.3-0.5 0.4-1 0.7-1.5 1.1-0.2 0.1-0.4 0.3-0.6 0.4-5.3 4.2-10.9 1.4-13.2 0.2-0.4-0.1-0.9-0.2-1.3-0.4-0.3 0.2-0.6 0.5-0.9 0.7-0.5 1.2-1.3 2.3-2.5 3.4-0.7 0.6-1.4 1.1-2.1 1.5-0.4 0.8-1 1.6-1.8 2.3-0.8 0.8-1.7 1.4-2.6 1.9 0.1 0.1 0.2 0.2 0.2 0.3 5.1 7.1 1.8 12.2 0.1 14.1-2.4 2.7-5.2 3.5-7.8 3.4l-0.1 0.1c-0.9 1.1-3.5 3.8-7.9 3.8 0 1.4-0.4 3-1.2 4.5 2.7 4.2 1.8 7.9 0.3 10.5-1 1.7-2.2 2.8-3.5 3.6 0.2 1.7 0 3.6-1 5.6-0.7 1.5-3.3 5.7-9.4 5.8v1.1c3 3.6 2.5 7.3 1.8 9.5-0.6 2-1.7 3.4-2.8 4.5v0.1c-1.6 5.6-6.3 7.1-9.5 7.7-1.3 1.6-2.9 2.6-4.3 3.2v0.1c0.5 0.1 1 0.3 1.5 0.4 8.5 2.5 9.1 8.5 8.9 11-0.1 1-0.2 2.2-0.7 3.4 0.6 1.3 0.8 2.6 0.8 3.6 0.1 2.4-0.5 4.3-1.1 5.5-0.2 1-0.6 1.9-1 2.7 2.5 1 4.3 2.7 5.4 5.2 1.3 2.7 1.8 6.6-1.4 10.6 8.7 0.5 10.3 7.1 10.6 8.5 0.3 1.5 0.6 5.5-2.7 8.7 0.4 0.9 0.6 1.7 0.8 2.5 0.8 1.7 1.8 4.8 0.7 8.5-1.6 5-5.4 6.7-9.1 7.1-0.1 2.2-0.9 4.1-2.4 5.8-1.1 1.4-2.4 2.2-3.2 2.7-1.7 1.6-3.5 2.4-5.3 2.6-0.7 0.7-1.4 1.3-2.2 1.7 1.8 2.8 3.1 6.6 0.8 10.9 0.2 1.9-0.1 3.9-1.4 6.1-0.8 1.3-2.5 3.6-5.6 4.6-0.1 0.3-0.3 0.7-0.5 1-0.4 0.8-1.5 2.5-3.5 3.9 0.3 1.7 0.2 3.6-0.7 5.7-0.4 0.9-1.1 2.2-2.3 3.4 1.1 2.6 0.7 5.1 0.1 6.8-0.4 1.1-0.8 2-1.4 2.8-0.1 0.6-0.2 1.3-0.4 1.9-0.9 3.1-2.6 5-4.7 6.1 3 2.7 3.5 6 3.1 8.7-0.4 3.3-2.1 5.5-4 6.9 0.7 1.4 1.3 3 1.3 5 0 4.8-2.7 7.6-5.6 9.2 0.1 0.4 0.2 0.8 0.2 1.2 3.7 1.9 4.8 5.2 5.2 6.9 0.4 1.8 0.2 3.4-0.1 4.7 0 0.1 0.1 0.3 0.1 0.4 0.1 0.4 0.2 1 0.3 1.7 0.9 1.1 1.3 2.3 1.6 3.1 0.8 2.4 0.6 4.5 0.3 5.9v1.5c0.6 0.4 1.3 1 2 1.7 4.5 0.2 7 2.8 8.3 5.4 1.2 2.2 2.3 6.1-0.6 10.3 0.9 0.6 1.7 1.3 2.5 2.3 2.8-0.2 6.3 0.5 9 3.8l0.1 0.1c0.4 0.4 1.1 1.1 1.8 1.9 1.7 2.1 2.2 4.2 2.3 6.1 2.8 0.1 4.9 1.5 6.4 3.1 1.3 1.3 2.1 2.7 2.5 4.1 1 0.5 1.9 1.2 2.5 1.8 1.4 1.3 2.3 2.7 2.7 4.1l0.3 0.3c2.3 2 3.2 4.4 3.6 6.1 0.1 0.1 0.1 0.2 0.2 0.3 1.8 0 4 0.5 6.1 2.1 3.6 2.6 4.3 6.2 4.2 9.2 0.8 0.3 1.5 0.7 2.3 1.3 0.6 0.5 1.2 0.9 1.7 1.3 0.6 0.2 1.3 0.5 2.1 0.9 5.3-1.7 8.9 1 10.3 2.5 3.8 3.8 3.2 8.2 2 11.5 0.1 0.1 0.1 0.2 0.2 0.2 0.2 0.3 0.5 0.7 0.7 1 5.4-1.4 8.8 1.3 10.4 3.3 0.7 0.9 2.4 3.3 2.3 6.7 0.8 0.6 1.5 1.4 2.1 2.3 3.6 0.9 5.5 3.5 6.4 5.5 0.5 1.1 1.6 4.1 0.4 7.5 0.1 0.2 0.1 0.4 0.2 0.5 0 0.1 0.1 0.3 0.1 0.4 1.8 1.3 3.4 3.3 4 6.3 1.1 5.6-2.4 9.2-4.3 10.8-0.3 0.5-0.6 1-1 1.4 1.7 1.3 3.1 3.2 3.5 5.8 1.4 1.5 2.7 3.7 2.9 6.8 0.1 1.3-0.1 5-3.2 7.9 0.3 0.7 0.5 1.4 0.6 2.2 0.1 0.6 0.1 1.2 0.1 1.7 1.3 1.2 2.4 2.9 3 5.2 0.3 1.1 0.3 2.2 0.3 3.2 2.8 1.6 4.1 4.1 4.6 5.6 0.6 1.7 0.9 3.7 0.3 5.8 0.3 0.5 0.6 1 0.8 1.6 0.2 0.5 0.6 1.5 0.7 2.8 1 0.8 2.1 2 2.9 3.6 0 0.1 0.1 0.1 0.1 0.2 1.9 1.2 2.8 2.8 3.3 3.6 1.4 2.4 2.8 6.9-1.4 12 0.1 1.3 0 2.5-0.3 3.6 0.1 0.1 0.2 0.3 0.4 0.5 0.5 0.7 0.9 1.4 1.2 1.9 1.7 0.5 3.5 1.5 5 3.3 0.2 0.2 0.4 0.5 0.5 0.7 2.8-0.8 7.4-1.4 11.3 2.4 2.4 2.4 3.1 5 3 7.4 2.7-0.7 5.8-0.6 8.9 1.8 3.3 2.6 4 6 4 8.7 2.3-0.6 5-0.5 7.8 1.3 0.7 0.4 1.3 0.9 1.8 1.4 0.9 0.2 1.8 0.6 2.8 1.2 0.7 0.4 2.1 1.3 3.2 2.9 1.1 0.1 2.3 0.5 3.6 1.1 2.6 1.4 4.1 3.4 4.8 4.8 1.2 1.4 1.9 2.9 2.4 4.2 4-2.9 7.9-1.9 9.7-1.2 1.4 0.6 3.8 1.9 5.2 4.8 2.9-1.4 5.6-1 7.4-0.4 5.3 1.8 6.7 6.3 7.2 9.2 1.3 0.6 2.3 1.3 3.2 2.2 1-0.1 2.1 0 3.3 0.3 1.4 0.4 2.5 0.9 3.5 1.6 2.1-3.7 5.5-7.4 11.6-6.3 1.8 0.4 3.3 1.1 4.5 2 0.2 0 0.4 0.1 0.6 0.1 3.5 0.6 5.8 2.7 7 4.3 0.1 0 0.1 0.1 0.1 0.1 0.8 0.3 1.5 0.7 2.2 1.1 3-4.8 7.4-5 9.5-4.9 0.6 0 1.1 0.1 1.7 0.1l1 0.1c1.1 0.1 2.1 0.3 3 0.6 1.9-1 3.8-1.1 4.9-1.1 1 0 2.2 0.2 3.5 0.6 0.6-0.1 1.3-0.1 1.8-0.2 0.7 0 1.4 0.1 2.1 0.2 0.9-0.3 2-0.5 3.1-0.6 1.8-0.1 3.2 0.3 4.1 0.5 0.7 0.1 1.5 0.2 2.4 0.5 0.5-0.1 1-0.2 1.4-0.2 1.1-0.1 2.6-0.1 4.1 0.4 0.4-0.1 0.8-0.2 1.2-0.2 1.2-0.1 3.3-0.2 5.5 0.9 1.5-0.2 3.6-0.2 5.8 0.8 1.1-0.9 2.5-1.7 4.4-2.2 1.3-0.3 2.4-0.4 3-0.4h0.1c1.6-0.3 4.2-0.5 6.8 0.9 0.3-0.1 0.6-0.3 0.9-0.4 0.8-0.3 1.5-0.4 2.1-0.5 0.8-5.9 5.2-8 6.8-8.5 2.1-0.7 4-0.7 5.2-0.7 3.2-0.5 5.9 0.6 7.4 1.4 0.4 0.1 0.7 0.2 1 0.3 1.8-3 4.8-5.8 9.9-5.3 0.6 0.1 1.5 0.2 2.6 0.6 2.5-0.8 4.7-0.5 5.7-0.3 5.4 1.3 7.2 5.3 7.8 9 0.4 0.1 0.9 0.3 1.3 0.5 0.9 0.4 1.7 1 2.3 1.5 0.6-0.1 1.2-0.2 1.8-0.2 2-0.6 5.4-1.1 9 0.9 1.3 0.8 3.5 2.4 4.5 5.5 0.2 0.1 0.5 0.2 0.7 0.3 2.7 1.3 4.2 3.2 5.1 5.1 2.2-1.8 5.6-3.5 10-2.2 3.9 1.2 5.8 3.8 6.7 6.5 0.7 0.2 1.7 0.6 2.7 1.2 3.1-2.4 6.5-2.2 7.8-2 1.1 0.2 2.4 0.5 3.7 1.3 0.5 0 1 0 1.5 0.1 0.7 0.1 1.6 0.3 2.6 0.6 1.8-2.1 4.3-3.7 8.2-3.5 1.7 0.1 4.1 0.6 6.1 2.4 0.4 0 0.7-0.1 1.1-0.1 1.4-1.1 3.3-1.9 5.7-1.9 0.2 0.6 0.4 0.6 0.5 0.6z m-59 0.2zM329 829c0.1 0 0.1 0 0 0 0.1 0 0.1 0 0 0z m386.1-0.3s-0.1 0 0 0c-0.1 0 0 0 0 0z m0 0z m-324.5-0.6z m260.4-1.8z m-0.1 0z m-187.8-0.8c0.1 0 0.1 0.1 0.2 0.1 0-0.1-0.1-0.1-0.2-0.1z m131.7 0c0.4-0.2 0.7-0.4 0.9-0.5-0.3 0.1-0.6 0.3-0.9 0.5z m130.1-2.7z m83-1.5c-0.1 0 0 0 0 0z m-516.3-0.2z m138-0.7c1.1-0.2 1.9-0.2 2.3-0.2-0.8 0-1.6 0-2.3 0.2z m386.8-3.5z m-399.8-0.2c0 0.1 0 0.1 0 0 0 0.1 0 0.1 0 0z m367.9-6.1c0 0.1 0 0.1 0 0 0 0.1 0 0.1 0 0z m-521.9-4.5s0.1 0 0.1 0.1l-0.1-0.1z m528.4-0.7z m-588.2-13.3l0.1 0.1c-0.1 0-0.1-0.1-0.1-0.1z m28.6-1.4zM220.9 779z m0 0z m627.9-0.8z m5.7-3.9z m8.1-24.2c0 0.1 0 0.1 0 0 0 0.1 0 0.1 0 0z m-659.3-2.8l0.3 0.6-0.3-0.6zM849.4 712z m0 0z m-0.4-20.8z m-657.3-1.8c0.1 0.4 0.1 1 0.1 1.7 0-0.5 0-1.1-0.1-1.7z m680.6-11z m-0.1-0.3c0 0.1 0 0.2 0.1 0.2 0 0 0-0.1-0.1-0.2z m-2-9z m8.9-16.9l5.1 8.6-5.1-8.6z m5.1 8.6s-0.1 0 0 0c-0.1 0 0 0 0 0z m-761.3-16.2c0.1 0 0.1 0 0 0 0.1 0 0.1 0 0 0z m-24.4-21.9l0.9 1.2c-0.2-0.2-0.6-0.6-0.9-1.2z m37.8-3.7s0 0.1 0 0c0 0.1 0 0 0 0z m800.4-11zM79 599.6s0 0.1 0 0c0 0.1 0 0 0 0z m32.5-3.9z m0-0.1z m5.3-0.7z m835.3-21.3c0 0.1 0 0.1 0 0z m-857.4-4.2z m-0.1 0c0.1 0 0.1 0 0 0 0.1 0 0.1 0 0 0z m840.2-12.5zM91.3 526.7v0z m0-0.1z m0 0z m844.8-0.1z m0-0.1z m0 0z m0 0z m0 0z m0-0.1z m0 0z m-2.5-7.1z m0 0z m22.6-1.2v0.2c0.1-0.1 0.1-0.1 0-0.2z m-27.6-13.2z m31.4-7z m-10.2-9.6z m-0.1-0.1z m-32-22.3z m26.2-2.5z m-30.1-2.1z m0 0z m25-2.2s0 0.1 0 0c0 0.1 0 0 0 0z m-26.1-0.8z m-821.5-0.9z m0.3-3.5z m0 0z m31.4-3.3z m-30.7 0z m0 0z m837.5-2.9z m0 0z m0.9-3.6z m-29.5-1.5s0 0.1 0 0c0 0.1 0 0 0 0z m-767.2-4.9c-0.1 0.9-0.3 1.6-0.4 1.9 0.2-0.7 0.3-1.3 0.4-1.9z m788.8-10.1z m-31.9-1.9z m0 0z m-768.5-21.7z m0-0.1z m-2.3-1.4c0 0.1 0 0.1 0 0 0 0.1 0 0.1 0 0z m-8.3-22.3v0.1c-0.1 0-0.1-0.1 0-0.1z m0 0z m771.4-1.2z m-792.4-3.8z m0-0.1s0 0.1 0 0c0 0.1 0 0 0 0z m820.8-5.9v0z m-792.4-4.3s0 0.1 0 0c0 0.1 0 0 0 0z m-23.7-2.4c0 0.1 0 0.1 0 0 0 0.1 0 0.1 0 0z m6-5z m776.2-14.9z m-770-6z m30.4-4.3z m731.2-9.8z m-5.7-5.8s0 0.1 0 0c0 0.1 0 0 0 0z m-11.6-14.7z m29.7-6.1c0 0.1 0.1 0.1 0 0 0.1 0.1 0 0.1 0 0z m-33.8-1.2z m-690.2-1.1z m652.6-26.3c0.1 0 0.1 0 0 0 0.1 0 0.1 0 0 0z m-639.6-12.1z m576.6-6.7z m-485.7-3.3h-0.2 0.2z m27.7-1.6c1 0 1.9-0.1 2.7-0.4-1.3 0.4-2.3 0.4-2.7 0.4z m-95.5-2.9z m106.4-1.1z m0.1 0c-0.1 0-0.1 0 0 0-0.1 0-0.1 0 0 0z m503.4-1.3z m0 0z m-5.5-2.4z m-594.3-2.3c-0.1 0-0.2 0.1-0.3 0.1 0.1 0 0.2-0.1 0.3-0.1z m0 0z m579.8-2.1c0.1 0 0 0 0 0z m-25.7-9.5z m-2-0.2c0.8 0 1.5 0.1 2 0.2-0.7-0.1-1.4-0.2-2-0.2zM293 219.5z m0.1 0s-0.1 0 0 0c-0.1 0 0 0 0 0z m376.7-1.4zM282.9 214h0.4-0.4z m388.2-0.3z m-309.6-23.6z m2-2z m188.6-19.2z m-100.5-3.8c-0.1 0-0.1 0 0 0-0.1 0-0.1 0 0 0z m57.1-0.1s0.1 0 0 0c0.1 0 0 0 0 0z m-51.8-1.8c-0.1 0-0.1 0 0 0-0.1 0-0.1 0 0 0z m57.5-2.9s0.1 0 0 0c0.1 0 0 0 0 0z m0 0z m79.8-7z m-211.5-0.1z m11.5-3.8z m54-4z m5.6-2z m61.5-3.1z m0 0z m-26.4-0.1z m11.7-1.6z m2.9-1.9c0.1 0 0.1 0 0 0 0.1 0 0.1 0 0 0z m-32.9-2.2z m60.4-1.9c0.1 0 0.1 0 0 0 0.1 0 0.1 0 0 0z m-9.1-0.6z" p-id="1205"></path><path d="M237.5 555.5a274.5 213.4 0 1 0 549 0 274.5 213.4 0 1 0-549 0Z" fill="#FCE3C5" p-id="1206"></path><path d="M512 778.9c-75.5 0-146.6-22.9-200.2-64.6-54.3-42.2-84.3-98.6-84.3-158.8 0-60.2 29.9-116.5 84.3-158.8 53.6-41.7 124.7-64.6 200.2-64.6s146.6 22.9 200.2 64.6c54.3 42.2 84.3 98.6 84.3 158.8 0 60.2-29.9 116.5-84.3 158.8-53.6 41.7-124.7 64.6-200.2 64.6z m0-426.8c-145.8 0-264.5 91.2-264.5 203.4S366.2 758.9 512 758.9s264.5-91.2 264.5-203.4S657.8 352.1 512 352.1z" p-id="1207"></path><path d="M399.1 526.2m-29.3 0a29.3 29.3 0 1 0 58.6 0 29.3 29.3 0 1 0-58.6 0Z" p-id="1208"></path><path d="M628.4 526.2m-29.3 0a29.3 29.3 0 1 0 58.6 0 29.3 29.3 0 1 0-58.6 0Z" p-id="1209"></path><path d="M478.4 562.1a31 13.8 0 1 0 62 0 31 13.8 0 1 0-62 0Z" p-id="1210"></path><path d="M212 316.1c24.5-21.4 62.6-17.8 85.3 8.1 22.7 25.9 9.5 50.9-14.9 72.3-24.5 21.4-51 31.1-73.7 5.2-22.7-25.9-21.2-64.2 3.3-85.6z" fill="#FCE3C5" p-id="1211"></path><path d="M239.4 427.2c-11.1 0-25-4-38.2-19-13.2-15-19.7-34-18.4-53.4 1.2-18.1 9.3-34.6 22.7-46.3 28.6-25 73.2-20.9 99.4 9 16.1 18.4 15.6 35.8 12.3 47.2-3.8 13.1-13 25.9-28.1 39.2-15.2 13.3-29.1 20.7-42.6 22.7-2.3 0.4-4.7 0.6-7.1 0.6z m10.2-115c-11.2 0-22.2 3.7-31 11.4-9.4 8.2-15 19.7-15.9 32.6-0.9 14.1 3.9 27.9 13.5 38.9 5.6 6.4 12.7 12.2 23 12.2 9.3 0 21.1-4.8 36.6-18.3 32.5-28.5 24.6-46.1 14-58.2-10.8-12.3-25.6-18.6-40.2-18.6z" p-id="1212"></path><path d="M825.3 321.2c-24.5-21.4-62.6-17.8-85.3 8.1s-9.5 50.9 14.9 72.3c24.5 21.4 51 31.1 73.7 5.2 22.7-25.8 21.2-64.2-3.3-85.6z" fill="#FCE3C5" p-id="1213"></path><path d="M797.9 432.4c-2.5 0-4.8-0.2-7-0.5-13.5-2-27.4-9.4-42.6-22.7-15.2-13.3-24.4-26.1-28.1-39.2-3.3-11.4-3.8-28.8 12.3-47.2 26.2-29.9 70.8-34 99.4-9 13.4 11.7 21.5 28.2 22.7 46.4 1.3 19.4-5.3 38.4-18.4 53.3-13.2 14.9-27.2 18.9-38.3 18.9z m-10.2-115.1c-14.6 0-29.5 6.3-40.2 18.6-10.6 12.1-18.6 29.6 14 58.2 32.6 28.5 49 18.2 59.6 6.1 9.6-11 14.4-24.7 13.5-38.8-0.8-12.8-6.5-24.4-15.9-32.6-8.8-7.8-19.8-11.5-31-11.5z" p-id="1214"></path></svg>