<?xml version="1.0" standalone="no"?><!DOCTYPE svg PUBLIC "-//W3C//DTD SVG 1.1//EN" "http://www.w3.org/Graphics/SVG/1.1/DTD/svg11.dtd"><svg t="1639963725842" class="icon" viewBox="0 0 1043 1024" version="1.1" xmlns="http://www.w3.org/2000/svg" p-id="3660" xmlns:xlink="http://www.w3.org/1999/xlink" width="1043" height="1024"><defs><style type="text/css"></style></defs><path d="M529.157319 518.68271m-469.355419 0a469.355419 469.355419 0 1 0 938.710838 0 469.355419 469.355419 0 1 0-938.710838 0Z" fill="#A9EBD5" p-id="3661"></path><path d="M519.722424 33.715273c-259.7287 0-470.285045 210.556346-470.285045 470.285046 0 259.732777 210.556346 470.289123 470.285045 470.289122 259.732777 0 470.289123-210.556346 470.289123-470.289122 0-259.7287-210.556346-470.285045-470.289123-470.285046z m-14.270583 899.931546c-244.369474 0-442.473716-198.108319-442.473717-442.473717S261.090521 48.699386 505.451841 48.699386c244.377629 0 442.473716 198.104242 442.473716 442.473716s-198.096088 442.473716-442.473716 442.473717z" fill="#8ED1BA" p-id="3662"></path><path d="M527.881121 319.612146m-55.84691 0a55.84691 55.84691 0 1 0 111.69382 0 55.84691 55.84691 0 1 0-111.69382 0Z" fill="#FFFFFF" p-id="3663"></path><path d="M527.881121 391.768294c-39.786387 0-72.156148-32.365684-72.156148-72.152071 0-39.786387 32.369761-72.156148 72.156148-72.156148 39.790465 0 72.156148 32.369761 72.156148 72.156148 0 39.78231-32.365684 72.152071-72.156148 72.152071z m0-111.693819c-21.801374 0-39.537671 17.736297-39.537671 39.537671 0 21.801374 17.736297 39.533594 39.537671 39.533594 21.801374 0 39.537671-17.736297 39.537671-39.533594 0-21.801374-17.736297-39.537671-39.537671-39.537671z" fill="#6E6E96" p-id="3664"></path><path d="M527.881121 1004.347368c-268.307359 0-486.594284-218.282847-486.594284-486.594284 0-268.307359 218.286925-486.594284 486.594284-486.594284 268.311436 0 486.594284 218.286925 486.594284 486.594284 0 268.311436-218.282847 486.594284-486.594284 486.594284z m0-940.570091c-250.322346 0-453.975807 203.653461-453.975807 453.975807 0 250.326424 203.653461 453.975807 453.975807 453.975807 250.326424 0 453.975807-203.649383 453.975807-453.975807 0-250.322346-203.649383-453.975807-453.975807-453.975807z" fill="#6E6E96" p-id="3665"></path><path d="M577.538675 731.758834c0 33.552181-22.339579 61.033248-49.661631 61.033247s-49.657554-27.464758-49.657554-61.033247V538.857238c0-33.552181 22.339579-61.025093 49.657554-61.025093 27.30982 0 49.661631 27.46068 49.661631 61.025093v192.901596z" fill="#FFFFFF" p-id="3666"></path><path d="M527.877044 809.10132c-36.373679 0-65.966792-34.697905-65.966793-77.342486V538.857238c0-42.640504 29.593113-77.334331 65.966793-77.334331 36.377756 0 65.97087 34.68975 65.970869 77.334331v192.905673c0 42.640504-29.593113 77.338409-65.970869 77.338409z m0-314.959936c-18.074714 0-33.348315 20.476249-33.348316 44.715854v192.905673c0 24.239606 15.273602 44.724009 33.348316 44.724009 18.078791 0 33.352393-20.480326 33.352392-44.724009V538.857238c0-24.235528-15.273602-44.715855-33.352392-44.715854z" fill="#6E6E96" p-id="3667"></path></svg>