<?xml version="1.0" standalone="no"?><!DOCTYPE svg PUBLIC "-//W3C//DTD SVG 1.1//EN" "http://www.w3.org/Graphics/SVG/1.1/DTD/svg11.dtd"><svg t="1663034106494" class="icon" viewBox="0 0 1024 1024" version="1.1" xmlns="http://www.w3.org/2000/svg" p-id="1038" xmlns:xlink="http://www.w3.org/1999/xlink" width="1024" height="1024"><path d="M879.3 652.6c-0.9 0.5-7.5-9-8.3-8.6-0.9 0.5-0.5 3.1-1.3 3.6-0.9 0.5-0.1 4-1 4.4-0.9 0.5 0.4 5.3-0.5 5.8-0.9 0.4-5.4-6.6-6.3-6.2-0.9 0.4-0.6 3.4-1.5 3.8-0.9 0.4-4.7-6.1-5.6-5.7-0.9 0.4 0.6 6.5-0.3 6.8-0.9 0.4 3.7 6.4 3.1 7-0.6 0.7-14.3-4.9-14.5-4-0.2 0.9 0.1 5.7 0.3 6.6 0.2 0.9 6.3 1.9 6.9 2.6 0.6 0.7 3.6-0.9 4.5-0.5 0.1 0-3.3 1.7-3.3 1.8 0.2 0.8 1.5 0.6 1.7 1.3 0.2 0.8 7.1-0.4 7.3 0.4l1.3-0.4c0.3 0.9-5.2 3.4-5 4.4 0.2 0.9-5 3.1-4.8 4.1 0.2 0.9 10.4-0.3 10.6 0.6 0.2 0.9-11.5 4.1-11.4 5.1 0.2 0.9 7.3 0.6 7.4 1.6 0.1 1-4 2.4-3.8 3.4 0.1 1 9.3 0.8 9.4 1.8 0.1 1-11.6 3-11.5 3.9 0.1 1 4.9 1.5 5 2.4 0.1 1 5.9 1.7 5.9 2.6v3c0 1 2.8 2.1 2.8 3 0 1-9.8 1.6-9.9 2.6 0 1 3.1 2 3 3-0.1 1-1.7 1.7-1.8 2.7-0.1 1 6.9 2.7 6.8 3.7-0.1 1-11.7 0.4-11.8 1.3-0.1 1 14.2 4.2 14.1 5.2-0.2 0.9-11.3-0.1-11.5 0.9-0.2 0.9-5.3 0.7-5.5 1.6-0.2 0.9 8.5 3.9 8.2 4.8-0.2 0.9-2.9 1.2-3.2 2.1-0.3 0.9 0.9 2.3 0.7 3.2-0.3 0.9-5.2 0.3-5.5 1.2-0.3 0.9 4.4 3.5 4.1 4.4-0.3 0.9 1.5 2.6 1.2 3.5-0.3 0.9-6-0.4-6.4 0.5-0.4 0.9 4.9 4.2 4.5 5.1-0.4 0.9-6.8-1-7.2-0.2-0.4 0.9 4.2 4.2 3.8 5-0.4 0.9-2.2 1.1-2.6 1.9-0.5 0.8 2.7 3.7 2.2 4.6-0.5 0.8-8.3-2.6-8.8-1.7-0.5 0.8-0.5 1.8-1 2.7-0.5 0.8-4.7-0.9-5.2-0.1s1.5 3.2 1 4c-0.5 0.8 6.6 7 6 7.8-0.6 0.8-4.2-0.6-4.8 0.1-0.6 0.8-1.5 1.3-2.1 2-0.6 0.7-7-3.3-7.6-2.6-0.6 0.7 5.7 7.3 5 8-0.6 0.7-6-2.8-6.7-2.1-0.6 0.7 3.9 6.2 3.2 6.9-0.7 0.7-5.6-2.8-6.3-2.1-0.7 0.7-1.2 1.4-1.9 2.1-0.7 0.7 1.1 4 0.4 4.6-0.7 0.7-7.3-5.3-8-4.6-0.7 0.6 3.2 6.4 2.5 7.1-0.7 0.6-3.1-0.8-3.9-0.2-0.7 0.6 0.5 3.6-0.2 4.2-0.8 0.6 0 3.1-0.8 3.7-0.8 0.6-2.2 0.3-3 0.9-0.8 0.6 0.3 3.8-0.5 4.4-0.8 0.6-2.2 0.2-3 0.8-0.8 0.5-3.7-2.2-4.6-1.6-0.8 0.5 2.9 8.2 2.1 8.7-0.8 0.5-7.8-9-8.7-8.5-0.8 0.5 1.9 7 1.1 7.4-0.8 0.5 0.9 5.5 0 6-0.8 0.5-5.7-6.3-6.6-5.8-0.8 0.5-3.7-2.9-4.5-2.4-0.8 0.4-3.2-2.3-4.1-1.8-0.9 0.4-0.7 2.7-1.6 3.1-0.9 0.4-0.5 3.3-1.4 3.7-0.9 0.4-2.8-1.7-3.7-1.3-0.9 0.4 0.9 6.6 0 7-0.9 0.4-3.6-3.5-4.4-3.1-0.9 0.4 1.9 9.5 1 9.9-0.9 0.4-5.5-8.7-6.4-8.4-0.9 0.4 2.6 12.2 1.7 12.6-0.9 0.3-6.5-12-7.4-11.6-0.9 0.3-0.2 5-1.1 5.3-0.9 0.3-3.5-4.4-4.4-4-0.9 0.3 2.9 14.9 2 15.2-0.9 0.3-2 0.5-2.9 0.8-0.9 0.3-4.6-8.3-5.5-8-0.9 0.3-1.9 0.2-2.9 0.4-0.9 0.3-2.8-3-3.7-2.7-0.9 0.3-1.1 3.1-2.1 3.3-0.9 0.2-3-4.5-4-4.3-0.9 0.2-0.4 6.3-1.4 6.5-0.9 0.2-0.9 4.9-1.8 5.1-0.9 0.2-2 0.1-2.9 0.2-0.9 0.2-0.8 6.3-1.7 6.5-0.9 0.2-2.4-1.7-3.3-1.5-0.9 0.2-2 0-3 0.2-0.9 0.2-2.8-4.8-3.7-4.6-1 0.1-1 6.8-1.9 7-1 0.1-2.6-4.7-3.6-4.5-1 0.1-2.3-2.6-3.2-2.4-1 0.1-1.7 2.5-2.6 2.6-1 0.1-2.7-7.6-3.6-7.5-1 0.1-1.5 4.5-2.5 4.6-1 0.1-1.8 2.4-2.7 2.5-1 0.1-1.6 6.6-2.6 6.6s-2.2-5.6-3.2-5.5c-1 0-1.9 0.4-2.9 0.4s-2-5.7-3-5.7-1.9 1.8-2.8 1.8c-1 0-1.9-0.1-2.9-0.1s-2.2 7.8-3.1 7.7c-1 0-1.7-6.5-2.6-6.6-1 0-1.6-4.6-2.6-4.6-1-0.1-2.5 8.1-3.5 8-1-0.1-2 0.2-3 0.2-1-0.1-2-0.4-2.9-0.5-1-0.1-1.7-2-2.7-2.1-1-0.1-1.6-2.2-2.6-2.3-1-0.1-2.2 1.6-3.2 1.4-1-0.2-0.2-8.9-1.2-9.1-0.9-0.2-3.4 7.1-4.3 6.9-0.9-0.2-0.3-6.9-1.3-7.2-0.9-0.2-1.2-2.5-2.1-2.8-0.9-0.2-1.8-0.2-2.7-0.5-0.9-0.3-4.8 9.5-5.7 9.2-0.9-0.3-1.6-1.4-2.5-1.7-0.9-0.3 0-5.6-0.9-5.9-0.9-0.3-2.1-0.3-3-0.6-0.9-0.2-3.7 8.4-4.6 8.2-0.9-0.2-1.1-2.2-2-2.3-0.9-0.1-1.3-11.1-2.2-11.1-0.9 0-2 6.1-3 6.2-0.9 0.1-0.7 8.7-1.6 8.8-0.9 0.1-4.5-14-5.4-13.8-0.9 0.2 0.6 9.7-0.3 10-0.9 0.3-2.7-2.3-3.5-1.9-0.8 0.4 1.7 7.3 0.9 7.7-0.8 0.4-5.6-6.6-6.4-6.1-0.8 0.5-3.7-2.6-4.5-2.1-0.8 0.5-3-1.9-3.9-1.4-0.8 0.5 4.5 12.6 3.6 13-0.9 0.4-2 0.6-2.9 1-0.9 0.4-5.9-8.5-6.8-8.1-0.9 0.4 1.8 9.1 0.9 9.5-0.9 0.4-5.8-9.6-6.7-9.3-0.9 0.3-0.9 2.8-1.8 3.1-0.9 0.3-1.3 1.8-2.2 2.1-0.9 0.3-2.6-2.2-3.5-1.9-0.9 0.3 1.3 11.2 0.4 11.5-0.9 0.3-1.5 2.1-2.5 2.4-0.9 0.2-3.9-7.6-4.8-7.3-0.9 0.2-2.6-3.3-3.6-3.1-0.9 0.2-0.8 5.2-1.8 5.4-0.9 0.2-1 5.2-2 5.4-0.9 0.2-2.3-1.9-3.3-1.8-1 0.1-1.3 4.5-2.3 4.6-1 0.1-1.8 2.3-2.7 2.4-1 0.1-2.7-5.9-3.6-5.8-1 0.1-1.8 2.1-2.7 2.1-1 0.1-2-0.3-3-0.2-1 0.1-1.7 4.5-2.7 4.5-1 0-2.4-10.5-3.4-10.4-1 0-1.7 9.7-2.7 9.8-1 0-2-5-3-5s-2 1.4-2.9 1.4c-1 0-2-0.5-2.9-0.6-1 0-1.5-9.5-2.5-9.5s-2.1 4.6-3.1 4.5c-1-0.1-2.5 6.6-3.4 6.5-1-0.1-2.5 4.4-3.4 4.3-1-0.1-0.4-14-1.4-14.2-1-0.1-3.1 9.3-4.1 9.2-1-0.1-2-0.3-2.9-0.5-1-0.2-1.5-3.3-2.4-3.5-1-0.2-0.2-9.2-1.1-9.4-1-0.2-2.6 3.6-3.5 3.4-0.9-0.2-3 4.7-4 4.5-0.9-0.2-2.1 0.3-3 0.1-0.9-0.2-1-3.7-1.9-4-0.9-0.3-2.4 1.4-3.3 1.1-0.9-0.3-2.4 0.9-3.3 0.6-0.9-0.3-2.6 1.5-3.5 1.2-0.9-0.3-0.2-5.1-1.1-5.5-0.9-0.3-1.5-1.5-2.4-1.9-0.9-0.4-1.7-0.8-2.6-1.2-0.9-0.4 0.2-5-0.6-5.4-0.9-0.4-2.6 1.1-3.4 0.7-0.9-0.4-6.9 8.8-7.7 8.3-0.9-0.5-1.9-1.1-2.7-1.5-0.8-0.5 5.6-13 4.8-13.5-0.8-0.5-1-1.5-1.8-2s-7.5 8.2-8.3 7.7c-0.8-0.5-3.7 3.8-4.5 3.4-0.8-0.4 4.4-14.4 3.6-14.8-0.9-0.4-1.7-2.2-2.6-2.5-0.9-0.3-4.6 8.8-5.5 8.6-0.9-0.2-1.6-1-2.5-1.2-0.9-0.2-0.9-9.7-1.8-9.7-0.9-0.1-2.5 2.9-3.5 2.9-0.9 0-1.6 12.4-2.6 12.5-0.9 0-1.8-3.9-2.8-3.8-0.9 0.1-3.6-10.2-4.6-10-0.9 0.2 1.4 14.2 0.5 14.5-0.9 0.2-4.3-8.2-5.2-7.9-0.9 0.3 1.5 8.5 0.6 8.9-0.9 0.4-3.7-3.5-4.6-3.2-0.9 0.4-0.8 3.6-1.7 3.9-0.9 0.3-4.8-7.7-5.7-7.4-0.9 0.3-0.9 3.1-1.9 3.3-0.9 0.3-2.3-1-3.2-0.7-0.9 0.3 0.7 9.9-0.2 10.1-0.9 0.2-4.4-9.4-5.3-9.2-0.9 0.2 0.1 9.2-0.8 9.5-0.9 0.2-2.3-1.1-3.2-0.9-0.9 0.2-3.2-6.5-4.1-6.3-0.9 0.2-1.3 3.8-2.2 3.9-0.9 0.1-1.3 4.8-2.2 4.9-0.9 0.1-2.3-1.9-3.2-1.8-1 0.1-2.3-3.1-3.3-3-1 0.1-2.3-4.6-3.3-4.6-1 0.1-1.7 2-2.7 2.1-1 0.1-1.7 4.1-2.6 4.2-1 0-2.3-9.1-3.2-9-1 0-1.6 11.3-2.5 11.3-1 0-2-9.9-3-9.9s-1.9 4.5-2.8 4.4c-1 0-2.1 8.2-3 8.2-1 0-1.6-10.1-2.6-10.1s-2.4 10.3-3.4 10.2c-1 0-2-0.4-2.9-0.4-1-0.1-1-12.9-1.9-13-1-0.1-2.3 4.9-3.2 4.8-1-0.1-2.7 7.3-3.6 7.2-1-0.1-0.4-13.3-1.4-13.4-1-0.1-2.9 7.8-3.8 7.7-1-0.1-2.1 1.4-3.1 1.2-1-0.1-2.7 4.4-3.6 4.2-1-0.1-1.3-4.2-2.3-4.3-0.9-0.2-0.1-10.4-1-10.6-0.9-0.2-4.8 15.1-5.7 14.9-0.9-0.2-1.5-2.7-2.5-2.9-0.9-0.2 0.8-12.8-0.2-13-0.9-0.2-1.9-0.1-2.8-0.3-0.9-0.2-2.6 2.9-3.5 2.7-0.9-0.2-4.3 9-5.2 8.7-0.9-0.2 1.5-13.3 0.6-13.6-0.9-0.3-3.6 6.1-4.6 5.8-0.9-0.3 0.1-7.1-0.8-7.4-0.9-0.3-2.4 1.7-3.4 1.4-0.9-0.3-4.4 7.6-5.3 7.3-0.9-0.3 1-9.2 0.1-9.5-0.9-0.3-1.5-1.4-2.4-1.7-0.9-0.3-5.7 10.4-6.6 10-0.9-0.3 2.6-12.6 1.7-12.9-0.9-0.3-3.3 3.4-4.2 3.1-0.9-0.4-5.5 8.4-6.3 8-0.9-0.4-0.6-3.8-1.5-4.1-0.9-0.4 0-5-0.9-5.4-0.9-0.4 1-6.8 0.1-7.2-0.9-0.4-6.9 10.3-7.8 9.9-0.9-0.4-0.2-4.1-1.1-4.5-0.9-0.4 0-4.3-0.9-4.7-0.9-0.4 1-6.1 0.2-6.5-0.9-0.4-1.7-0.7-2.5-1.1-0.8-0.5-6.9 8.5-7.7 8.1-0.8-0.5-2-0.4-2.9-0.9-0.8-0.5 3.8-10.1 2.9-10.6-0.8-0.5-8.6 10.4-9.5 9.9-0.8-0.5 0.5-4.5-0.3-5.1-0.8-0.5-0.8-2.3-1.6-2.9-0.8-0.5 3.7-8.6 2.9-9.2-0.8-0.6-11 12.1-11.8 11.5-0.8-0.6 0.5-4.1-0.2-4.7-0.8-0.6 2.9-6.9 2.2-7.5-0.7-0.6-4.6 2.7-5.3 2.1-0.7-0.6 0.9-4 0.2-4.6-0.7-0.6-4 1.6-4.7 1-0.7-0.6 1.2-4.1 0.5-4.7-0.7-0.6 1.9-4.7 1.2-5.3-0.7-0.7-2.6 0.1-3.3-0.5-0.7-0.7-1.8-0.8-2.5-1.5s-4.2 1.4-4.9 0.7c-0.6-0.7-2.2-0.6-2.8-1.4-0.6-0.7 3.8-5.7 3.1-6.4-0.6-0.7-5.1 1.8-5.7 1-0.6-0.7 2.9-4.6 2.3-5.3-0.6-0.8-4.7 1.2-5.3 0.5-0.6-0.8 1.9-3.6 1.3-4.4-0.5-0.8-0.5-1.8-1-2.6s-7.7 2.8-8.2 2c-0.5-0.8-2.8-0.6-3.3-1.4-0.5-0.8 4-4.6 3.5-5.4-0.5-0.8 2.7-3.6 2.2-4.4-0.5-0.8-0.2-1.9-0.6-2.8-0.4-0.8-11.7 3.6-12.1 2.8-0.4-0.9 3-3.6 2.6-4.5-0.4-0.9-0.1-2.1-0.4-3-0.4-0.9 1.5-2.7 1.2-3.6-0.3-0.9-4.1-0.5-4.4-1.4-0.3-0.9 3.7-3.3 3.4-4.2-0.3-0.9 3.4-3 3.2-3.9-0.3-0.9 0-1.8-0.2-2.7-0.3-0.9-0.7-1.6-0.9-2.5-0.2-0.9 0.7-2 0.5-2.9-0.2-0.9-11.3 0.6-11.5-0.3-0.2-0.9-3-1.5-3.2-2.4-0.2-0.9 3-2.5 2.9-3.5-0.1-0.9 9.9-3.3 9.8-4.2-0.1-0.9-15.6-0.1-15.7-1-0.1-0.9 15.7-3.3 15.6-4.3-0.1-0.9-10.9-1.1-10.9-2.1-0.1-0.9 8.1-2.2 8.1-3.2 0-0.9-14-1.7-14-2.7 0-1 6.4-2 6.5-2.9 0-0.9 2.5-1.8 2.5-2.8 0-0.9 1.5-1.9 1.5-2.8 0-0.9 0.8-2 0.8-2.9-0.1-0.9 3.2-2.4 3.1-3.4-0.1-0.9-14.8 0.6-15-0.3-0.2-0.9 6.1-2.9 5.8-3.8-0.2-0.9 3.1-2.8 2.8-3.7-0.3-0.9-3.3-0.8-3.7-1.7-0.3-0.9-2.5-0.8-2.9-1.6-0.4-0.8 7.5-6 7.1-6.8-0.4-0.8-2.2-1.2-2.7-2s-8.2 3.3-8.7 2.5c-0.5-0.7-1.4-0.9-2-1.6-0.6-0.7 8.6-9.4 8.1-10.1-0.6-0.7-7 3.4-7.5 2.7-0.6-0.7 3.2-4.8 2.6-5.5-0.6-0.7 0.3-2.4-0.2-3.1-0.5-0.7-2.6-0.2-3.2-0.9-0.6-0.8-7 3-7.6 2.2-0.6-0.7 3.4-5.6 2.8-6.3-0.6-0.7-2.3-0.7-3-1.3-0.7-0.7-3.1 0.3-3.8-0.4s-7.2 5.4-7.9 4.7c-0.7-0.6 7.8-12.5 7.1-13.1-0.7-0.6-6 4.5-6.7 4-0.8-0.6-2.9 0.9-3.7 0.4-0.8-0.5-4.8 3.6-5.6 3.1-0.8-0.5 2.6-7.2 1.8-7.8-0.8-0.6-6 5-6.8 4.4-0.8-0.6 2.9-7.3 2.2-7.9-0.8-0.6 2.8-6.7 2.1-7.3-0.8-0.6-2.4 0.1-3.2-0.5-0.7-0.6-7.5 6-8.2 5.4-0.7-0.6-0.2-2.9-0.9-3.5-0.7-0.6-1.5-1.3-2.2-1.9-0.7-0.6 2.1-5.1 1.4-5.8-0.7-0.7 1.9-4.7 1.2-5.3-0.7-0.7-4 1.5-4.7 0.8-0.7-0.7-8.3 5.4-8.9 4.7-0.7-0.7 5.1-7.6 4.5-8.3-0.7-0.7-3 0.2-3.7-0.5-0.6-0.7-2.8-0.1-3.4-0.9-0.6-0.7 3.1-5.1 2.5-5.8-0.6-0.7-4.7 1.4-5.3 0.6-0.6-0.7 2.1-4 1.5-4.8-0.6-0.8-4.1 0.7-4.6-0.1-0.6-0.8-7.2 2.7-7.8 1.9-0.6-0.8 8.2-8 7.6-8.8-0.5-0.8 1.5-3.2 1-4-0.5-0.8 0.6-2.4 0.1-3.3-0.5-0.8-5.3 1.1-5.8 0.3s-8.8 2.8-9.3 1.9c-0.5-0.8-1.9-1.3-2.3-2.2-0.4-0.8 4.7-4.6 4.3-5.5-0.4-0.9 1.6-2.9 1.2-3.8-0.4-0.9 4.4-4 4.1-4.9-0.4-0.9-5.8 0.5-6.1-0.4-0.4-0.9 0.4-2.1 0-3-0.3-0.9-11.7 2.1-12 1.2-0.3-0.9 6.9-4.5 6.6-5.4-0.3-0.9 0.6-2.2 0.3-3.1-0.3-0.9 3.3-2.8 3-3.7-0.2-0.9 0-1.8-0.2-2.8-0.2-0.9 1.4-2.1 1.2-3-0.2-0.9-3-1.2-3.1-2.2-0.2-0.9-8-0.6-8.2-1.6-0.1-0.9-3.3-1.6-3.4-2.6-0.1-1 9.9-3 9.8-4-0.1-1-0.4-1.8-0.4-2.7-0.1-1-11-1.4-11-2.4s1.3-2.1 1.3-3.1 1.3-2.1 1.4-3c0-1-1.1-2.1-1-3.1 0-1 8.5-1.4 8.6-2.4 0.1-1 2.1-1.6 2.2-2.6 0.1-1 0.7-1.7 0.8-2.7 0.1-1-5.1-2.6-5-3.6 0.1-0.9-0.7-2.1-0.6-3 0.2-0.9 5.9-0.8 6.1-1.7 0.2-0.9-9.5-4.1-9.3-5 0.2-0.9 5-0.8 5.2-1.8 0.2-0.9 1.4-1.6 1.6-2.6 0.3-0.9-4.3-3.3-4.1-4.3 0.3-0.9 0-2.2 0.3-3.1 0.3-0.9 4.7-0.5 5-1.4 0.3-0.9 10.2 1.7 10.5 0.8 0.3-0.9-7.4-4.9-7.1-5.7 0.4-0.9 6.8 0.8 7.1-0.1 0.4-0.9-0.7-2.3-0.3-3.2 0.4-0.9-9.3-6.4-8.9-7.2 0.4-0.9 9.8 2.5 10.3 1.7 0.4-0.9-1.6-2.9-1.2-3.8 0.4-0.9-2.8-3.7-2.3-4.5 0.5-0.8 6.9 1.5 7.3 0.7 0.5-0.8 2.8-0.5 3.3-1.3s-2.1-3.4-1.6-4.2c0.5-0.8-0.9-2.8-0.4-3.6 0.5-0.8-5.1-5.6-4.6-6.4 0.5-0.8 7.3 2.4 7.8 1.7 0.5-0.8 3.5 0.1 4.1-0.7 0.6-0.8-1.2-3.2-0.7-4 0.6-0.8 4.7 1.1 5.3 0.4 0.6-0.8 2.3-0.6 2.8-1.3 0.6-0.8-10.3-10.7-9.7-11.4 0.6-0.7 12.3 7.7 12.9 6.9 0.6-0.7-5-6.1-4.6-6.9 0.5-0.7 10.1 2.9 10.4 2.1 0.4-0.8-3.2-3.8-2.9-4.7 0.3-1-7.7-4.6-7.4-5.7 0.3-1-2.8-3.3-2.5-4.3 0.3-0.9 12.2 1.4 12.3 0.5 0.1-0.9 0.9-2.5 0.8-3.4 0-0.9-12.6-0.4-12.7-1.3-0.2-0.9-0.2-0.4-0.6-1.3-0.3-0.9 4.3-2.9 3.8-3.7-0.5-0.8 5.6-6.2 5-6.9-0.6-0.7-5.6 2-6.2 1.2-0.5-0.8-6 1-6.5 0.2s3.9-4.5 3.5-5.4c-0.4-0.9 2-2.9 1.7-3.8-0.3-0.9 4.5-3.3 4.2-4.2-0.3-0.9 0.4-1.6 0.1-2.6-0.2-0.9-8.7 0.1-8.9-0.9-0.2-0.9 8.8-3.2 8.7-4.1-0.1-1-15.1-0.2-15.2-1.2-0.1-1 10.4-2.7 10.4-3.7s-10.6-1.7-10.6-2.6c0-1-0.5-2.2-0.5-3.1 0-1 13-1.4 13.1-2.4 0.1-1-8.2-2.5-8.2-3.4 0.1-1 5.8-1.4 5.9-2.3 0.1-1 5.1-1.1 5.3-2.1 0.1-1-0.3-1.8-0.1-2.8 0.2-1-6-2.9-5.8-3.9 0.2-0.9 1.4-1.6 1.6-2.6 0.2-0.9-8.1-3.9-7.8-4.8 0.2-0.9-1.4-2.5-1.1-3.4 0.2-0.9 8.2 0.1 8.4-0.8 0.3-0.9-4.8-3.5-4.5-4.4 0.3-0.9 7.6 0.3 7.9-0.6 0.3-0.9-8-4.8-7.6-5.7 0.3-0.9 2-1.5 2.3-2.4 0.3-0.9 3.9-0.7 4.3-1.6 0.4-0.9 1.2-1.7 1.6-2.6 0.4-0.9-3.9-3.8-3.5-4.7 0.4-0.9 5.5 0.3 5.9-0.6 0.4-0.9-2.6-3.4-2.2-4.3 0.4-0.9 13.1 4.3 13.5 3.4 0.4-0.9-3.7-4-3.3-4.9 0.5-0.9-0.3-2.3 0.2-3.2 0.5-0.9 1.2-1.5 1.7-2.4 0.5-0.8 1.4-1.4 1.9-2.2 0.5-0.8-5.8-5.9-5.3-6.8 0.5-0.8 8.8 3.4 9.3 2.6 0.5-0.8-0.5-2.6 0-3.4 0.5-0.8-4.6-5.6-4-6.4 0.6-0.8 5.8 1.9 6.4 1.1 0.6-0.8-3.2-4.8-2.6-5.6 0.6-0.8 3.4 0.2 4-0.6 0.6-0.7-2.7-4.8-2.1-5.5 0.6-0.7 5 1.6 5.6 0.9 0.6-0.7-1-3.5-0.4-4.2 0.6-0.7 9.8 6.2 10.4 5.5 0.6-0.7-7.8-9.8-7.1-10.5 0.7-0.7 3.4 0.5 4.1-0.1 0.7-0.7-0.6-3.3 0.1-4 0.7-0.7 4.3 1.6 5 0.9 0.7-0.7 1.2-1.5 1.9-2.2 0.7-0.7 2.8 0.1 3.5-0.5 0.7-0.6-2.6-5.7-1.9-6.4 0.7-0.6 0.8-2.1 1.5-2.8 0.7-0.6 9.4 7.9 10.1 7.3 0.7-0.6 2.1-0.3 2.9-0.9 0.7-0.6-2.1-5.5-1.3-6.1 0.7-0.6 1-1.8 1.7-2.4 0.7-0.6 2.1-0.3 2.9-0.9 0.8-0.6-1.5-5.2-0.8-5.8 0.8-0.6 6.6 5.7 7.3 5.1 0.8-0.6 3 1 3.8 0.5 0.8-0.6 0-3.2 0.8-3.8 0.8-0.5-4.1-9.5-3.3-10 0.8-0.5 8.4 9.3 9.2 8.8 0.8-0.5-1.9-6.4-1.1-6.9s5.2 4.8 6 4.3c0.8-0.5 0.7-2.4 1.5-2.9s-4-10.7-3.2-11.1c0.8-0.5 2.4 0.1 3.2-0.3 0.8-0.5 3.9 3.1 4.7 2.6 0.8-0.5 2.3 0.3 3.2-0.1 0.8-0.4-1.8-7.7-0.9-8.1 0.9-0.4 4.5 4.6 5.3 4.2 0.9-0.4 3.4 2.7 4.3 2.3 0.9-0.4 1.2-1.9 2-2.3 0.9-0.4 2.1 0.2 3-0.2 0.9-0.4 3.1 2.5 3.9 2.1 0.9-0.4-0.4-5.9 0.5-6.3 0.9-0.4 0.7-3.5 1.6-3.8 0.9-0.3 3.9 5 4.8 4.7 0.9-0.3-1.3-9.5-0.4-9.8 0.9-0.3 5.2 9.5 6.1 9.2 0.9-0.3 2.3 1.1 3.2 0.8 0.9-0.3 0.6-4.4 1.5-4.6 0.9-0.3-0.3-8.2 0.6-8.5 0.9-0.2 3.3 5 4.2 4.7 0.9-0.2 3.1 5 4 4.7 0.9-0.2 0.3-7.4 1.2-7.6 0.9-0.2 1-5.2 1.9-5.4 0.9-0.2 1.7-1.9 2.7-2.1 0.9-0.2 2.1 0.2 3.1 0.1 0.9-0.1 2.5 3 3.4 2.9 0.9-0.1 1.9-0.8 2.9-0.9 1-0.1 2.9 12 3.9 12 1-0.1 1.3-8.2 2.2-8.2 1-0.1 1.7-7.5 2.6-7.5 1 0 2.2 14.4 3.1 14.4 1 0 1.8-3.2 2.7-3.2 1 0 2.4-11.8 3.3-11.7 0.4 0 1.1 3.3 2.1 3.4 0.6 0 1.4 1 2.2 1 0.9 0.1 1.5-2.7 2.5-2.7 0.9 0 2.4 13.2 3.3 13.1 0.9-0.1 0.3-12.6 1.2-12.8 0.9-0.2 3.7 8.8 4.6 8.6 0.9-0.2 1.4-2.6 2.2-2.9 0.9-0.3 0.2-4.3 1-4.7 0.8-0.4 0.8-1.9 1.6-2.3 0.8-0.5 4.7 4.3 5.5 3.7 0.8-0.5 2.2-0.5 2.9-1.1 0.7-0.6 1.4-1.5 2.1-2.2 0.7-0.6-2-4.6-1.4-5.3 0.6-0.7 3.9 0.8 4.5 0.1 0.6-0.8-5.6-6.9-5-7.6 0.6-0.7 2.5-0.7 3.1-1.4 0.6-0.7 8 4.5 8.7 3.8 0.6-0.7 4.8 2.2 5.5 1.5 0.7-0.7-8.5-11-7.8-11.7 0.7-0.7 0.5-2.4 1.2-3.1 0.7-0.6 0.6-2.5 1.3-3.1 0.7-0.6 11.5 10.3 12.2 9.7 0.7-0.6-4.3-8.1-3.6-8.7 0.7-0.6 2.2-0.3 3-0.9 0.7-0.6 3.3 1.2 4.1 0.7 0.8-0.6-4-8.9-3.3-9.4 0.8-0.6 6.8 6.4 7.6 5.8 0.8-0.5-4.2-9.8-3.4-10.3 0.8-0.5 3.2 1.3 4 0.7 0.8-0.5 0.7-2.7 1.5-3.2s1.7-1.1 2.5-1.6 4.6 4 5.5 3.5c0.8-0.5 0.1-3.8 0.9-4.3s5.3 5.6 6.1 5.2c0.8-0.5-0.1-4.2 0.8-4.6 0.8-0.4 4.6 4.7 5.4 4.3 0.8-0.4 1.9-0.4 2.7-0.8 0.9-0.4 1-2.1 1.9-2.5 0.9-0.4 2.6 1.3 3.5 0.9 0.9-0.4-1.9-8.7-1-9 0.9-0.4 3.4 3 4.3 2.7 0.9-0.4 2.6 1.3 3.5 0.9 0.9-0.4 2.7 1.6 3.5 1.2 0.9-0.4-2.9-12.2-2-12.5 0.9-0.4 6.3 10.9 7.2 10.5 0.9-0.3-0.9-7.8 0-8.1 0.9-0.3 1.3-2 2.2-2.3 0.9-0.3 1.3-2 2.2-2.3 0.9-0.3 0.5-4.7 1.4-5 0.9-0.3 5.2 9.5 6.1 9.2 0.9-0.3-1.6-11.2-0.7-11.4 0.9-0.3 2.8 2.4 3.7 2.1 0.9-0.3 1.4-2 2.3-2.3 0.9-0.3 4 6.7 4.9 6.5 0.9-0.3 1-3.7 1.9-3.9 0.9-0.3 1.1-3.4 2-3.6 0.9-0.2 3.3 4.7 4.2 4.5 0.9-0.2 3.7 6.8 4.6 6.6 0.9-0.2 0.2-7.1 1.1-7.3 0.9-0.2 1.7-1 2.7-1.2 0.9-0.2 2.8 3.7 3.7 3.5 0.9-0.2 0.8-5 1.8-5.2 0.9-0.2 0.9-4.9 1.9-5.1 0.9-0.2 2.3 1.5 3.2 1.3 0.9-0.2 2.4 2.2 3.3 2.1 0.9-0.2 3.3 7.4 4.2 7.3 0.9-0.2 0.9-5.8 1.8-5.9 0.9-0.2 0.5-8.7 1.5-8.9 0.9-0.2 2.2 1.6 3.2 1.5 0.9-0.1 2.7 5 3.6 4.9 0.9-0.1 0.9-7.5 1.9-7.6 0.9-0.1 2.9 7.6 3.9 7.5 0.9-0.1 1.8-1.1 2.7-1.2 0.9-0.1 2.2 2.8 3.2 2.7 1-0.1 1.6-3.3 2.5-3.4 1-0.1 1.9 0.2 2.9 0.2 1-0.1 2.1 1.9 3 1.9 1-0.1 2.2 4.5 3.2 4.4 1-0.1 1-13.6 2-13.7 1-0.1 2 1.4 3 1.3 1-0.1 2.3 7.8 3.2 7.8 1 0 1.6-7.8 2.6-7.9 1 0 1.9-1.3 2.9-1.3s2 0.6 2.9 0.5c1 0 2-1 2.9-1.1 1 0 2 0.3 2.9 0.3 1 0 2 1 2.9 1.1 1 0 2-0.7 2.9-0.7 1 0 1.6 10.8 2.5 10.8 1 0 2.4-11 3.4-10.9 1 0 1.6 6.6 2.6 6.7 1 0.1 2.1-2.7 3.1-2.6 1 0.1 2.3-4.7 3.3-4.7 1 0.1 0.6 15.5 1.6 15.6 1 0.1 1.9-0.1 2.8 0 1 0.1 2.9-9.4 3.9-9.3 1 0.1 1.4 4.4 2.4 4.5 1 0.1 1.9 0 2.9 0.2 1 0.1 1.3 4.3 2.3 4.4 1 0.1 3.2-9.1 4.2-8.9 1 0.1 2-0.4 3-0.2s1.5 2.9 2.5 3c1 0.2 2.1-0.6 3-0.5 0.9 0.2 0.1 10.2 1 10.3 0.9 0.2 4.7-14.5 5.7-14.3 0.9 0.2-0.7 13.4 0.2 13.6 0.9 0.2 1.6 1.5 2.5 1.7 0.9 0.2 5.3-15.2 6.2-14.9 0.9 0.2-1.7 16.1-0.7 16.3 0.9 0.2 3.2-5.4 4.2-5.2 0.9 0.2 2.2-0.7 3.1-0.5 0.9 0.2 3.2-4.7 4.1-4.4 0.9 0.2-1.4 12.7-0.4 12.9 0.9 0.3 2.7-2.8 3.7-2.6 0.9 0.3 1 3.4 1.9 3.7 0.9 0.3 1.6 1.2 2.5 1.5 0.9 0.3 4.4-7.9 5.3-7.6 0.9 0.3 2.5-1.4 3.4-1.1 0.9 0.3-0.8 8.9 0.1 9.2 0.9 0.3 3.4-4.2 4.3-3.9 0.9 0.3 0.6 4.3 1.5 4.6 0.9 0.3 5.7-10.3 6.6-10 0.9 0.3-0.4 6.8 0.5 7.2 0.9 0.3 0.4 4.4 1.3 4.7 0.9 0.3 4.2-5.6 5.1-5.2 0.9 0.4-1.5 8.9-0.6 9.3 0.9 0.4 3.1-2.5 4-2.1 0.9 0.4 3.4-3.1 4.3-2.8 0.9 0.4 0.1 4.7 0.9 5.1 0.9 0.4 5.2-6.8 6.1-6.4 0.9 0.4-0.2 5.1 0.7 5.5 0.9 0.4 1.2 2 2.1 2.4 0.9 0.4 0.7 2.9 1.6 3.3 0.9 0.4 5.6-6.8 6.5-6.4 0.9 0.4 1.2 2 2.1 2.4 0.9 0.5-1.9 7.6-1 8 0.9 0.5 1.9 0.6 2.7 1.1 0.8 0.5 3.5-2.2 4.4-1.7 0.8 0.5 1.8 0.9 2.6 1.4 0.8 0.5 1.6 1.1 2.4 1.6 0.8 0.5-0.3 4 0.5 4.5s4.4-3.1 5.2-2.6c0.8 0.5-5 10.4-4.2 11 0.8 0.6 6.9-6.3 7.7-5.8 0.8 0.6 3.8-1.7 4.6-1.1 0.8 0.6-5.6 10.1-4.9 10.7 0.8 0.6 7.2-5.6 7.9-5 0.7 0.6-3 6.3-2.3 6.9 0.7 0.7-1.1 3.7-0.4 4.4 0.7 0.7 2.4 0 3 0.7 0.7 0.7 7.1-4 7.7-3.3 0.7 0.7 1.7 1.2 2.3 2 0.6 0.8-4.1 5.6-3.5 6.4 0.6 0.8 0.3 1.9 0.8 2.7 0.6 0.8 11.6-5.1 12.1-4.3 0.5 0.8 1.7 1.8 2.1 2.6 0.5 0.9-0.2 2.8 0.2 3.6 0.4 0.9-5.5 4.5-5.2 5.4 0.3 0.9-5.6 3.5-5.4 4.4 0.3 1.1 14.9-4.5 15.5-3.6 0.6 0.9-5.5 5.9-4.6 6.6 0.8 0.7 0.6 3.9 1.6 4.3l0.2-4.3c1-0.3 1.2-3.1 2.1-3.3 1-0.3 3.4 4.5 4.3 4.2 1-0.3 2.2 0.8 3.2 0.5 1-0.2 1.6-1.8 2.6-2 1-0.2 2.7 3.6 3.6 3.5 1-0.2 1.4-3.6 2.3-3.8 1-0.2 1.5-4.2 2.4-4.3 1.1-0.1 1.8-3.2 2.7-3.3 1.1-0.1 2.2-1.3 3-1.4 1.4-0.1 2.8 2.8 3.3 2.8 1 0 2 0.4 3 0.4s2 2.6 2.9 2.6c1 0 2-3.8 3-3.8s2 0.1 3 0.1c1 0.1 2 0.7 2.9 0.7 0.9 0.1 1.3 6.9 2.3 7 0.9 0.1 2.1-1.9 3-1.8 0.9 0.1 2.4-3.4 3.4-3.3 0.9 0.1 0.2 10.6 1.2 10.7 0.9 0.2 2.6-4.3 3.5-4.2 0.9 0.2 0.9 5 1.8 5.1 0.9 0.2 3.7-8.2 4.6-8 0.9 0.2 2.6-2.2 3.5-2 0.9 0.2 2.4-1.3 3.3-1 0.9 0.2-0.6 9.5 0.3 9.7 0.9 0.3 4.9-9.6 5.8-9.4 0.9 0.3 2.2-0.2 3.1 0.1 0.9 0.3 1.9 0.9 2.8 1.2 0.9 0.3 1.2 2.6 2.1 2.9 0.9 0.3 0.1 5.4 1 5.8 0.9 0.3 3.9-4.7 4.8-4.3 0.9 0.4-3 12.5-2.2 12.9 0.9 0.4 2.3-0.6 3.1-0.2 0.9 0.4 6.9-10.8 7.8-10.4 0.9 0.4 0.6 3.5 1.5 3.9 0.9 0.4-2.8 10.2-1.9 10.6 0.9 0.4 3.2-2.2 4-1.8 0.9 0.4 1.1 1.9 2 2.4 0.8 0.4 2.8-1.2 3.6-0.8 0.8 0.5 2.2 0 3 0.5 0.8 0.5 4.6-4.2 5.5-3.7 0.8 0.5 0.2 3.5 1 4s3.2-1.5 4-1c0.8 0.5-1.1 5.5-0.3 6s5.5-4.9 6.3-4.4c0.8 0.5-6.4 13.2-5.6 13.8 0.8 0.5 6.5-6.3 7.3-5.7 0.8 0.5-3.6 8.4-2.8 9 0.8 0.6 2 0.4 2.7 1 0.8 0.6 0.1 2.9 0.9 3.5 0.8 0.6 11.2-11.6 11.9-11 0.8 0.6-6 10.9-5.3 11.5 0.8 0.6 4.4-2.5 5.2-1.9 0.7 0.6 0.9 1.9 1.6 2.5 0.7 0.6 5.2-3.2 5.9-2.5 0.7 0.6 0 3 0.7 3.6 0.7 0.6 1.3 1.4 2 2.1 0.7 0.6 2.1 0.6 2.8 1.2 0.7 0.6-1.1 4-0.4 4.7 0.7 0.7-0.6 3.4 0 4 0.7 0.7-0.2 2.8 0.5 3.5 0.7 0.7 10.3-7.4 10.9-6.7 0.7 0.7-3.5 6-2.8 6.7 0.7 0.7-4.3 6.6-3.7 7.3 0.6 0.7 1 1.5 1.6 2.2 0.6 0.7 1.3 1.2 2 1.9 0.6 0.7 4.7-1.6 5.3-0.8 0.6 0.7-3.1 4.9-2.5 5.6 0.6 0.7 6.7-3 7.3-2.2 0.6 0.8-3.5 5-3 5.8 0.6 0.8 3.5-0.3 4.1 0.4 0.6 0.8 3.7-0.3 4.3 0.5 0.5 0.8 7.3-2.5 7.8-1.7s-8.5 7.9-8 8.7c0.5 0.8 1.4 1.3 1.9 2.1s-0.5 2.4 0 3.3c0.5 0.8 8.1-2.4 8.6-1.6 0.5 0.9 2.5 1 2.9 1.8 0.5 0.9-2.3 3.5-1.9 4.3 0.4 0.9 6.6-1 7-0.1 0.4 0.9-9.7 6.8-9.3 7.6 0.4 0.9-2.9 3.3-2.5 4.2 0.4 0.9 14.9-4.2 15.2-3.3 0.4 0.9-3.4 3.6-3 4.5 0.4 0.9-1.1 2.6-0.8 3.5 0.3 0.9 5.6 0.1 6 1 0.3 0.9-1.3 2.6-1 3.5 0.3 0.9-0.1 2.1 0.2 3.1 0.3 0.9-1.4 2.5-1.2 3.4 0.3 0.9-3.9 3.1-3.7 4 0.2 0.9 3.1 1.2 3.3 2.1 0.2 1-6.2 3.3-6 4.3 0.2 1-0.3 1.9-0.1 2.8 0.2 1 15.8-0.8 15.9 0.1 0.2 1-5 2.9-4.8 3.8 0.1 1-3.1 2.4-3 3.3 0.1 1 8.5 1.2 8.6 2.2 0.1 1-8.4 2.6-8.4 3.6 0.1 1-5.8 2-5.8 3 0 0.9 10.1 1.6 10.1 2.5 0 0.9 5.8 1.5 5.8 2.4 0.1 0.9-5.1 2.1-5.1 3 0.1 0.9-0.9 1.9-0.8 2.8 0.1 0.9-0.8 1.9-0.7 2.9 0.1 0.9 5.2 1.2 5.3 2.1 0.1 0.9-3.6 2.3-3.4 3.2 0.1 0.9 1.7 1.6 1.8 2.5 0.2 0.9-11.1 3.9-10.9 4.8 0.2 0.9 3.7 1.3 3.9 2.2 0.2 0.9 1.7 1.6 1.9 2.5 0.2 0.9 0.6 1.8 0.9 2.7 0.2 0.9 6.4 0.2 6.7 1.1 0.3 0.9 5.3 0.3 5.6 1.2 0.3 0.9-2.7 2.6-2.4 3.5 0.3 0.9-0.9 2.2-0.6 3.1 0 0.1-4.7 2-4.6 2.1 0.3 0.9 3.7 0.8 4.1 1.7 0.4 0.9-2.3 3.1-2 4 0.4 0.9 10.5-2.3 10.9-1.4 0.4 0.9-12 7.5-11.6 8.4 0.4 0.9 13.5-4.2 13.9-3.4 0.4 0.9 0.8 1.6 1.3 2.5 0.5 0.9-1.2 2.7-0.7 3.5 0.5 0.9-4.7 4.9-4.2 5.7 0.5 0.9-4.8 5.3-4.3 6.2 0.5 0.8 7.9-2.6 8.4-1.8s0.4 2.1 1 2.9c0.5 0.8-5.6 6-5 6.8 0.5 0.8 9.4-3.9 9.9-3.1 0.5 0.8 1.4 1.4 1.9 2.2 0.5 0.8-1.5 3.2-1 4 0.5 0.8-5 5.1-4.5 5.9 0.5 0.8 4.8-0.6 5.2 0.3 0.5 0.8 4.2-0.1 4.6 0.7 0.4 0.8 7.4-1.6 7.9-0.8 0.4 0.9-5.5 4.9-5 5.8 0.4 0.9 5.3-0.3 5.7 0.6 0.4 0.9-8.3 5.9-7.9 6.8 0.4 0.9 4.4 0.1 4.8 1 0.4 0.9-3.6 3.5-3.2 4.4 0.4 0.9 12.3-2.7 12.7-1.8 0.3 0.9-11.7 6.3-11.3 7.2 0.3 0.9 12.9-2.4 13.2-1.4 0.3 0.9-8.6 4.8-8.4 5.7 0.3 0.9 10.8-1.1 11-0.2 0.3 0.9-3.9 3.2-3.7 4.1 0.2 0.9 0.6 1.9 0.8 2.8 0.2 0.9 3.2 1.4 3.4 2.3 0.2 0.9-14 4.7-13.9 5.6 0.2 0.9 10.5 0.1 10.7 1 0.1 0.9-5.3 2.7-5.2 3.6 0.1 1 5.3 1.3 5.4 2.3 0.1 1-3.5 2.3-3.4 3.2 0.1 1 1.4 1.8 1.4 2.8 0 1 0.4 1.9 0.4 2.9s1.3 1.9 1.3 2.9-6.5 1.7-6.5 2.7c0 1 8.5 2.3 8.5 3.3-0.1 1 2.5 2.3 2.4 3.2-0.1 1-14.1 0.4-14.2 1.4-0.1 1 10.8 3.3 10.7 4.3-0.1 1 4.2 2.8 4.1 3.7-0.2 0.9-1.3 1.9-1.5 2.9-0.2 0.9-14.2-1.2-14.5-0.2-0.2 0.9 14.1 5.5 13.9 6.4-0.2 0.9-12.9-1.6-13.2-0.6-0.3 0.9-1.1 1.5-1.4 2.4-0.3 0.9 4 3.3 3.7 4.2-0.3 0.9 1.3 2.5 0.9 3.4-0.3 0.9-9.6-1.8-10-0.9-0.4 0.9 11.2 6.8 10.9 7.7-0.4 0.9-5-0.1-5.4 0.8-0.4 0.9-7.9-1.8-8.3-0.9-0.4 0.9 9 6.7 8.5 7.5-0.4 0.9-1.8 1.3-2.3 2.1-0.5 0.8-8.7-2.8-9.2-2-0.5 0.8 4.5 4.8 4 5.6-0.5 0.8 1.7 3.3 1.1 4.1-0.5 0.8-7.7-2.8-8.3-2-0.5 0.8-1.9 0.9-2.5 1.7-0.6 0.8 1.3 3.1 0.7 3.9-0.6 0.8 7.7 8.3 7.1 9-0.6 0.8-6.4-2.4-7-1.7-0.6 0.8-3.6-0.5-4.2 0.3-0.6 0.7 2.1 4.3 1.5 5-0.6 0.7-0.6 2.1-1.2 2.8-0.6 0.7-0.5 2.2-1.2 2.9-0.7 0.7-1.3 1.5-2 2.2-0.7 0.7 1.6 4.5 1 5.1-0.7 0.7-2 0.9-2.7 1.6-0.7 0.7-8.3-5.9-9-5.3-0.7 0.7-0.6 2.1-1.4 2.7-0.7 0.6 3.6 7 2.8 7.6-0.7 0.6-3.8-1.4-4.6-0.8-0.7 0.6-6.2-4.5-6.9-3.9-0.7 0.6 4.9 9.3 4.2 9.9-0.8 0.6-10-9.9-10.8-9.3-0.8 0.6 6.5 11.9 5.7 12.5-0.8 0.6-8.7-8.8-9.5-8.3-0.8 0.6-1.4 1.2-2.2 1.7-0.8 0.5-2.5-0.5-3.3 0-0.8 0.5 6.7 14 5.9 14.5-0.8 0.5-8.2-9.6-9.1-9.1 0.5 0.9 5.7 11.5 4.8 12z" fill="#FFFFFF" p-id="1039"></path><path d="M509.3 874.2c-0.4 0-0.8 0-1.2-0.1-2.3-0.2-5.9-1.3-7.9-5.4-0.3-0.1-0.7-0.1-1-0.2-3.9-0.6-6.1-3-7.4-5-0.8 0.2-1.7 0.2-2.6 0.2-1.1 0.1-2.9 0.3-5-0.2-1.6-0.4-3-1.1-4-2h-0.1c-1.9 0.9-5 2-8.8 0.7-4.3-1.5-6-4.9-6.7-7.7-5.6 5.3-11 3.1-12.6 2.2-0.9-0.5-2.1-1.2-3-1.7-0.9-0.5-2.3-1.5-3.3-3.1-2.8 0.5-4.9-0.5-5.9-1-1.9-0.9-3.8-2.4-4.9-4.9-1.8 1.2-3.8 1.6-5.2 1.7-1.1 0.1-2.1 0-3.1-0.3-0.6 0.3-1.1 0.5-1.7 0.6-1.1 0.3-2 0.4-2.9 0.4-0.1 0-0.2 0.1-0.2 0.1-2.2 1-4.2 1-6 0.7-0.2 0.1-0.5 0.2-0.7 0.3-0.9 0.3-3 0.9-5.5 0.5-1.9 3.6-5.2 4.8-6.4 5.2-0.9 0.2-2.9 0.6-5.2 0-0.6 0.2-1 0.3-1.4 0.4-3.1 0.7-5.6-0.1-7.1-0.8-1.3 1.2-3.1 2.2-5.5 2.5-4 0.5-6.9-1.2-8.5-2.4-1.2-0.5-2.2-1.1-3-1.8-1.2 0.6-2.5 1.1-4.1 1.2-2.3 1.9-4.9 2.3-6.3 2.3-0.4 0-1.1 0-1.8-0.1-1.7 1.8-4 3-7.5 2.9-0.5 0-1.4-0.1-2.5-0.4-1.6 0.5-3 0.5-3.7 0.5-1.2-0.1-2.2-0.3-2.9-0.4-0.1 0-0.2 0-0.4-0.1-1.1-0.1-2.9-0.4-4.5-1.5-1.3 0.4-2.8 0.6-4.5 0.5-1.2-0.1-3.2-0.6-5-1.9-1.9 1.3-4.3 2.2-7.4 1.7-1.1-0.2-2.1-0.5-3-0.9-2.4 1.2-4.7 1.1-6.4 0.8-4.2-0.8-6.4-3.7-7.5-5.4l-0.2-0.2c-3 1.5-5.9 1.1-7.1 0.8-1.9-0.5-5.7-2-7.1-6.8-1.9 0.8-4.2 1.1-6.9 0.2-0.5-0.2-1.5-0.5-2.5-1.2-2.9 1-5.5 0.4-6.8-0.1-0.8-0.3-1.8-0.8-2.8-1.6-2.9 0.7-5.3 0-6.3-0.4-3.3-1.4-5-3.8-5.9-6-2 0-3.6-0.5-4.6-1-4-1.9-5.4-5.3-6-7.9-2.3 0.4-4.2 0-5.5-0.6-0.8-0.2-2-0.5-3.4-1.1-3.5 0.9-6.2-0.4-7.6-1.3-1.9-1.2-3.1-2.7-3.8-4.2-3.3 0.6-5.9-0.7-7.5-1.8-4.5-3.3-4.5-8.2-4.2-10.8-0.6-0.5-1.1-1.1-1.5-1.7-1-0.4-1.9-1-2.9-1.9-3.1-2.8-3.6-6.2-3.5-8.8-1.3-0.2-2.7-0.6-4-1.4-1.3-0.5-3.4-1.4-5.2-3.4-1.5-1.7-2.3-3.5-2.5-5.3-0.1-0.1-0.2-0.3-0.3-0.4-1-1.2-1.6-2.4-1.9-3.6-0.6-0.6-1.1-1.2-1.3-1.6l-0.6-0.9c-1.4-0.1-2.9-0.5-4.3-1.3-1.9-0.5-4.9-1.8-6.8-5-1.2-1.9-1.6-3.8-1.5-5.5-3.4-1.1-5.1-3.7-5.8-5.2-1.9-4-0.9-7.5 0.5-10-0.8-0.9-1.5-2-1.9-3.3-1.6-4.4 0-7.9 1.8-10.2-2.1-0.5-3.6-1.4-4.8-2.5-1.9-1-5.4-3.3-6.2-8-0.2-1.1-0.2-2.2-0.1-3.2-2.2-2-2.9-4.5-3.1-6.3-0.2-1.7-0.1-4 1.3-6.3-2.2-2.3-2.7-5-2.7-6.9 0-3.3 1.3-5.7 3.1-7.3-2.3-1.8-3.2-4.2-3.6-6-0.8-4 0.7-6.9 2.6-8.9-0.2-0.4-0.3-0.9-0.5-1.4-0.5-0.3-1-0.8-1.5-1.2-0.8-0.5-1.8-1.3-2.8-2.5-1.3-1.6-3.7-5.5-1.4-10.7 0-0.1-0.1-0.3-0.1-0.4-2.2-0.3-4.4-1.3-6.3-3.6-0.1-0.1-0.2-0.2-0.2-0.3-5.4 2-9.3-0.7-10.4-1.7-0.8-0.7-1.8-1.8-2.5-3.2-1.8 0-3.6-0.5-5.6-1.8-0.9-0.6-1.6-1.3-2.2-2-1-0.3-2-0.8-3.1-1.6-3.4-2.5-4.3-5.8-4.1-8.8-1.7-0.5-3-1.4-3.5-1.9-2.2-1.8-3.2-4.1-3.6-5.9-1-0.9-1.7-1.9-2.2-2.9-5 0.9-8.2-1.8-9.2-2.9-1-1.1-3.8-4.5-2.6-9.6-0.1-0.2-0.3-0.3-0.4-0.5-1.3-1.5-2-3.1-2.3-4.7-0.1-0.1-0.2-0.2-0.3-0.4-3.6 0.8-8.3 0.8-11.6-3.9-1.1-1.6-3-5.3-1-9.9-2-0.6-3.5-1.7-4.5-2.8-1-0.7-2.7-2.1-3.9-4.4-2.3-4.3-1-8.1 0.8-10.8-6.8-0.2-9.2-4.7-9.9-6.8-2.5-7.3 3.1-11.6 6.5-13.9 0.1-0.5 0.2-0.9 0.4-1.3-1.7-0.5-3.5-1.3-4.9-2.7-2.1-1.1-5.6-3.6-6.2-8.6-0.1-0.8-0.2-2.4 0.4-4.2-1.7-2.3-2-4.7-2.1-5.8-0.1-2.8 0.9-5.1 1.6-6.4 0.1-0.2 0.1-0.4 0.2-0.6-0.2-0.9-0.3-1.9-0.2-3 0.2-5.1 3.3-7.7 6.6-9 0-0.2-0.1-0.5-0.1-0.7-0.2-0.8-0.5-2-0.6-3.3-3.9-3.7-3.3-8.2-2.9-9.7 0.5-2.1 1.4-3.6 2.6-4.8-0.1-1-0.1-2 0.1-3.1 0-1 0-2.7 0.6-4.6 1.6-4.7 5.4-6.4 8.2-7.1-3.7-4.6-2.4-9-1.5-10.9 0.6-1.2 2.3-4.2 6.2-5.4 0.2-0.5 0.4-1.1 0.7-1.7 1.2-2.3 2.8-3.6 4.6-4.4-1.8-3-2.8-6.9 0-11.2 2.6-4 6.3-4.8 9.5-4.6-3.1-5.4-1-9.6 0.7-11.7 0.9-1.1 2.2-2.3 4.1-3.1-0.5-1.6-0.6-3.5-0.1-5.5-0.4-1.2-0.6-2.7-0.4-4.2-1-0.8-1.8-1.8-2.6-3.1-3.6-6.3 0.8-11.7 2.7-13.9 0-0.1 0.1-0.2 0.1-0.3-1.2-1-1.9-2.2-2.5-3.2-5.9-1.7-7.2-6.1-7.5-8.8-0.1-0.7-0.1-2.1 0.4-3.8-0.3-1-0.5-1.8-0.6-2.5v-0.1c-0.2-0.9-0.6-2.4-0.5-4.2 0-2 0.7-6.2 5.3-8.7 0.8-2.8 2.7-4.6 4.7-5.8-2.6-1.6-5.4-4-6.1-7.6-0.8-1.7-1.8-4.5-0.9-7.9 0.7-2.8 2.3-4.7 4.1-5.8 0-0.1 0.1-0.3 0.1-0.4-0.8-2.7-0.1-5.1 0.2-6.1 1-2.8 2.8-4.5 4-5.4 0.1-0.1 0.2-0.3 0.3-0.4-0.4-1.8-0.3-3.9 0.7-6.1 0.9-2 2.1-3.4 3.5-4.3 0.1-0.3 0.3-0.6 0.4-0.9 0.9-1.9 3.5-5.8 9.4-5.7-3.3-5.4-1-9.9-0.1-11.2 0.5-0.8 1.8-2.5 3.9-3.6 0.2-1.3 0.8-2.7 1.8-4 0.8-1.2 1.8-2.1 2.8-2.7 0.3-0.6 0.6-1.1 1-1.7-0.1-2.2 0.5-4.5 2.4-6.8 1.6-1.9 3.4-2.9 5.2-3.4 0.1-0.1 0.1-0.2 0.2-0.2l1.1-1.1c0.6-1.9 1.6-3.3 2.4-4.1 0.9-0.9 1.8-1.6 2.7-2.1 0.4-0.8 1-1.5 1.7-2.3 1.8-1.8 3.8-2.6 5.7-2.9 0.2-1.2 0.7-2.5 1.5-3.7 0.5-1.3 1.4-3.1 3.3-4.8 1.7-1.5 6-4.2 12-1.1 0-2.8 0.9-5.9 4.1-8.3 1.6-1.2 3.2-1.8 4.7-2 0.7-3.7 3.2-5.7 4.3-6.4 1.4-1 4.4-2.4 8.2-1.4 0.7-3.9 3.4-5.9 4.9-6.8 2.3-1.3 4.6-1.5 6.1-1.5 0.8-1.8 2.2-3.5 4.6-4.7 6.3-3.2 11.3 1 13.7 3.4l1.2-0.3c0.6-2.1 1.9-5.1 5.2-6.9 1.5-4 4.9-5.5 6.1-5.9 1.1-0.4 3.8-1.1 6.9 0.1 1.9-2.3 4.2-3.1 5.2-3.4 2.3-0.6 4.3-0.5 5.9 0.1 0.7-0.9 1.5-1.7 2.6-2.4 1.2-1.2 3.3-3 6.4-3.5 1.8-0.3 3.3-0.2 4.2-0.1 2.9-0.2 5.2 0.8 6.9 2.1h0.8c1.6-2.1 4-3.7 7.6-3.8 1.3 0 2.8 0.1 4.4 0.8 2.1-1.2 4.3-1.3 5.5-1.3 1.6 0.1 3.5 0.5 5.2 1.8h1.1c0.9 0 1.9 0.1 3 0.4 1.2-0.2 3-0.3 5.1 0.5 0.3-0.2 0.7-0.5 1-0.7 1.3-0.7 2.6-1.1 3.8-1.3-0.7-2.7-0.4-5.6 2-8.6 2-2.5 4.5-3.5 6-3.9 0.5-0.3 1.1-0.6 1.7-0.8 0.2-0.5 0.3-0.9 0.5-1.3 0.2-0.9 0.6-2.1 1.3-3.4 0.4-1.5 1.3-3.9 3.5-5.9 1.7-1.5 4.8-3.4 9.1-2.2 0.5-4 3.1-6.3 4.2-7 0.2-0.2 0.5-0.4 0.9-0.6 1.1-2.3 2.8-3.6 3.6-4.1 1.5-1 3.1-1.5 4.6-1.7 0.4-0.3 0.8-0.6 1.3-0.9 0.2-0.1 0.5-0.3 0.7-0.5 0.5-0.4 1.2-0.8 1.9-1.2 2.7-1.6 5.2-1.7 7.3-1.2 3.2-1.5 6-1.1 8.4 0 2-0.6 3.9-0.5 5.6 0 0.6-2.6 2.2-5 5.6-6.6 1.3-0.6 2.5-0.9 3.7-0.9 1-4.4 4.3-6.3 6.1-7 1.3-0.5 3.9-1.2 6.7-0.3 0.8-2.7 2.6-5.7 6.7-7.1 0.5-0.2 1.2-0.4 2.2-0.5 1.3-1 2.6-1.6 3.4-1.9 2.2-0.7 4.2-0.6 5.9-0.1 0.1 0 0.2-0.1 0.3-0.1 2.4-0.7 4.5-0.6 6.2 0.1 0.8-0.5 1.8-0.9 2.8-1.2 4.9-1.3 8.4 1 10.6 3.3 0.6-0.3 1.4-0.5 2.2-0.7 1.1-2.7 3.2-5.9 7.8-6.9 3-0.6 5.5 0.1 7.2 1 1.3-2.5 3.4-4.6 7.3-5.2 1.8-0.3 3.3-0.1 4.6 0.3 1.1-0.8 2.6-1.3 4.3-1.5 5.6-0.8 8.8 2.6 10.7 5.9 0.6-0.2 1.2-0.3 1.9-0.4 0.9-0.1 1.7-0.1 2.3 0 2.1-6.1 6.9-7.1 9.1-7.2 2.8-0.2 5 0.8 6.5 1.6 1.3-0.7 3.2-1.6 5.6-1.6 0.8 0 1.6 0 2.2 0.1 1-0.4 2.3-0.7 3.8-0.7 1.4 0 2.4 0.2 3.1 0.3h0.2c1.2 0 2.3 0.3 3.2 0.6 0.8-0.1 1.6-0.2 2.6-0.2 0.5 0 1.4 0.1 2.4 0.4 1.5-0.5 2.8-0.5 3.7-0.5 1.3 0.1 2.4 0.3 3.4 0.7 1.6-0.9 3.5-1.4 5.8-1.2 2.5 0.2 6.5 1.4 8.5 6.3 2 0.2 3.6 0.9 4.9 1.9 2-1.4 4.1-1.7 5.6-1.7 1-0.2 2.6-0.4 4.6-0.1 1.4 0.2 2.6 0.7 3.6 1.3 3.1-3.1 6.7-3.1 8.9-2.7 0.7 0.1 1.8 0.4 2.9 1 2.4-1.1 4.7-1 6.4-0.6 2.2 0.5 5.5 1.9 7.1 6 1.2-0.2 2.5-0.1 3.9 0.3 2 0.5 6.2 2.3 7.4 8 0.3-0.1 0.7-0.2 1-0.3 1.8-0.9 4.8-1.9 8.4-0.7 1.3 0.4 2.3 0.9 3.2 1.6 3.9-3 7.8-2.2 9.6-1.6 3.6 1.3 5.4 3.8 6.2 6.4 0.3 0.1 0.6 0.2 1 0.3 1 0.4 3.1 1.4 4.6 3.7 0.4 0 0.7 0.1 1.1 0.2 2.5-1.5 5.6-2.3 9.4-0.5 2.2 1 3.6 2.5 4.6 4.1 2-0.5 4.2-0.3 6.7 1 2.3 1.2 3.7 2.9 4.5 4 1.7 1.6 2.6 3.5 2.9 5.4l1.2 0.6 0.6 0.3c0.6 0.3 1.3 0.7 2.2 1.2 0.7 0.4 1.4 0.9 1.9 1.3 0.2 0.2 0.5 0.3 0.7 0.5 0.2 0.1 0.3 0.2 0.5 0.3 1.8 0 3.7 0.5 5.6 1.8 0.7 0.5 1.6 1.2 2.4 2.2 2 0 4.1 0.6 6.2 2.2 1.2 1 3.3 3 3.8 6.3 2 1.9 2.9 4 3.1 6.1 1.7 0.3 3.5 1.2 5.1 2.8l0.1 0.1c0.7 0.5 1.8 1.3 2.8 2.6 0.3 0.4 0.6 0.7 0.8 1.1 5-0.4 7.8 2.4 9.1 4.3l0.2 0.2c0.7 0.8 1.8 1.9 2.6 3.5 1.1 2.2 1.4 4.3 1.3 5.8 1.3 0.8 2.5 1.9 3.4 3.3 0.3 0.5 0.6 1 0.8 1.5 0.5-0.7 1-1.4 1.7-2 1-1.6 2.9-4.3 6.4-5.4 1.1-0.6 2.9-1.6 5.4-1.8 3.8-0.3 6.7 1.3 8.6 3 1.3-0.6 2.9-1 4.8-1 1 0 2.2 0.1 3.2 0.1 1.8 0.1 3.2 0.6 4.1 0.9 1.9 0.3 3.4 1 4.6 2 1.1-0.3 2.4-0.3 3.8-0.1 1.2 0.2 4.3 0.9 6.5 3.7 1.1-0.8 2.7-1.7 4.6-2 1.7-0.8 4.6-1.8 8-0.9 0.3 0.1 0.6 0.2 1 0.3 1.2-0.3 2.4-0.3 3.3-0.3 1.1-0.1 3.1-0.2 5.4 0.5 1.1 0.4 2 0.8 2.7 1.1 0.1 0.1 0.3 0.1 0.4 0.2 2.4 0.8 3.9 2.3 5 3.7 1 0.1 2.1 0.3 3.2 0.8 0.8 0.3 1.8 0.8 2.9 1.7 2.7-0.6 5 0.1 6.3 0.7 4.6 2.1 5.9 6.4 6.3 8.6 0.5 1 0.9 2.1 1 3.5 2.8-1.8 6.7-3.1 11.2-0.5 1 0.6 1.8 1.2 2.5 2 0.9 0.2 1.9 0.6 2.8 1.2h0.1c1.9-0.1 4 0.3 6.1 1.7 2.2 1.4 5.2 4.4 4.5 9.9 4.8-2.4 8.5-0.6 10.6 1 1.4 1.1 3.9 3.6 4 7.7 1.3 0.4 2.6 1 3.9 2.1 2 1.7 2.9 3.7 3.4 5.5 0.8 0.4 1.6 1 2.5 1.7 1 1 1.8 2 2.3 3.1 4.7-0.9 7.8 1.5 9.1 2.9 5.6 5.8 1.6 12.7 0 15.3v0.1c1.5 0.8 2.4 1.9 2.9 2.5l0.2 0.2c1.7 0.5 3.4 1.6 4.8 3.5 0.4 0.5 0.7 1 1 1.6 3.8-1 9.1-1.3 12.6 4 1.1 1.7 2.9 5.5 0.6 10.2 1.5 0.7 3.6 2 5.1 4.4 2.2 0.8 4.2 2.3 5.6 5.1 0.5 1.1 1.2 2.9 1 5.2 1.4 1.2 2.2 2.6 2.7 3.8 1 2.3 1 4.4 0.5 6.2 0.7 0.9 1.3 1.9 1.8 3.2 1.1 3.3 0.4 6.2-0.3 8v0.5c0.5 3-0.5 5.5-1.2 7-0.1 0.3-0.1 0.6-0.2 0.9 7.4 0.8 9.3 5.6 9.8 8.5 0.4 2.2 0.1 4-0.6 5.6 0.8 1.2 1.3 2.7 1.4 4.6 0.2 2.2-0.2 4-1 5.4 1.5 1.5 2.6 3.6 2.7 6.4 0.2 3-0.8 5.2-2.2 6.9 0.4 0.9 0.7 2 0.9 3.1 0.4 2.9-0.4 5.1-1.5 6.9 0 1.3-0.2 2.8-0.9 4.5 3.1 0.6 7 2.3 8.5 7.3 0.7 2.2 0.6 4.5-0.2 6.6 3.1 1.3 4.6 3.9 5.2 5.3 0.3 0.7 0.6 1.5 0.7 2.4 0.6 0.7 1.1 1.5 1.4 2.2 0.3 0.7 0.6 1.2 0.9 1.8l0.2 0.4c1.9 3.6 1.2 7 0.5 9-0.1 1.6-0.7 3.1-1.4 4.4 0.5 0.8 0.8 1.6 1 2.3 2 0.9 3.3 2.3 4.1 3.2 0.6 0.6 1.5 1.5 2.4 2.9 1.2 1.9 1.6 3.7 1.6 5.4 3.7-0.3 8.4 0.4 11 5.5 1.3 2.6 1.4 4.9 0.9 6.9 0.4 0.9 1 2.8 0.8 5 3.6 1.4 5.1 4.3 5.7 5.8 0.3 0.8 0.6 2 0.7 3.4 0.7 1 1.1 2 1.4 2.7 0.1 0.4 0.3 1 0.4 1.8 1.5 1.6 2.1 3.3 2.4 4.2 0.8 2.7 0.4 5-0.5 6.9 0.5 0.9 0.9 1.9 1.2 3.1 0.5 2.4 0.5 6.2-3 9.4 0 0.7-0.1 1.3-0.3 1.9 0.2 0.7 0.4 1.5 0.5 2.3 0.3 2.9-0.6 5.2-1.8 7 0.7 1.3 1.5 3.2 1.6 5.6 0.3 0.4 0.6 0.8 0.8 1.2 1.6 1.6 3.9 4.6 3.5 9-0.1 0.8-0.3 2-0.8 3.2 1.1 1.8 1.7 4.1 1.2 7-0.4 2.3-1.4 3.9-2.1 5v0.1c0.4 1.8 0.2 3.5-0.2 4.8-0.6 2.2-2.7 7-9.7 7.6 0 0.4-0.1 0.9-0.2 1.3 1.9 3.6 1 7 0.3 8.6-1.1 2.5-2.7 4-4.5 4.9-0.2 1.4-0.7 2.5-1 3.1-1.2 2.3-2.8 3.6-3.9 4.3-0.3 0.4-0.8 0.8-1.2 1.1-0.1 1.6-0.5 3.4-1.7 5.3-0.7 1.1-1.5 1.9-2.3 2.6 2.4 5.1 0.2 9-1.1 10.6-2.8 3.6-6.3 4.2-9.4 3.9-0.1 0.3-0.3 0.7-0.5 1-0.2 0.8-0.6 2-1.3 3.1 0.5 2.8 0.3 6.5-2.8 9.6-1.5 1.5-3.2 2.3-4.1 2.8-1 0.7-2.5 1.4-4.3 1.7-0.5 0.9-1.3 1.9-2.3 2.7-1.6 1.4-3.4 2.1-5 2.4-0.9 1.6-2 2.7-2.7 3.2-0.9 0.7-2.2 1.5-3.7 1.9-0.6 0.6-1.2 1.1-1.6 1.5-1 0.7-2.7 1.7-5 1.9-0.6 3.4-2.8 5.4-4.5 6.4-0.9 0.6-2.4 1.3-4.3 1.5-0.6 0.5-1.1 0.8-1.5 1.1-1.3 0.8-4 1.9-7.2 1.2-0.9 1.7-2.3 3.2-4.5 4.3-0.5 0.2-0.9 0.4-1.4 0.6l0.4 1.3c0.7 2.6 0.4 4.7-0.3 6.5 0.8 1.3 1.1 2.5 1.3 3.2 0.3 1.4 0.5 4.1-0.9 6.8 2.2 2.2 2.7 4.9 2.8 6 0.1 1.4 0.1 3.8-1.3 6.2 0.3 0.8 0.5 1.6 0.6 2.5 1.5 1.7 2.9 4.1 2.9 7.5 0 1.2-0.4 4.4-3 7 0.7 1.3 1.2 2.9 1.1 4.8 2.5 2.8 2.5 6 2.1 8.1-0.4 2.3-2 7.3-9 8.5-0.5 1.7-1.3 3-2.2 4-0.1 0.4-0.2 0.9-0.3 1.4-0.2 0.6-0.4 1.2-0.7 1.7 0.8 2 1.4 4.9 0.1 8.1-0.3 0.8-0.7 1.5-1.1 2.2 0 1.2-0.3 2.5-0.9 3.9-0.8 1.8-1.9 3.1-3.1 4-0.1 0.2-0.1 0.3-0.2 0.5 0.6 2.2 0.6 4.9-1 7.7-1.8 3.3-4.4 4.6-7.1 5 1.1 4.2-0.8 7.4-1.6 8.5-2.3 3.1-5.3 4.1-7.8 4.3-0.5 2-1.6 3.3-2.1 4-0.5 0.5-1 1-1.5 1.4-0.4 1.2-1.2 2.5-2.3 3.7-2.1 2.2-4.4 3.1-6.6 3.2-0.4 0.6-0.9 1.2-1.6 1.8-1.9 1.8-3.9 2.6-5.8 2.7-0.4 0.3-0.7 0.6-1.1 0.8-0.3 2.1-1.2 4.9-3.9 7-0.6 2-1.7 4.1-4.1 5.7-0.4 0.3-0.8 0.5-1.2 0.7-0.2 2.7-1.5 5.4-4.7 7.4-0.9 0.5-2.3 1.3-4.1 1.5-0.8 1.4-2 2.7-3.8 3.7-7.3 4.1-12.9-2-15.6-4.9l-0.2-0.2c-0.3 0.3-0.7 0.7-1.1 1-0.5 1.9-1.4 3.8-3.2 5.4-0.6 5.3-4.4 7.6-6 8.3-1.5 2.7-3.9 3.9-5.2 4.4-1.2 0.5-3.3 1-5.7 0.5-1.5 2.7-3.9 4-5.7 4.6-0.8 0.3-1.6 0.5-2.2 0.6-0.3 0.1-0.6 0.1-0.8 0.2-1.8 0.6-8 1.8-12.5-5.4-0.4-0.6-0.7-1.2-1.1-1.8-0.2 0.1-0.4 0.1-0.6 0.2-0.7 2.1-2 4.6-4.5 6.2-0.9 3.2-3 7.1-8.2 8.1-3 0.6-5.5-0.2-7.3-1.1-1.3 1.1-2.9 1.9-5.1 2.3-4.9 0.7-8-1.9-10-4.3-1 0.1-1.9 0.1-2.8-0.1-1.4 3-4 6.1-8.9 6.3-5.1 0.3-8.1-2.8-9.7-5.5-0.1 0-0.3-0.1-0.4-0.1-1.7 2.5-4.4 4.4-8.6 4.3-3.2-0.1-5.5-1.5-7.1-3.2-0.5 0-1 0.1-1.5 0-0.8 0.1-2.1 0.3-3.7 0.1-1.1-0.1-2-0.3-2.7-0.5-0.2 0-0.3-0.1-0.5-0.1-2.9-0.4-4.9-1.8-6.2-2.9-0.8 0.1-1.7 0-2.7-0.1-2-0.3-3.5-1.1-4.7-2-0.4 0-0.8-0.1-1.2-0.2-2-0.4-3.5-1.2-4.6-2.3-3.4 2-6.8 1.3-8 0.9-1-0.3-1.8-0.7-2.5-1.1-1.9 1.3-4.3 2-7.5 1.4-0.3-0.1-0.5-0.1-0.8-0.2-1.2 0.9-2.7 1.6-4.7 1.8-1.1 0.2-2.3 0.2-3.6-0.1-0.5 0.3-1 0.7-1.6 1-2.9 1.5-5.5 1.5-7.8 0.7-1.1 1.5-2.5 2.3-3.5 2.8-1.2 0.6-2.4 1-3.1 1.2-0.1 0-0.2 0.1-0.3 0.1-0.9 0.4-2.7 1-4.8 0.8-0.5 0.3-1 0.5-1.3 0.7-1.2 0.5-4.6 1.5-8.2-0.3-0.7 1.9-1.9 3.3-3 4.2-1 1.3-3 3.5-6.4 4.4-3.5 0.9-6.3 0.1-8.4-1.5-1.2 0.9-2.7 1.6-4.5 2h-0.1c-0.4 0.4-0.9 0.8-1.4 1.2-1.3 1.5-3.6 3.7-7.4 4.1-2.8 0.3-5-0.4-6.8-1.5-1.5 1.2-3.4 2.2-6 2.3-0.9 0-2.7 0-4.6-0.9-0.7 0.1-1.3 0.2-1.7 0.2-3.9 0-6.5-1.8-8.2-3.9-0.9-0.1-1.6-0.3-2.1-0.5-0.4-0.1-0.8-0.1-1.3-0.3-1.6 1.7-4.6 5.6-9.9 5.6z m43.4-4.1z m-57.5-5.4c0.4 0.1 0.9 0.3 1.4 0.4-0.4-0.1-0.8-0.2-1.4-0.4z m-7.8-1.2c0.1 0 0.1 0 0 0 0.1 0 0.1 0 0 0z m-12.4-2.4c0.1 0 0.1 0 0 0 0.1 0 0.1 0 0 0z m-131.5-2.2z m126.4-2.3z m194.3-0.1z m-283.6-1.1h-0.2 0.2z m329.5-0.8z m-15.2-0.2z m0 0z m-39.9-0.5c0.1 0 0.1 0 0 0 0.1 0 0.1 0 0 0z m0 0z m-329.4-0.5z m196.3-5z m11.2-5.6c2 0 5.8 0.6 8.5 4.5 0.7-0.2 1.5-0.4 2.3-0.5 1.5-0.2 2.9 0 4.1 0.4 0.6-0.4 1.3-0.8 2.1-1.1 0.6-3 2.4-8.1 8.4-9.4 1.8-0.4 3.4-0.3 4.8 0.1 1.6-2 3.7-2.9 4.9-3.3 1-0.3 2-0.5 2.9-0.5 1-1 2.3-2 3.9-2.6 1.2-0.5 3.5-1 6-0.4 1-2.8 3.1-4.3 4.6-5.2 3.3-1.8 7-1.7 10.8 0.3 0.6 0.1 1.2 0.3 1.7 0.5 1.3-6 6.1-7.6 7.7-8 1.4-0.3 3.7-0.6 6.2 0.5 1.6-1.2 3.6-2 6.2-1.9 1.6 0 6 0.6 8.6 5.2 1 0 1.8 0.1 2.3 0.3h0.3c0.8 0.1 2.1 0.3 3.4 0.7 3.4-2.6 7-2.2 8.6-1.8h0.2c0.6 0.1 1.5 0.2 2.6 0.5 2 0.5 3.6 1.5 4.7 2.6 0.8 0 1.5 0.1 2.4 0.2 5.7 1.1 7.6 5.4 8.2 9.3 1.8-2.9 4.6-5.4 9.5-5 3.3 0.2 5.5 1.7 7 3.5h0.5c1.4-0.9 3.3-1.6 5.7-1.7h0.1c3.4 0 5.7 1.4 7.3 3.1 1.3-2.6 3.8-5.6 8.5-6 5-0.5 8 2.2 9.8 5.2l1.8 0.6c0.8-0.4 1.7-0.6 2.8-0.8 2.9-0.5 5.2 0.2 7 1.4 0.4-0.3 0.9-0.7 1.5-0.9 0.1-0.2 0.2-0.4 0.2-0.5 0.2-2.9 0.8-10.3 8.3-12.2 2.8-0.7 5.1-0.2 7 0.8 1.9-0.3 3.6 0 5.1 0.5 1.3-3.5 4.1-5.1 6.1-5.8 1.4-0.5 2.6-0.6 3.8-0.6 0.4-0.2 0.9-0.5 1.5-0.6 1.2-0.4 2.9-0.8 4.8-0.6l0.6-0.3c0.7-0.3 2.1-0.7 3.8-0.7 0.4-0.3 0.8-0.5 1.2-0.6 0.9-1.5 2.3-2.9 4.5-3.8 0.5-0.2 1-0.4 1.5-0.5 0.9-1.7 2.3-3.5 4.8-4.8 4-2 7.6-1 10 0.2 0.8-1.2 1.9-2.3 3.4-3.2 1.4-0.9 4.4-2.2 8.2-1 1.4-0.6 2.8-0.7 4-0.7 0.4-0.4 0.8-0.9 1.4-1.3 0-1.8 0.3-4.1 1.7-6.3-0.4-2.9 0.1-6.2 3.3-9 1.1-1 4.6-3.5 9.5-2.2 0.3-0.9 0.7-1.8 1.3-2.6-0.1-3.5 1.6-5.9 2.3-6.8 1.6-1.9 3.4-2.9 5.2-3.4-0.3-2.1 0-4.6 1.7-7.1 2.2-3.4 5.3-4.4 8-4.6 0.6-0.6 1.3-1 2-1.4-0.1-1.6 0.1-3.3 1-5.1 0.6-1.2 1.2-2.1 2-2.9 0.1-0.5 0.3-1 0.5-1.6 0.2-0.6 0.5-1.1 0.8-1.6-0.6-1.8-0.7-3.8 0.1-6.2 0.3-0.9 0.7-1.7 1.1-2.4-2.3-3.3-1.9-6.7-1.6-8 0.5-2.2 1.5-3.8 2.7-5 0-0.7 0-1.4 0.1-2 0.2-1.6 1.1-4.6 4-6.7-0.2-0.9-0.3-1.9-0.3-3 0-0.8 0.2-2.5 1.2-4.3-2.3-1.5-4.7-3.9-5-8-0.1-1.1 0-2.9 0.8-4.9-1-1.2-1.8-2.8-2.2-4.8-0.2-1.3-0.4-3.6 0.7-6-0.3-1.8-0.1-3.3 0.3-4.7-3.5-1.1-7.6-3.1-8.8-8.3-0.2-0.9-1.1-7.8-0.2-11.2l1.1-4.3 3.9-2.2c2.1-1.1 4-1.5 6.2-1.2 0.3-3.3 1.7-7.1 6.3-9 4.1-1.7 7.3-0.6 9.9 1.1h0.2c0.7-2 2.1-4.6 5-6.2 0.5-0.3 1.3-0.6 2.2-0.9l0.8-0.8c0.6-3.3 2.7-5.2 4.3-6.3 1.9-1.2 3.8-1.7 5.4-1.8 0 0 0.1-0.1 0.2-0.1 0.8-1.7 2.1-2.9 3.1-3.7 1.7-1.3 4.7-2.8 8.5-1.8 1.7-0.8 3.4-1 5-0.9 0.5-1 1.3-2 2.3-3 1.5-1.4 5.4-4.1 11-1.9 0.1-0.2 0.2-0.5 0.3-0.7-1-2.8-1.6-7 1.6-10.9 0.5-0.5 0.9-1 1.4-1.4-0.6-2.3-1-5.9 1.5-9.5 1.2-1.7 2.6-2.7 3.7-3.4 0-1.7 0.4-3.4 1.5-5.3 0.3-0.5 0.8-1.2 1.5-2-0.1-2.2 0.6-4.1 1.1-5.1 0.5-1.1 1.1-1.9 1.8-2.6-0.1-1.8 0.4-3.3 0.8-4.2 0.5-1.1 1.8-3.7 4.9-5.2 0.1-0.2 0.1-0.5 0.2-0.7 0.2-0.7 0.5-1.3 0.8-1.9-0.7-2.1-0.6-4.1-0.2-5.6 0.3-1.2 0.8-2.6 1.9-4-1-2.2-1-4.3-0.9-5.6 0.2-1.8 1-4.4 3.3-6.4v-0.6c0.1-3.6 1.8-6 3.9-7.6-0.2-0.7-0.4-1.6-0.5-2.5-0.3-0.4-0.6-0.9-0.9-1.4-5-1.9-6.3-6.2-6.5-7.7-0.5-2.6-0.4-6.9 4.4-10.2-0.4-0.4-0.6-0.9-0.9-1.3-3.4-1.3-5-4.1-5.7-6-0.4-1-0.7-2.4-0.6-3.9-0.2-0.4-0.4-0.9-0.6-1.2-0.5-1.3-0.7-2.6-0.8-3.7-0.2-0.4-0.5-0.8-0.7-1.3-0.5-1.1-1.4-3.9-0.4-7.2-3 0-7-0.9-9.5-5.2-1-1.7-1.4-3.2-1.4-4.7-2.5-1-3.9-2.9-4.5-3.7-0.5-0.8-1.6-2.7-1.7-5.2-1-0.7-2-1.7-2.8-3.1-2.4-3.9-1.8-7.4-0.3-10.2-3.8-1.1-5.5-3.9-6.2-5.4-0.7-1.6-1.7-4.9 0.1-8.5-0.2-0.7-0.3-1.4-0.4-2.1-0.6-0.8-1.1-1.7-1.5-2.8-0.5-1.4-0.8-3.4-0.3-5.6-2-1.2-3.8-3.1-4.6-6.2-2.4-1-5.9-3.3-6.9-8-0.5-2.5-0.7-8.5 7.3-12-0.1-0.5-0.2-0.9-0.3-1.4-0.2-1.7 0-3.1 0.3-4.3-0.1 0-0.2 0-0.3-0.1-8.6-1.9-9.4-8.3-9.4-10.2-0.1-3.3 1.2-5.7 2.9-7.4-3.5-1.8-4.8-4.9-5.2-7-0.3-1.7-0.2-3.2-0.1-4.1-0.2-3.1 1-5.6 2.6-7.4 0.1-3 1.5-5.3 3-7-0.7-0.6-1.4-1.4-1.9-2.4-7.7 1.1-10.8-3.1-12-5.8-2-4.5-0.3-8.3 1.3-10.7-2.1-0.6-4.1-2-5.6-4.6-0.9-1.6-1.3-3.2-1.5-4.6-0.1-0.1-0.2-0.3-0.3-0.4-0.4-0.7-1-1.8-1.3-3.2-2.1-0.4-4.5-1.5-6.4-4 0-0.1-0.1-0.1-0.1-0.2-1.4-0.6-2.8-1.6-4-3.1-1-1.3-1.6-2.6-2-3.9l-0.6-0.6-0.2-0.2-1.7-1.7c-0.8-0.9-1.3-1.7-1.7-2.3l-0.1-0.1c-1.6-1.8-2.3-3.7-2.4-5.5-0.6-0.4-1.1-0.9-1.5-1.2-2.8-2.8-3.2-6.2-3.2-8.2-0.5-2-0.4-3.8-0.2-5.1 0-0.1 0-0.3-0.1-0.4-1.6 0.2-3.4 0-5.1-0.9-2 0.5-4.3 0.5-6.7-0.5-3.6 1.1-6.6-0.1-8.7-1.7-1.7-1.3-2.8-2.9-3.4-4.4-0.5-0.3-1.3-1-2.1-2-1-0.4-1.8-0.8-2.2-1.1-2.5-1.6-6-5.4-3.7-12.5-0.1-0.2-0.2-0.3-0.3-0.5-1.2 0.2-2.5 0.1-3.8-0.3-1.9 0.6-4.8 1.1-7.9-0.2-1.9 0.4-4.2 0.3-6.6-0.9-0.8-0.4-2.3-1.3-3.6-3-1.6 0.3-3.9 0.3-6.3-0.7-2.1-0.9-6.7-3.6-6.2-10.9l-0.3-0.3c-3.8 3.7-8 3.1-9.9 2.5-0.8-0.2-1.5-0.5-2.2-0.9-3.5 3.1-7.5 2.7-8.9 2.4-0.9-0.2-1.7-0.5-2.4-0.8-0.8 0.1-1.7 0-2.6-0.1-1.4-0.2-5.3-1.3-7.4-5.6-3.4-0.5-5.5-2.2-6.9-4.3-0.9 0.2-1.8 0.4-2.8 0.4-3.5 0-6-1.6-7.5-3.2h-0.2c-0.5 0.9-1.1 1.9-1.9 2.8-1 2.3-3.2 6.3-8.4 7.2-3 0.5-5.3-0.2-7.2-1.3-1.3 0.1-2.5 0-3.4-0.2-0.5 0.5-1.1 1-1.7 1.4l-4.2 2.8-4.8-1.8c-3.8-1.4-5.6-4.3-6.5-6.7-2.7 0.4-4.9 0.2-7.3-1.1-2.4-1.3-4.2-3.6-4.9-6.2-0.7-2.4-0.5-4.4 0.2-6.1-1.2-0.8-2-1.8-2.6-2.7-0.9-1.3-1.4-2.5-1.7-3.6-0.3-0.1-0.5-0.2-0.8-0.3-1.8-0.2-4.4-0.9-6.6-3.1a9.59 9.59 0 0 1-2.8-4.6c-0.8-0.4-1.4-0.9-1.8-1.2-0.4-0.3-0.9-0.8-1.5-1.5-2.7-0.1-4.6-1.3-5.4-1.9-1.8-1.3-5.5-4.8-3.8-11.4-0.2-0.3-0.4-0.6-0.5-0.9-1.6 0.1-3.3-0.2-5.1-1.1-0.7-0.2-1.8-0.6-3.1-1.3-1.4-0.8-2.5-1.7-3.3-2.7-1.2-0.1-2.6-0.4-4-1.1-2-1-3.3-2.4-4.2-3.8-1.7 0.3-3.6 0.1-5.8-0.8l-0.6-0.3c-2.2 1-5.1 1.5-8.3 0.2-1-0.4-3.4-1.6-5-4.3-0.8-0.3-1.4-0.7-2-1.2-2.3 0.5-4.3 0-5.5-0.4-0.2-0.1-0.4-0.1-0.6-0.2-1.5 0.3-3.2 0.2-5-0.4-0.4-0.1-1-0.4-1.8-0.8-3 1.2-5.7 0.6-6.7 0.3-1.9-0.6-3.3-1.5-4.1-2.1-0.1 0-0.1-0.1-0.2-0.1-1.1 0.1-2.3 0-3.5-0.3-1.2-0.3-3.3-1.1-4.9-3-1.6 0.6-3.5 0.8-5.7 0.3-0.9-0.2-1.9-0.6-2.9-1.1-0.9 0-1.7-0.1-2.5-0.2-1.2-0.3-2.3-0.7-3.2-1.2-1.9 0.6-3.7 0.5-5 0.3-1.3-0.2-4.7-1.2-6.9-4.8-1.7 1-3.8 1.5-6.4 1.1-1.7-0.2-3-0.8-4.2-1.5-2.5 1.8-5.2 1.9-6.5 1.8h-0.2c-0.6 0-1.6 0.1-2.8 0-2.3-0.2-5.9-1.3-8-5.3-2.1 1.2-4.1 1.3-5.4 1.3-2.5-0.1-8.4-1.2-10.1-9.7-0.1-0.4-0.2-0.8-0.2-1.3-0.5 0.1-1 0.3-1.5 0.4-1.1 3.8-3.6 8.5-9.9 8.8h-0.2c-2.2 3.5-5.5 4.3-7.7 4.5-4.1 0.3-6.8-1.6-8.6-3.6-0.8 0.3-1.6 0.5-2.6 0.6-2.7 0.3-4.9-0.4-6.5-1.4-1.2 0.1-2.2 0-3.2-0.3-0.5 0.1-1 0.3-1.6 0.3-0.5 0.1-0.9 0.1-1.4 0.1-0.9 3.2-3 7.3-8.4 8.2-4.2 0.7-7.1-0.8-9.1-3-1.2 1.2-2.8 2.1-4.9 2.6-0.3 0.1-0.6 0.1-0.9 0.2-1.2 2.1-3.1 4-6.3 4.8-5.2 1.3-8.7-1.3-11-4.1-0.4 0.2-0.9 0.4-1.4 0.5-1.6 0.5-3 0.5-4.3 0.4-1.6 3-4.2 4.2-5.7 4.7-1.1 0.4-2.9 0.8-5 0.4-0.5 3.2-2.1 6.4-6.4 8.1-0.7 0.3-1.6 0.5-2.8 0.7-0.8 0.6-1.6 1-2.2 1.3-2.1 0.9-4 0.9-5.7 0.7-0.9 1.3-2.2 2.5-4.2 3.4-1.5 0.7-3 1-4.3 1-0.3 0.2-0.6 0.3-0.9 0.5-1.5 0.7-2.8 1-3.7 1.2-2.3 0.9-4.3 0.8-6.1 0.3-3.1 1.3-5.9 0.7-8.2-0.5-0.8 0.2-1.6 0.3-2.3 0.3 0.3 5.1-2.8 7.9-4.4 9-0.6 0.4-1.2 0.8-1.8 1-0.6 0.9-1.2 1.5-1.7 1.9 0.5 5-2.4 8-3.5 9-0.8 0.7-2 1.5-3.4 1.9-0.3 2.5-1.7 4.4-2.8 5.6-3.7 3.9-8.2 3.4-11.3 2.5-0.1 0.1-0.1 0.2-0.2 0.3-0.4 0.5-0.8 1-1.3 1.4-0.6 2.7-2.2 4.2-2.9 5-0.1 0.1-0.2 0.2-0.3 0.4-0.6 0.6-1.4 1.5-2.4 2.4-1.8 1.5-3.8 2.1-4.9 2.4-1.7 0.9-3.4 1.1-5 1l-0.2 0.2c-1 1.8-3 4.6-7 5.6-2.3 3.5-5.8 4.3-7.6 4.5-1.9 0.2-5.9-0.1-8.7-3.8-1.6 1.9-4.2 3.9-8.2 3.9-0.8 0-1.7-0.1-2.6-0.3-1.9 1.2-3.8 1.5-4.6 1.5-2.2 0.2-7.2-0.2-10.1-6.2-1 3-3 5.9-7.4 6.9-1.7 0.4-3.3 0.4-4.6 0-1.1 1.4-2.7 2.7-5.1 3.4-3.4 1-6.2 0.2-7.9-0.5h-0.1c-0.1 0-0.2 0.1-0.4 0.1-0.4 0.1-0.8 0.3-1.1 0.4-0.9 1.9-2.5 3.8-5.3 4.9-3.1 1.3-5.9 0.9-8.1 0-0.2 0.1-0.3 0.2-0.5 0.2-2.6 1.2-5 1.2-7 0.7-0.4 0.3-0.8 0.5-1.3 0.8-0.9 0.5-1.8 0.8-2.6 1-0.2 1.9-0.8 3.3-1.5 4.5-0.6 1.7-1.9 4.3-4.8 6-1.1 0.7-2.3 1.1-3.3 1.4-0.4 0.4-0.9 0.7-1.4 1.1-0.7 0.5-1.9 1.1-3.3 1.4-0.7 1.2-1.7 2.3-3.1 3.3-3.5 2.5-7.2 2.1-9.4 1.5 0 2.6-0.9 5.3-3.7 7.6-2 1.7-4.2 2.3-5.5 2.5-1.8 0.7-4.1 1.1-7 0.2-1.7 1.4-3.4 2.1-5 2.4-0.2 0.2-0.4 0.4-0.6 0.5 3.6 6.4 0.6 10.9-0.9 12.6-1.5 1.7-5.6 5-12.2 2.3 0.1 2.1-0.4 4.3-2.1 6.6-0.1 0.2-0.3 0.3-0.4 0.5 0.2 1.9 0.2 4.8-1.7 7.7-1.1 1.6-2.3 2.7-3.6 3.4-0.1 0.1-0.2 0.3-0.2 0.4-0.3 0.5-0.6 0.9-0.9 1.3 1.6 2.6 2.9 6.3 0.8 10.6-1.4 2.8-5 7.1-13.3 5-0.1 0.2-0.1 0.4-0.2 0.6-0.5 1.1-1 2-1.5 2.7 1.6 2.3 2.4 5.1 1.2 8.8-0.7 2.2-1.9 3.8-3.3 4.9-0.1 0.4-0.2 0.7-0.4 1 0.6 1.1 1 2.1 1.2 3.1 2.3 1.8 4.6 4.6 4.3 8.8 0.1 0.8 0.2 2.2 0 3.8-0.4 2.6-1.5 4.5-2.9 5.8v1.2c-0.1 1.2-0.4 2.8-1.2 4.4 2.8 2 3.7 4.8 4 6.8 0.2 1.4 0.1 2.6-0.1 3.7 0 0.1 0.1 0.2 0.1 0.3 0.4 1.9 0.4 3.5 0.2 4.6 0.1 1.6-0.2 3-0.8 4.3 0.6 0.5 1.2 1 1.8 1.7 0.7 0.9 3.8 5.1 1.5 10.6 5 2.6 5.3 7.6 5.3 8.8 0 2.2-0.6 4-0.9 5.2 0 0.1-0.1 0.2-0.1 0.3-0.2 1-0.8 2.8-2.1 4.5 1.8 2.4 4.3 6.6 2 11.7-0.6 1.3-2.3 4.4-6.3 5.5-0.4 0.7-0.8 1.3-1 1.5-0.4 0.4-0.8 0.9-1.4 1.4-0.4 1.2-1 2.1-1.6 2.9-1.8 2.3-4.1 3.4-5.7 3.9-0.5 0.3-1 0.6-1.5 0.8-1.2 1.7-2.6 2.7-4.1 3.4 0.8 2.4 1.3 5.6-0.7 9-1.6 2.7-3.9 4.1-5.8 4.8-0.1 1.1-0.4 2.3-1 3.5-0.1 0.2-0.2 0.3-0.3 0.5v0.4c0.4 1.5 0.7 3.7-0.1 6.3 0.6 1.9 0.7 4-0.3 6.5-0.6 1.7-3.3 7.1-11.3 6.6v0.2c3.2 3.4 2.9 7.2 2.5 9-0.2 1-0.5 1.9-0.9 2.7 0.5 1.4 0.7 3 0.5 4.8-0.2 1.5-0.6 2.7-0.9 3.5-0.6 3-2.3 5-3.6 6.2-0.2 0.3-0.4 0.6-0.7 0.9 2.4 2.2 3 4.9 3.2 6.5 0 0.1 0 0.2 0.1 0.3 0.1 0.6 0.3 1.4 0.4 2.4 0.1 0.6 0.1 1.4 0 2.3 1.9 1.2 4 3.3 4.8 6.9 0.6 2.8-0.1 5.2-0.8 6.8 0.2 1.9-0.1 3.6-0.7 5l0.3 0.3c2.9 0.5 6 2.1 7.7 6 1.4 3.1 1 5.9 0 8.1 2.5 0.4 5.3 1.6 7.2 4.8 1.8 3 1.7 5.9 1.4 7.8 0.1 1.3 0 2.5-0.3 3.6 0.7 0.5 1.3 1.2 1.9 2 0.4 0.6 0.8 1.1 1.1 1.7 0.9 0.5 1.7 1.3 2.5 2.2 1.4 1.7 2.1 3.5 2.3 5.2 0.5 0.3 1 0.7 1.5 1.2 2.7-0.4 6.2-0.2 9.2 2.7 2.7 2.6 3.3 5.7 3.1 8.3 0.4 0.1 0.8 0.1 1.2 0.3 1.7 0 4.3 0.5 6.8 2.4 4.4 3.4 4.3 8 3.4 11.5 3.3-2.1 8.3-4.3 13.4-0.3 1.8 1.4 4 4 3.9 8 1.4 0.5 3.3 1.4 5 3.2 0.4 0.4 0.8 0.9 1.1 1.4h0.1c2 0.3 5 1.2 7.3 4.1 0.8 1 1.3 2 1.6 3 1.2 0.6 2.3 1.5 3.4 2.8 1.1 1.4 2.9 4.3 2.1 8.3 1.3 0.8 3.1 2.1 4.3 4.5 0.8 1.4 2.6 5.6-0.3 10.3 0.2 0.5 0.4 0.9 0.6 1.5 0.2 0.5 0.3 1 0.4 1.5 4.9 1.9 6 6 6.3 8 0.6 4.8-2 8-4 9.8-0.1 0.3-0.1 0.7-0.2 1 2.4 1.8 3.5 4.1 3.8 6 2.4 2.2 2.9 5 3 6.5 0.1 1.1 0 2.2-0.2 3.3l0.3 1.5c0.1 0.9 0.2 2.7-0.6 4.8 1.5 1.6 2.2 3.5 2.4 4.6 0.4 1.7 0.3 3.2 0.1 4.4 0.1 0.2 0.1 0.3 0.2 0.5 0.5 1.6 0.5 3 0.5 3.9 0.7 3.7-0.8 6.6-2.4 8.6 0.1 0.3 0.2 0.6 0.2 0.9 4.7 0.6 6.9 3.8 7.7 5.4 0.9 1.7 1.2 3.3 1.3 4.3 0.4 1.1 0.5 2.2 0.5 3.2 1.4 0.7 2.8 1.8 4 3.6 0.8 1.2 1.3 2.4 1.6 3.3 1.1 0.6 2.1 1.5 3 2.7 0.6 0.7 1 1.5 1.3 2.2 0.6 0.5 1.2 1 1.8 1.7 1.4 1.7 2.1 3.4 2.3 5.1 0.1 0.1 0.2 0.1 0.2 0.2 1.9 0.1 4.7 0.8 7 3.1 3 2.9 3.4 6.2 3 8.9 1.2 0.2 2.4 0.7 3.6 1.5 4.2-2.1 7.7-0.9 10.1 0.8 0.9 0.6 3 2.4 3.9 5.5 1.6 0.2 2.9 0.8 3.9 1.4 0.6 0.4 1.5 1 2.3 1.9 2.1 0 3.8 0.7 4.8 1.2 0.1 0 0.2 0.1 0.3 0.1 0.6 0.2 1.3 0.5 2.2 1 2.3 1.2 3.7 2.8 4.5 4.6 2-0.1 3.6 0.5 4.6 0.9 2.8 1.3 4.4 3.2 5.2 5.3 2-0.7 4.3-0.9 7 0.1 1 0.4 2.5 1.1 3.9 2.6 0.3 0.1 0.6 0.2 0.8 0.3 1.9 0.7 3.3 1.7 4.1 2.4 1.7-0.6 3.9-0.8 6.4-0.1 1 0.3 1.8 0.7 2.5 1.1 0.8 0 1.7 0.1 2.6 0.4 1.1 0.3 2.6 0.9 3.9 1.9 1-0.2 2.2-0.2 3.4 0.1h0.1c0.7 0 1.8 0.1 3.1 0.4 0.8 0.2 1.9 0.5 3 1.2 1.9-0.6 3.6-0.5 5-0.3 1.1 0.2 3.9 1 6 3.5 1.8-1.4 4.1-2.2 7.3-1.9 1.3 0.2 3 0.6 4.5 1.6 1-0.2 2.1-0.4 3.4-0.3 1.6 0.1 4.4 0.7 6.7 3.2h1.2c0.3 0 0.7 0 1.1 0.1 1.6-1.5 3.8-2.7 6.9-2.7h0.2c1.9-1.1 3.8-1.4 4.9-1.5 1.3 0 4.6 0.1 7.4 2.9 0.2 0 0.4 0 0.6-0.1 3.7-0.3 6.4 1.2 8.2 3 1.3-1.1 2.9-2.1 5.1-2.5 1.2-0.2 2.4-0.2 3.4-0.1 1.1-0.9 2.4-1.6 4.2-2 0.8-0.2 2.1-0.4 3.6-0.2 0.6-0.3 1.2-0.5 1.5-0.6 0.3-0.1 0.5-0.1 0.8-0.2 1-0.9 2.2-1.7 3.8-2.3 2.9-1 5.3-0.7 7.3 0.2 0.7-0.7 1.5-1.3 2.1-1.7 1.3-5.8 5.7-7.4 7.9-7.8 1.3-0.2 4.5-0.6 7.5 1.5 1.8-1.7 4.6-3.6 8.7-3.2 1.1 0.1 3.7 0.6 6 2.7 2.6-0.8 5-0.2 6 0.1 3 0.9 4.8 2.9 5.8 4.1 0.6 0.4 1.2 1 1.7 1.6 3.4-0.5 6 1 7 1.7 1.5 1 2.5 2.2 3.1 3.1 0.9 0.8 1.7 1.9 2.3 3.3 1.3 0.1 2.6 0.3 4 1 4.1 1.9 5.5 5.4 5.9 8.2 0.4 0.3 0.7 0.6 1 0.9 0.7 0.5 1.3 1 1.8 1.5 1.7-0.6 4-1 6.6-0.2 0.3 0.1 0.6 0.2 0.8 0.3 1.8-2.2 5.3-5.6 10.9-4.5 1.2 0.2 4.3 1.1 6.5 4.3 1.5-0.3 2.7-0.3 3.4-0.2 1 0.1 2.3 0.4 3.5 1.1 1.7-1.4 4-2.5 7.1-2.3 4.5 0.2 7 2.6 8.4 5.4 1.9-1.1 3.8-1.3 4.7-1.4 0.1 0.7 0.2 0.6 0.3 0.6z m-89.4 4.3c0.1 0.1 0.2 0.1 0.3 0.2-0.1-0.1-0.2-0.2-0.3-0.2z m0 0z m0-0.1z m289.4-1z m-216.4-2.6z m40.2-1.2z m-72.7-0.9c0.1 0.1 0.1 0.1 0 0 0.1 0.1 0.1 0.1 0 0z m181.6-4.8z m0 0z m5.8-3.4z m-296.4-0.6h-0.1 0.1z m8.1-0.1h-0.1c0 0.1 0 0 0.1 0z m-52.1-0.1h0.2-0.2z m0 0zM696 832z m0.1 0h-0.1 0.1z m-227.3-1.5s0.1 0 0.1 0.1c0-0.1 0-0.1-0.1-0.1z m127.2-2.9c-0.8 0.2-1.7 0.6-2.5 1.1 0.4-0.2 1.3-0.7 2.5-1.1z m132.6-1.1c-0.1 0-0.1 0.1 0 0-0.1 0.1-0.1 0 0 0z m-139.3 0z m-337-0.1z m540-1.4c-0.1 0.1-0.1 0.1 0 0-0.1 0.1-0.1 0.1 0 0z m-4.7-2.3z m-158.3-0.8c0.1 0 0.2 0 0.3 0.1-0.1-0.1-0.2-0.1-0.3-0.1z m-318.2-0.1z m-16.2-2.2z m-5-2.1c0.1 0 0.2 0.1 0.4 0.1-0.2 0-0.3 0-0.4-0.1z m-13-1.9c0.9 0.1 1.5 0.4 2 0.5-0.8-0.2-1.4-0.4-2-0.5z m154.9-0.5c-0.3 0-0.7 0-1 0.1 0.5 0 0.9-0.1 1.2 0-0.1-0.1-0.1-0.1-0.2-0.1z m0.2 0z m-161.5-0.3s0.1 0 0 0c0.1 0 0.1 0 0 0z m0 0z m547.1-6.7c-0.1 0-0.1 0 0 0-0.1 0-0.1 0 0 0z m-610.1-16.3z m18.6-6.9z m618.7-1.8z m-0.9-8.4c-0.1 0-0.1 0 0 0-0.1 0-0.1 0 0 0z m-658.7-0.4z m-8.8-20.2z m28.5-1.2z m-28.6-8.7z m3.1-4.2s0 0.1 0 0c0 0.1 0 0 0 0z m-12.4-9.3c0.1 0.5 0.2 0.9 0.4 1.3-0.2-0.5-0.3-1-0.4-1.3z m-1.3-28.7v0z m0 0z m24.8-8.9c0 0.1 0 0.1 0 0 0 0.1 0 0.1 0 0z m0 0z m652.3-17.9s0.1 0 0 0c0.1 0 0 0 0 0z m-697.1-19z m719.2-17.4z m-714.3-2.5l0.1 0.1c0-0.1 0-0.1-0.1-0.1z m0 0z m-11.8-7.6s0.1 0.1 0 0c0.1 0.1 0 0 0 0z m787.3-5.2c0.1 0 0.1 0 0 0 0.1 0 0.1 0 0 0z m-797.6-7.7l0.1 0.1s0-0.1-0.1-0.1z m802-0.8s-0.1 0 0 0c-0.1 0 0 0 0 0z m0 0z m-807.2-5c0.9 0.6 1.6 1.1 2 1.5-0.7-0.6-1.3-1.1-2-1.5z m-30.6-0.5c0 0.1 0 0.1 0 0 0 0.1 0 0.1 0 0z m819.7-2c-0.1 0-0.1 0 0 0-0.1 0-0.1 0 0 0z m-820.2-5.3c0 0.1 0.1 0.1 0.1 0.2 0-0.1-0.1-0.2-0.1-0.2z m822.2-6.8c-0.1 0.1-0.1 0.2-0.2 0.3 0.1-0.1 0.2-0.2 0.2-0.3z m-834.9-7s0.1 0.1 0 0c0.1 0.1 0 0 0 0z m0 0z m30.5-1z m-29.4-3c0.1 0.1 0.1 0.1 0 0 0.1 0.1 0.1 0.1 0 0zM76 563.6zM65.5 553z m27.1-26.3z m-24.7-28.5z m5.4-4.9z m0.8-1.7c-0.3 0.5-0.6 1.1-0.8 1.7 0.2-0.5 0.4-1.1 0.8-1.7z m28 0.8z m4.7-12.3z m1.6-5.3c0 0.1 0 0.1 0 0 0 0.1 0 0.1 0 0z m0 0z m0 0z m834.1-3.7z m0 0z m-5.6-7.3z m-817.6-0.7z m0 0z m806.9-16.5z m-0.1 0s0.1 0 0 0c0.1 0 0 0 0 0z m-793.5-12.7c0 0.1 0 0.2-0.1 0.4 0.1-0.1 0.1-0.3 0.1-0.4z m768-3c0.1 0.4 0.2 0.7 0.3 1.1-0.1-0.4-0.2-0.8-0.3-1.1z m19.9-8.5z m-797.3-3.8c-0.1-0.3-0.3-0.5-0.4-0.8 0.2 0.2 0.3 0.5 0.4 0.8z m-0.4-0.8z m-22-1.9c0 0.1 0 0.1 0 0 0 0.1 0 0.1 0 0z m791.5-18.3c0 0.1 0 0.1 0 0 0 0.1 0 0.1 0 0z m20.7-4.3z m0-0.1c0 0.1 0 0.1 0 0 0 0.1 0 0.1 0 0z m-0.8-5.6v0.6c0.1-0.2 0.1-0.4 0-0.6z m-24-6.5c-0.2 0.8-0.2 1.6-0.2 2.5 0-0.6 0-1.5 0.2-2.5z m-762.6-7z m754.4-4.8zM94.1 358.8c0 0.1 0 0.1 0 0 0 0.1 0 0.1 0 0z m812.7-8.3z m-784-4.6z m-23-5.6z m34.6-7.1z m758.7-14.7z m-0.4-0.7c0.2 0.3 0.3 0.5 0.4 0.7-0.1-0.3-0.3-0.5-0.4-0.7z m-45.2-12z m-4.4-10.4z m22.8-10.4z m-690-4.2c-0.1 0-0.1 0.1 0 0-0.1 0.1-0.1 0 0 0z m103-36.9h0.3-0.3z m532.4-0.9z m0-0.1z m-3.1-0.5z m-94-0.3z m0.1 0c-0.1 0-0.1 0 0 0-0.1 0-0.1 0 0 0z m-461.7-0.7z m433.7-0.5zM304 239.3z m0 0z m412.4-1.5c0 0.1 0 0.1 0 0 0 0.1 0 0.1 0 0z m21.8-1.7z m-423.8-1.3z m404.5-0.2z m81.1-2.8c0.3 0.2 0.8 0.4 1.3 0.7-0.4-0.3-0.8-0.5-1.3-0.7z m-88.8-9.4s-0.1 0 0 0c-0.1 0 0 0 0 0z m-462.7-0.5z m420.5-0.2s0.1 0 0 0c0.1 0 0 0 0 0z m111.9-0.9z m-6.4-1.4c0.1 0 0.1 0 0.2 0.1-0.1 0-0.2-0.1-0.2-0.1z m-60.7-1.4z m-463.2-1.5z m476.3-0.1z m12.9-0.3z m-16.1-0.1z m0.1 0z m-7-1.3c-0.1 0-0.1 0 0 0-0.1 0-0.1 0 0 0z m-460-0.3z m51.1-12.3l-0.4 0.4c0.1-0.2 0.2-0.3 0.4-0.4z m6.5-6.6z m324.7-1.2s0 0.1 0 0c0 0.1 0 0 0 0z m-253-9.6z m0 0z m228.1-2s0.1 0 0 0c0.1 0 0 0 0 0z m-32.9-6.2s0.1 0 0 0c0.1 0 0 0 0 0z m-218.5-2.1z m61-6.8z m0 0z m13.5-3.5z m0 0z m41.4-2.7z m0.1 0s-0.1 0 0 0c-0.1 0 0 0 0 0z m-89.1-6.5z m102.6-1.5s-0.1 0 0 0c-0.1 0 0 0 0 0z m-53.9-12.7s-0.1 0 0 0c-0.1 0 0 0 0 0z m107.2-2.6z m0 0z m0 0z m-42-6.2z" p-id="1040"></path><path d="M668.7 371.9s85.7-123.7 204.6 4.2c0 0 38.4 34.4 12.1 88 0 0-26 93.7-127.5 53.4-101.5-40.3-37.5-117.3-22-118.9 0 0 37-20.3 58.5 3.4 0 0 40.5 28.4 5.9 52.4" fill="#E9DBAA" p-id="1041"></path><path d="M805 537.6c-15.7 0-32.7-3.6-50.8-10.8-60.2-23.9-64.6-60.6-61.8-80.4 2.5-18 11.8-32.1 17.1-38.9 3-3.8 13-15.8 23.1-18.4 7.9-3.9 44.4-20 68.5 5.4 4.8 3.6 23.2 18.6 23.2 38.1 0 7.9-3.2 19.5-18.3 30l-11.4-16.4c6.4-4.4 9.6-9 9.7-13.6 0.1-9.2-11.6-19.5-15.6-22.4l-0.9-0.6-0.8-0.8c-15.8-17.5-46-1.5-46.3-1.3l-1.8 1-1.6 0.2c-5.5 2.1-24.9 22-25.6 45.6-0.7 22.5 16.1 40.7 49.8 54.1 29.1 11.6 54.1 12.4 74.2 2.5 29.9-14.7 39.9-49 40-49.3l0.2-0.9 0.4-0.8c22.8-46.3-9.4-75.9-9.7-76.2l-0.7-0.6c-36-38.7-71.9-57-106.9-54.5-50 3.6-81.8 48.7-82.1 49.2l-16.4-11.4c1.5-2.2 37.7-53.5 97.1-57.8 41.2-2.9 82.5 17.4 122.7 60.6 2.1 2 11.7 11.6 18.1 27.2 6.5 15.7 11.1 40.9-3.8 71.6-2 6.6-14.7 43.3-49.9 60.8-12.1 5.8-25.4 8.8-39.7 8.8z m-68.1-129z" p-id="1042"></path><path d="M340.5 382.9s-85.7-123.7-204.6 4.2c0 0-38.4 34.4-12.1 88 0 0 26 93.7 127.5 53.4s37.5-117.3 22-118.9c0 0-37-20.3-58.5 3.4 0 0-40.5 28.4-5.9 52.4" fill="#E9DBAA" p-id="1043"></path><path d="M204.2 548.7c-14.4 0-27.7-3-39.8-9-35.2-17.5-47.9-54.2-49.9-60.8-14.8-30.7-10.2-55.9-3.8-71.6 6.4-15.6 16-25.1 18.1-27.2 40.2-43.2 81.5-63.6 122.7-60.6 59.4 4.3 95.6 55.6 97.1 57.8l-16.4 11.4 8.2-5.7-8.2 5.7c-0.3-0.5-32.5-45.8-82.3-49.2-34.9-2.4-70.8 15.9-106.7 54.5l-0.7 0.6c-1.3 1.2-32.3 30.3-9.7 76.2l0.4 0.8 0.2 0.9c0.1 0.3 10.1 34.6 40 49.3 20.1 9.9 45 9.1 74.2-2.5 33.7-13.4 50.5-31.6 49.8-54.1-0.7-23.6-20-43.4-25.6-45.6l-1.6-0.2-1.8-1c-0.3-0.2-30.4-16.1-46.2 1.3l-0.7 0.8-0.9 0.6c-4 2.9-15.7 13.2-15.6 22.4 0 4.6 3.3 9.1 9.7 13.6l-11.4 16.4c-15.1-10.4-18.3-22.1-18.3-30-0.1-19.6 18.4-34.6 23.2-38.1 24-25.4 60.6-9.3 68.5-5.4 10.1 2.6 20.1 14.5 23.1 18.4 5.3 6.8 14.6 21 17.1 38.9 2.8 19.8-1.6 56.5-61.8 80.4-18.2 7.4-35.2 11-50.9 11z" p-id="1044"></path><path d="M235.8 553a277.2 210.5 0 1 0 554.4 0 277.2 210.5 0 1 0-554.4 0Z" fill="#FCE3C5" p-id="1045"></path><path d="M513 773.5c-76.2 0-148-22.6-202.1-63.7-54.9-41.7-85.2-97.4-85.2-156.8s30.2-115.1 85.2-156.8c54.1-41.1 125.9-63.7 202.1-63.7 76.2 0 148 22.6 202.1 63.7 54.9 41.7 85.2 97.4 85.2 156.8S770 668.1 715.1 709.8C661 750.9 589.2 773.5 513 773.5z m0-420.9c-147.4 0-267.2 89.9-267.2 200.5 0 110.5 119.9 200.5 267.2 200.5 147.4 0 267.2-89.9 267.2-200.5S660.3 352.6 513 352.6z" p-id="1046"></path><path d="M396.3 550.7m-29.3 0a29.3 29.3 0 1 0 58.6 0 29.3 29.3 0 1 0-58.6 0Z" p-id="1047"></path><path d="M624.1 550.7m-29.3 0a29.3 29.3 0 1 0 58.6 0 29.3 29.3 0 1 0-58.6 0Z" p-id="1048"></path><path d="M537.1 571.7h-51.5c-4.5 0-8.1-3.6-8.1-8.1s3.6-8.1 8.1-8.1h51.5c4.5 0 8.1 3.6 8.1 8.1s-3.7 8.1-8.1 8.1z" p-id="1049"></path><path d="M511.3 563.6c-3.9 0-7.1 3.2-7.1 7.1V610c0 3.9 3.2 7.1 7.1 7.1 3.9 0 7.1-3.2 7.1-7.1v-39.3c0.1-3.9-3.1-7.1-7.1-7.1z" p-id="1050"></path></svg>