<?xml version="1.0" standalone="no"?><!DOCTYPE svg PUBLIC "-//W3C//DTD SVG 1.1//EN" "http://www.w3.org/Graphics/SVG/1.1/DTD/svg11.dtd"><svg t="1639963832468" class="icon" viewBox="0 0 1024 1024" version="1.1" xmlns="http://www.w3.org/2000/svg" p-id="4001" xmlns:xlink="http://www.w3.org/1999/xlink" width="1024" height="1024"><defs><style type="text/css"></style></defs><path d="M115.225813 245.418142h85.87345V689.073099h-85.87345z" fill="#BAF5DE" p-id="4002"></path><path d="M199.394062 245.418142h85.87345v778.577769h-85.87345z" fill="#87DAFF" p-id="4003"></path><path d="M286.956356 245.418142h85.873451v562.589685h-85.873451z" fill="#FFEA80" p-id="4004"></path><path d="M372.576275 245.418142h85.87345v778.577769h-85.87345z" fill="#F58787" p-id="4005"></path><path d="M456.241551 245.418142h85.87345v778.577769h-85.87345z" fill="#BAF5DE" p-id="4006"></path><path d="M540.413889 245.418142h85.87345v778.577769h-85.87345z" fill="#87DAFF" p-id="4007"></path><path d="M627.980273 245.418142h85.87345v562.589685h-85.87345z" fill="#FFEA80" p-id="4008"></path><path d="M713.600192 245.418142h85.87345v426.144951h-85.87345z" fill="#F58787" p-id="4009"></path><path d="M801.898544 274.488349c0 34.128563-27.925228 62.053791-62.061969 62.053791H167.33464c-34.128563 0-62.053791-27.925228-62.05379-62.053791V82.741114c0-34.128563 27.925228-62.053791 62.05379-62.053791h572.501935c34.136741 0 62.061969 27.925228 62.061969 62.053791v191.747235z" fill="#E0E0FF" p-id="4010"></path><path d="M801.898544 205.789589h58.402125c9.777306 0 19.072084 4.158729 26.187313 11.719682 7.442366 7.900357 11.535667 18.430078 11.535667 29.646786v204.718216c0 22.817802-18.552754 41.378735-41.366468 41.378735h-325.873386c-45.623337 0-82.741114 37.117776-82.741114 82.737025v70.236303a20.683234 20.683234 0 1 0 41.374646 0v-70.236303c0-22.813713 18.560933-41.370557 41.366468-41.370557h325.881565c45.619248 0 82.732935-37.117776 82.732935-82.745203V247.156057c0-21.799589-8.09255-42.396949-22.781-58.005471-15.023765-15.943837-35.015922-24.735643-56.312537-24.735643h-58.406214a20.683234 20.683234 0 1 0 0 41.374646z" fill="#6E6E96" p-id="4011"></path><path d="M555.274085 922.550742c0 22.752375-18.618182 41.370557-41.374646 41.370557H427.895134c-22.756464 0-41.370557-18.618182-41.370557-41.370557v-234.974295c0-22.748286 18.614093-41.370557 41.370557-41.370557h86.004305c22.756464 0 41.374646 18.622271 41.374646 41.370557v234.974295z" fill="#E0E0FF" p-id="4012"></path><path d="M534.578584 922.550742a20.715948 20.715948 0 0 1-20.683234 20.687323H427.895134a20.715948 20.715948 0 0 1-20.687323-20.687323v-234.974295c0-11.404812 9.282511-20.691412 20.687323-20.691412h86.004305a20.715948 20.715948 0 0 1 20.683234 20.691412l-0.004089 234.974295z m41.374646-234.970206c0-34.210347-27.839355-62.05788-62.05788-62.05788H427.895134c-34.218525 0-62.05788 27.847533-62.05788 62.05788v234.974295c0 34.218525 27.839355 62.053791 62.05788 62.053791h86.004305c34.218525 0 62.05788-27.835265 62.05788-62.053791l-0.004089-234.974295z" fill="#6E6E96" p-id="4013"></path><path d="M739.836575 24.253116H167.33464c-34.128563 0-62.053791 27.925228-62.05379 62.053791v65.42739c0-34.128563 27.925228-62.053791 62.05379-62.053791h572.501935c34.136741 0 62.061969 27.925228 62.061969 62.053791v-65.42739c0-34.128563-27.925228-62.053791-62.061969-62.053791z" fill="#FFFFFF" opacity=".58" p-id="4014"></path><path d="M781.211221 274.488349c0 22.813713-18.560933 41.370557-41.370557 41.370557H167.33464c-22.809624 0-41.366468-18.560933-41.366467-41.370557V82.741114c0-22.813713 18.556844-41.370557 41.366467-41.370557h572.501935c22.809624 0 41.370557 18.556844 41.370557 41.370557v191.747235z m41.370557-191.747235C822.581778 37.117776 785.468091 0 739.836575 0H167.33464C121.715392 0 84.597616 37.117776 84.597616 82.741114v191.747235c0 45.623337 37.117776 82.741114 82.737024 82.741114h572.501935c45.627426 0 82.741114-37.117776 82.741114-82.741114V82.741114h0.004089z" fill="#6E6E96" p-id="4015"></path><path d="M739.836575 267.025538H167.33464c-34.128563 0-62.053791-27.925228-62.05379-62.05788v69.516602c0 34.132652 27.925228 62.05788 62.05379 62.05788h572.501935c34.136741 0 62.061969-27.925228 62.061969-62.05788v-69.516602c0 34.132652-27.925228 62.05788-62.061969 62.05788z" fill="#6E6E96" opacity=".2" p-id="4016"></path><path d="M505.716926 633.938254H419.71671c-14.308152 0-26.968353 7.36876-34.406629 18.487328a34.09176 34.09176 0 0 1 16.401829-4.195532h71.413997c18.896248 0 34.353469 15.457221 34.353469 34.353469v195.108568c0 18.896248-15.457221 34.357558-34.353469 34.357559H401.71191a34.144919 34.144919 0 0 1-23.365757-9.282511v7.515971c0 22.752375 18.614093 41.370557 41.370557 41.370557h86.004305c22.756464 0 41.374646-18.618182 41.374646-41.370557v-234.974295c0-22.748286-18.618182-41.370557-41.378735-41.370557z" fill="#6E6E96" opacity=".2" p-id="4017"></path></svg>