<?xml version="1.0" standalone="no"?><!DOCTYPE svg PUBLIC "-//W3C//DTD SVG 1.1//EN" "http://www.w3.org/Graphics/SVG/1.1/DTD/svg11.dtd"><svg t="1612503261223" class="icon" viewBox="0 0 1024 1024" version="1.1" xmlns="http://www.w3.org/2000/svg" p-id="1374" xmlns:xlink="http://www.w3.org/1999/xlink" width="200" height="200"><defs><style type="text/css"></style></defs><path d="M120.36171852 773.29445925c0-234.35188148 190.0544-424.40628148 424.40628148-424.40628147s424.40628148 190.0544 424.40628148 424.40628147" fill="#F9F0D4" p-id="1375"></path><path d="M869.65665185 464.30435555H672.32047408c-0.72817778 0-1.33499259-0.60681482-1.3349926-1.33499258v-40.04977779c0-0.72817778 0.60681482-1.33499259 1.3349926-1.33499259h197.33617777c11.77220741 0 21.35988148 9.58767408 21.35988148 21.35988149 0 11.65084445-9.58767408 21.35988148-21.35988148 21.35988147zM983.73783703 549.86524445h-287.63022221c-0.72817778 0-1.33499259-0.60681482-1.3349926-1.3349926v-40.04977777c0-0.72817778 0.60681482-1.33499259 1.3349926-1.3349926h287.63022221c11.77220741 0 21.35988148 9.58767408 21.35988149 21.35988149 0 11.77220741-9.58767408 21.35988148-21.35988149 21.35988148zM321.46014815 773.29445925H73.39425185c-11.77220741 0-21.35988148-9.58767408-21.35988148-21.35988147 0-11.77220741 9.58767408-21.35988148 21.35988148-21.35988148H321.46014815c0.72817778 0 1.33499259 0.60681482 1.3349926 1.33499259v40.04977778c0.12136297 0.72817778-0.48545185 1.33499259-1.3349926 1.33499258zM201.18945185 687.73357037h-66.5069037c-11.77220741 0-21.35988148-9.58767408-21.35988148-21.35988148 0-11.77220741 9.58767408-21.35988148 21.35988148-21.35988148h66.5069037c11.77220741 0 21.35988148 9.58767408 21.35988148 21.35988148 0.12136297 11.65084445-9.58767408 21.35988148-21.35988148 21.35988148zM207.98577778 602.05131852h-87.5026963c-11.77220741 0-21.35988148-9.58767408-21.35988148-21.35988149 0-11.77220741 9.58767408-21.35988148 21.35988148-21.35988148h87.5026963c0.72817778 0 1.33499259 0.60681482 1.33499259 1.3349926v40.04977777c0 0.72817778-0.60681482 1.33499259-1.33499259 1.3349926z" fill="#F9F0D4" p-id="1376"></path><path d="M887.25428148 507.14548148h-106.31395556c-11.77220741 0-21.35988148-9.58767408-21.35988147-21.35988148 0-11.77220741 9.58767408-21.35988148 21.35988147-21.35988148h106.31395556c11.77220741 0 21.35988148 9.58767408 21.35988149 21.35988148 0 11.65084445-9.58767408 21.35988148-21.35988149 21.35988148z" fill="#FFFFFF" p-id="1377"></path><path d="M217.81617778 773.29445925c0-180.83081482 141.75194075-327.43727408 316.5146074-327.43727407s316.51460741 146.60645925 316.51460741 327.43727407" fill="#FFFBEE" p-id="1378"></path><path d="M187.23271111 573.04557037l27.30666667-10.8013037c0.9709037-0.36408889 0.9709037-1.82044445 0-2.18453334l-27.30666667-10.8013037c-3.39816297-1.33499259-6.06814815-4.00497778-7.28177778-7.28177778l-10.8013037-27.30666667c-0.36408889-0.9709037-1.82044445-0.9709037-2.18453333 0l-10.80130371 27.30666667c-1.33499259 3.39816297-4.00497778 6.06814815-7.28177777 7.28177778l-27.30666667 10.8013037c-0.9709037 0.36408889-0.9709037 1.82044445 0 2.18453334l27.30666667 10.8013037c3.39816297 1.33499259 6.06814815 4.00497778 7.28177777 7.28177778l10.80130371 27.30666667c0.36408889 0.9709037 1.82044445 0.9709037 2.18453333 0l10.8013037-27.30666667c1.33499259-3.2768 4.00497778-5.94678518 7.28177778-7.28177778z" fill="#F5C244" p-id="1379"></path><path d="M178.98002963 567.94832592l15.53445926-6.1895111c0.60681482-0.24272592 0.60681482-1.09226667 0-1.21362964l-15.53445926-6.1895111c-1.94180741-0.72817778-3.39816297-2.3058963-4.12634074-4.12634075l-6.18951111-15.53445925c-0.24272592-0.60681482-1.09226667-0.60681482-1.21362963 0l-6.18951112 15.53445925c-0.72817778 1.94180741-2.3058963 3.39816297-4.12634073 4.12634075l-15.53445927 6.1895111c-0.60681482 0.24272592-0.60681482 1.09226667 0 1.21362964l15.53445927 6.1895111c1.94180741 0.72817778 3.39816297 2.3058963 4.12634073 4.12634075l6.18951112 15.53445925c0.24272592 0.60681482 1.09226667 0.60681482 1.21362963 0l6.18951111-15.53445925c0.72817778-1.82044445 2.18453333-3.39816297 4.12634074-4.12634075z" fill="#F5C244" p-id="1380"></path><path d="M403.62287408 170.12053333l17.47626667-6.91768888c0.60681482-0.24272592 0.60681482-1.21362963 0-1.45635556l-17.47626667-6.91768889c-2.18453333-0.84954075-3.88361482-2.54862222-4.73315556-4.73315555l-6.91768889-17.47626667c-0.24272592-0.60681482-1.21362963-0.60681482-1.45635555 0l-6.9176889 17.47626667c-0.84954075 2.18453333-2.54862222 3.88361482-4.73315555 4.73315555l-17.47626666 6.91768889c-0.60681482 0.24272592-0.60681482 1.21362963 0 1.45635556l17.47626666 6.91768888c2.18453333 0.84954075 3.88361482 2.54862222 4.73315555 4.73315556l6.9176889 17.47626666c0.24272592 0.60681482 1.21362963 0.60681482 1.45635555 0l6.91768889-17.47626666c0.9709037-2.18453333 2.66998518-3.88361482 4.73315556-4.73315556z" fill="#F5C244" p-id="1381"></path><path d="M398.40426667 166.84373333l9.95176296-4.00497778c0.36408889-0.12136297 0.36408889-0.60681482 0-0.84954073l-9.95176296-4.00497779c-1.21362963-0.48545185-2.18453333-1.45635555-2.66998519-2.66998518l-4.00497778-9.95176296c-0.12136297-0.36408889-0.60681482-0.36408889-0.84954073 0l-4.00497779 9.95176296c-0.48545185 1.21362963-1.45635555 2.18453333-2.66998518 2.66998518l-9.95176297 4.00497779c-0.36408889 0.12136297-0.36408889 0.60681482 0 0.84954073l9.95176297 4.00497778c1.21362963 0.48545185 2.18453333 1.45635555 2.66998518 2.66998519l4.00497779 9.95176296c0.12136297 0.36408889 0.60681482 0.36408889 0.84954073 0l4.00497778-9.95176296c0.48545185-1.21362963 1.45635555-2.18453333 2.66998519-2.66998519z" fill="#F5C244" p-id="1382"></path><path d="M871.35573333 575.59419259l13.71401482-5.46133334c0.48545185-0.24272592 0.48545185-0.9709037 0-1.09226666l-13.71401482-5.46133334c-1.69908148-0.72817778-3.03407408-1.94180741-3.64088888-3.64088888l-5.46133334-13.71401482c-0.24272592-0.48545185-0.9709037-0.48545185-1.09226666 0l-5.46133334 13.71401482c-0.72817778 1.69908148-1.94180741 3.03407408-3.64088889 3.64088888l-13.71401481 5.46133334c-0.48545185 0.24272592-0.48545185 0.9709037 0 1.09226666l13.71401481 5.46133334c1.69908148 0.72817778 3.03407408 1.94180741 3.64088889 3.64088889l5.46133334 13.71401482c0.24272592 0.48545185 0.9709037 0.48545185 1.09226666 0l5.46133334-13.71401482c0.60681482-1.57771852 1.94180741-2.91271111 3.64088888-3.64088889z" fill="#F5C244" p-id="1383"></path><path d="M867.22939259 573.04557037l7.76722963-3.15543704c0.24272592-0.12136297 0.24272592-0.48545185 0-0.60681481l-7.76722963-3.15543704c-0.9709037-0.36408889-1.69908148-1.09226667-2.06317037-2.06317037l-3.15543704-7.76722963c-0.12136297-0.24272592-0.48545185-0.24272592-0.60681481 0l-3.15543704 7.76722963c-0.36408889 0.9709037-1.09226667 1.69908148-2.06317036 2.06317037l-7.76722964 3.15543704c-0.24272592 0.12136297-0.24272592 0.48545185 0 0.60681481l7.76722964 3.15543704c0.9709037 0.36408889 1.69908148 1.09226667 2.06317036 2.06317038l3.15543704 7.76722962c0.12136297 0.24272592 0.48545185 0.24272592 0.60681481 0l3.15543704-7.76722962c0.36408889-0.84954075 1.09226667-1.69908148 2.06317037-2.06317038z" fill="#F5C244" p-id="1384"></path><path d="M265.51182222 644.89244445H129.34257778c-11.77220741 0-21.35988148-9.58767408-21.35988148-21.35988148 0-11.77220741 9.58767408-21.35988148 21.35988148-21.35988149h136.16924444c11.77220741 0 21.35988148 9.58767408 21.35988148 21.35988149 0 11.65084445-9.58767408 21.35988148-21.35988148 21.35988148z" fill="#FFFFFF" p-id="1385"></path><path d="M234.56426667 730.5746963h-105.22168889c-11.77220741 0-21.35988148-9.58767408-21.35988148-21.35988148 0-11.77220741 9.58767408-21.35988148 21.35988148-21.35988149h105.22168889c11.77220741 0 21.35988148 9.58767408 21.35988148 21.35988149 0 11.65084445-9.58767408 21.35988148-21.35988148 21.35988148z" fill="#FFFFFF" p-id="1386"></path><path d="M508.11638518 505.08231111m-111.65392593 0a111.65392592 111.65392592 0 1 0 223.30785186 0 111.65392592 111.65392592 0 1 0-223.30785186 0Z" fill="#F5AC3A" p-id="1387"></path><path d="M700.71940741 669.77185185c-3.64088889 0-7.28177778-1.45635555-10.07312593-4.2477037l-76.82275556-76.82275556c-5.5826963-5.5826963-5.5826963-14.68491852 0-20.26761481s14.68491852-5.5826963 20.26761483 0l76.82275555 76.82275555c5.5826963 5.5826963 5.5826963 14.68491852 0 20.26761482-2.91271111 2.79134815-6.5536 4.2477037-10.19448889 4.2477037z" fill="#2D2924" p-id="1388"></path><path d="M515.64088889 636.88248889c-89.20177778 0-161.89819259-72.57505185-161.89819259-161.89819259S426.31774815 313.20746667 515.64088889 313.20746667 677.41771852 385.78251852 677.41771852 475.10565925 604.84266667 636.88248889 515.64088889 636.88248889z m0-295.03336297c-73.42459259 0-133.25653333 59.83194075-133.25653334 133.25653333S442.09493333 608.36219259 515.64088889 608.36219259s133.25653333-59.83194075 133.25653333-133.25653334S589.06548148 341.84912592 515.64088889 341.84912592z" fill="#2D2924" p-id="1389"></path></svg>