<?xml version="1.0" standalone="no"?><!DOCTYPE svg PUBLIC "-//W3C//DTD SVG 1.1//EN" "http://www.w3.org/Graphics/SVG/1.1/DTD/svg11.dtd"><svg t="1639965704359" class="icon" viewBox="0 0 1024 1024" version="1.1" xmlns="http://www.w3.org/2000/svg" p-id="1161" xmlns:xlink="http://www.w3.org/1999/xlink" width="1024" height="1024"><defs><style type="text/css"></style></defs><path d="M970.443515 514.142259c0-252.006828-204.294427-456.301255-456.301256-456.301255C262.139715 57.841004 57.841004 262.135431 57.841004 514.142259S262.139715 970.443515 514.142259 970.443515L970.443515 514.142259z" fill="#93DBCF" p-id="1162"></path><path d="M505.573222 49.271967c-11.641038 0-23.174962 0.441305-34.59749 1.298209C671.426946 66.761372 829.054393 234.547414 829.054393 439.16318l-3.873205 3.877489c-202.627749 18.162075-363.978444 179.504201-382.13195 382.127666l-3.886058 3.886058c-204.615766 0-372.401808-157.627448-388.593004-358.078661A462.342427 462.342427 0 0 0 49.271967 505.573222c0 252.006828 204.298711 456.301255 456.301255 456.301255L961.874477 505.573222c0-252.006828-204.294427-456.301255-456.301255-456.301255z" fill="#87C9BF" p-id="1163"></path><path d="M991.866109 514.142259c0-127.605824-49.691849-247.572351-139.919532-337.800033C761.718895 86.114544 641.743799 36.41841 514.142259 36.41841 250.725757 36.41841 36.41841 250.725757 36.41841 514.142259c0 263.412218 214.307347 477.723849 477.723849 477.72385a21.375464 21.375464 0 0 0 15.145774-6.27682l456.301256-456.301256A21.375464 21.375464 0 0 0 991.866109 514.142259zM514.142259 949.020921c-239.791665 0-434.878661-195.082711-434.878661-434.878662C79.263598 274.350594 274.350594 79.263598 514.142259 79.263598c116.15759 0 225.374259 45.23595 307.504201 127.374461S949.020921 397.984669 949.020921 514.142259c0-5.681272 2.249372-11.13118 6.27682-15.150058l-456.301256 456.301255A21.388318 21.388318 0 0 1 514.142259 949.020921z" fill="#6E6E96" p-id="1164"></path><path d="M403.940151 857.092285a21.306912 21.306912 0 0 1-6.803816-1.113975 361.257774 361.257774 0 0 1-50.317389-21.221222 21.41831 21.41831 0 0 1-9.254561-28.843381 21.414025 21.414025 0 0 1 28.847665-9.254561 318.069824 318.069824 0 0 0 44.331917 18.693356 21.422594 21.422594 0 0 1-6.803816 41.739783z m-148.012988-98.608201a21.37118 21.37118 0 0 1-16.114075-7.296536 364.454025 364.454025 0 0 1-32.81513-43.612117 21.422594 21.422594 0 1 1 36.075649-23.110695 321.788787 321.788787 0 0 0 28.946209 38.470695 21.422594 21.422594 0 0 1-16.092653 35.548653z m-78.380987-159.632603a21.431163 21.431163 0 0 1-21.011281-17.36087 365.332351 365.332351 0 0 1-6.298242-54.203448 21.422594 21.422594 0 0 1 42.810912-1.739514 320.91046 320.91046 0 0 0 5.552736 47.810945 21.422594 21.422594 0 0 1-21.054125 25.492887z m12.737874-177.413355a21.422594 21.422594 0 0 1-20.227213-28.483482 361.681941 361.681941 0 0 1 21.842477-50.064602 21.422594 21.422594 0 1 1 37.862293 20.055832 318.404017 318.404017 0 0 0-19.250343 44.117691 21.431163 21.431163 0 0 1-20.227214 14.374561z m613.68877-64.396318a21.409741 21.409741 0 0 1-18.329171-10.304268 321.690243 321.690243 0 0 0-28.012185-39.156218 21.422594 21.422594 0 1 1 32.879398-27.472335 364.531146 364.531146 0 0 1 31.752569 44.387616 21.41831 21.41831 0 0 1-18.290611 32.545205zM290.704603 274.616234a21.422594 21.422594 0 0 1-13.941825-37.699481 364.94246 364.94246 0 0 1 43.984871-32.270996 21.422594 21.422594 0 1 1 22.677958 36.354143 321.681674 321.681674 0 0 0-38.800603 28.470627 21.358326 21.358326 0 0 1-13.920401 5.145707z m384.586979-40.411581a21.37118 21.37118 0 0 1-10.24-2.617841 318.635381 318.635381 0 0 0-43.86062-19.777339 21.422594 21.422594 0 1 1 14.601641-40.278762 362.234644 362.234644 0 0 1 49.777539 22.44231 21.422594 21.422594 0 0 1-10.27856 40.231632z m-224.071766-35.968536a21.426879 21.426879 0 0 1-3.787515-42.506711 364.745372 364.745372 0 0 1 54.272-5.638427c11.602477-0.368469 21.688234 8.971782 22.026712 20.801339a21.422594 21.422594 0 0 1-20.797055 22.026711 321.398895 321.398895 0 0 0-47.870929 4.974327c-1.293925 0.231364-2.57928 0.342762-3.843213 0.342761z" fill="#6E6E96" p-id="1165"></path><path d="M514.142259 970.443515S482.402544 514.142259 970.443515 514.142259L514.142259 970.443515z" fill="#93DBCF" p-id="1166"></path><path d="M952.838427 560.629289l40.612954-40.612954c-488.040971 0-456.301255 456.301255-456.301255 456.301255l39.640368-39.640368c14.087498-120.009372 80.398996-343.04 376.047933-376.047933z" fill="#ABFFF1" opacity=".36" p-id="1167"></path><path d="M535.513439 968.952502v0.025707c-0.124251-1.859481-11.114042-186.920703 107.001574-313.24974C717.061356 576.002142 827.387715 535.564854 970.443515 535.564854a21.422594 21.422594 0 0 1-15.145774-36.572653l-456.301256 456.301255a21.41831 21.41831 0 0 1 36.516954 13.659046zM970.443515 492.719665c-155.575163 0-276.535699 45.10313-359.51826 134.062594-130.793506 140.206594-118.728301 336.844586-118.154176 345.152268a21.422594 21.422594 0 0 0 36.516954 13.663331l456.301256-456.301255A21.422594 21.422594 0 0 0 970.443515 492.719665z" fill="#6E6E96" p-id="1168"></path></svg>