<?xml version="1.0" standalone="no"?><!DOCTYPE svg PUBLIC "-//W3C//DTD SVG 1.1//EN" "http://www.w3.org/Graphics/SVG/1.1/DTD/svg11.dtd"><svg t="1639963789443" class="icon" viewBox="0 0 1103 1024" version="1.1" xmlns="http://www.w3.org/2000/svg" p-id="3819" xmlns:xlink="http://www.w3.org/1999/xlink" width="1103" height="1024"><defs><style type="text/css"></style></defs><path d="M342.882119 980.661307h-14.258021c-0.00431 0 6.448004 1.409423 14.258021 0z m256.971942-0.00862c-37.804443 0.00862-41.106028-31.356439-41.338778-39.429375v-48.390205H369.954255v46.493733c0 30.468545-15.120053 39.205246-27.072136 41.325847" fill="#F0F0FF" p-id="3820"></path><path d="M334.809183 998.690721c-7.443652 0-15.469176-1.659413-19.990538-7.697952l-20.628442-27.567805h46.993711c4.262752-0.961166 11.529687-4.262752 11.529687-24.093814v-63.734386h223.042336v65.359318c0.754279 22.292165 18.042344 22.460261 23.960198 22.460261h0.133615l0.008621 34.481307h-0.021551c-42.032713 0-57.812222-30.261657-58.55357-56.178669l-0.00431-0.491359v-31.149551H387.194909v29.253079c0 45.954962-28.817752 56.075226-41.261195 58.29065v0.00862c-3.060216 0.551701-7.004016 1.0603-11.124531 1.060301z" fill="#6E6E96" p-id="3821"></path><path d="M133.584894 823.094664V407.198377c0-28.412597 23.244711-51.661619 51.657309-51.661619h557.967892c28.416907 0 51.661619 23.249021 51.661619 51.661619v415.896287" fill="#B4D1F2" p-id="3822"></path><path d="M794.888954 781.764507v59.406982c0 28.421217-23.257642 51.661619-51.661618 51.661618H185.255133c-28.425528 0-51.657308-23.257642-51.657308-51.661618v-59.406982h661.291129z" fill="#F0F0FF" p-id="3823"></path><path d="M403.771797 775.006171l391.112847-412.693836v133.283183l-259.394253 279.410653z" fill="#DEEFFF" opacity=".31" p-id="3824"></path><path d="M794.884644 495.595518l-259.394253 279.410653h259.394253z" fill="#FFFFFF" opacity=".31" p-id="3825"></path><path d="M741.046393 350.536969H183.06988c-28.416907 0-51.661619 23.249021-51.661618 51.661618v21.792187c0-28.421217 23.257642-51.661619 51.661618-51.661619H741.046393c28.416907 0 51.661619 23.244711 51.661619 51.661619v-21.792187c0.00431-28.416907-23.244711-51.661619-51.661619-51.661618z" fill="#D5DBF7" p-id="3826"></path><path d="M743.227336 910.073761H185.255133c-37.98978 0-68.897962-30.912492-68.897962-68.902272v-76.647636h695.776747v76.647636c-0.00431 37.99409-30.916802 68.902272-68.906582 68.902272zM150.834168 799.00516v42.166329c0 18.977649 15.439005 34.420965 34.416655 34.420965h557.972203c18.977649 0 34.420965-15.443315 34.420965-34.420965v-42.166329H150.834168z" fill="#6E6E96" p-id="3827"></path><path d="M812.116677 823.094664h-34.481307V407.198377c0-18.98196-15.443315-34.420965-34.420965-34.420965H185.246513c-18.977649 0-34.416655 15.443315-34.416655 34.420965v415.896287h-34.481307V407.198377c0-37.99409 30.908182-68.902272 68.897962-68.902272h557.967892c37.98978 0 68.902272 30.908182 68.902272 68.902272v415.896287z" fill="#6E6E96" p-id="3828"></path><path d="M133.584894 761.071412h661.29975v20.693095H133.584894zM369.954255 892.833107h188.565339v32.97275H369.954255z" fill="#6E6E96" opacity=".15" p-id="3829"></path><path d="M483.703777 851.541742h-43.580062a17.240654 17.240654 0 0 1 0-34.481307h43.580062a17.240654 17.240654 0 0 1 0 34.481307zM614.146562 997.901961h-301.711438a17.240654 17.240654 0 0 1 0-34.481308h301.711438a17.240654 17.240654 0 0 1 0 34.481308z" fill="#6E6E96" p-id="3830"></path><path d="M743.227336 854.041637H185.255133c-28.425528 0-51.657308-23.257642-51.657308-51.661619v34.481308c0 28.412597 23.240401 51.661619 51.657308 51.661618h557.972203c28.408287 0 51.661619-23.249021 51.661618-51.661618v-34.481308c0 28.421217-23.253332 51.661619-51.661618 51.661619z" fill="#6E6E96" opacity=".15" p-id="3831"></path><path d="M554.597345 985.070604v-359.993467c0-27.727281 13.283924-31.373679 29.524619-31.37368h429.96466c16.240696 0 29.53324 3.659329 29.53324 31.37368v359.993467" fill="#BDDCFF" p-id="3832"></path><path d="M614.064669 652.472535h367.717281v280.867488h-367.717281z" fill="#BDDCFF" p-id="3833"></path><path d="M568.7002 725.366019l99.258752-115.714957h140.06307l-237.002955 314.116088z" fill="#FFFFFF" opacity=".4" p-id="3834"></path><path d="M881.911153 609.651062l-283.078601 347.196592h43.399035l283.078602-347.196592z" fill="#FFFFFF" opacity=".2" p-id="3835"></path><path d="M794.496729 985.402487l229.990319-287.233599v114.969298l-152.532372 172.264301z" fill="#DEEFFF" opacity=".49" p-id="3836"></path><path d="M1024.487048 813.138186l-152.532372 172.264301h152.532372z" fill="#FFFFFF" opacity=".4" p-id="3837"></path><path d="M1057.166707 981.764709h-34.481307v-356.700503c0-12.521025 0-14.128716-12.288276-14.128715H587.820084c-12.292586 0-12.292586 1.340461-12.292586 14.128715v356.700503h-34.481307v-356.700503c0-32.252953 15.736407-48.610023 46.773893-48.610023h422.57704c31.033176 0 46.769583 16.35707 46.769583 48.610023v356.700503z" fill="#6E6E96" p-id="3838"></path><path d="M1066.713719 999.005362H526.5037a17.240654 17.240654 0 0 1 0-34.481307h540.210019a17.240654 17.240654 0 0 1 0 34.481307z" fill="#6E6E96" p-id="3839"></path><path d="M208.986893 950.860837c0 16.391551-13.400298 29.80047-29.79185 29.80047H47.105776c-16.387241 0-29.79616-13.408918-29.79616-29.80047v-283.242387c0-16.391551 13.408918-29.791849 29.79616-29.79185h132.089267c16.391551 0 29.791849 13.404608 29.79185 29.79185v283.242387z" fill="#F0F0FF" p-id="3840"></path><path d="M208.986893 950.860837c0 16.391551-13.400298 29.80047-29.79185 29.80047H47.105776c-16.387241 0-29.79616-13.408918-29.79616-29.80047v-283.242387c0-16.391551 13.408918-29.791849 29.79616-29.79185h132.089267c16.391551 0 29.791849 13.404608 29.79185 29.79185v283.242387z" fill="#FFFFFF" p-id="3841"></path><path d="M17.305306 697.582705h191.681587v246.545657H17.305306z" fill="#BDDCFF" p-id="3842"></path><path d="M26.179932 944.128362l182.806961-182.81127v61.570684l-121.240587 121.240586z" fill="#DEEFFF" opacity=".49" p-id="3843"></path><path d="M208.986893 822.887776l-121.240587 121.240586h121.240587z" fill="#FFFFFF" opacity=".4" p-id="3844"></path><path d="M17.305306 909.647055h191.681587v34.481307H17.305306z" fill="#6E6E96" p-id="3845"></path><path d="M19.313842 740.386938l45.808417-54.777866h82.147404l-126.718804 135.688254z" fill="#FFFFFF" opacity=".17" p-id="3846"></path><path d="M186.776621 685.609072L23.21023 849.171152l-0.193957 23.399877 186.961957-186.961957z" fill="#FFFFFF" opacity=".2" p-id="3847"></path><path d="M179.190733 997.901961H47.105776c-31.209893 0-47.036813-15.82692-47.036813-47.041124v-283.242387c0-31.209893 15.82692-47.032503 47.036813-47.032503h132.089267c31.209893 0 47.032503 15.82261 47.032503 47.032503l-0.00431 283.242387c0.00431 31.218513-15.82261 47.041123-47.032503 47.041124z m-132.084957-342.834707c-12.206383 0-12.555506 0.353433-12.555506 12.551196v283.242387c0 12.206383 0.353433 12.559816 12.555506 12.559816h132.089267c12.202073 0 12.551196-0.353433 12.551196-12.559816l0.00431-283.242387c0-12.197762-0.353433-12.551196-12.551196-12.551196H47.105776z" fill="#6E6E96" p-id="3848"></path><path d="M17.305306 673.42855h191.681587v34.481307H17.305306z" fill="#6E6E96" p-id="3849"></path></svg>